<?xml version="1.0" encoding="utf-8"?>
<svg xmlns="http://www.w3.org/2000/svg" xmlns:xlink="http://www.w3.org/1999/xlink" width="800" height="600" viewBox="0 0 3200 2400">
<defs>
  <clipPath id="clip930">
    <rect x="0" y="0" width="3200" height="2400"/>
  </clipPath>
</defs>
<path clip-path="url(#clip930)" d="M0 2400 L3200 2400 L3200 0 L0 0  Z" fill="#ffffff" fill-rule="evenodd" fill-opacity="1"/>
<defs>
  <clipPath id="clip931">
    <rect x="640" y="0" width="2241" height="2241"/>
  </clipPath>
</defs>
<path clip-path="url(#clip930)" d="M277.705 2180.62 L3152.76 2180.62 L3152.76 47.2441 L277.705 47.2441  Z" fill="#ffffff" fill-rule="evenodd" fill-opacity="1"/>
<defs>
  <clipPath id="clip932">
    <rect x="277" y="47" width="2876" height="2134"/>
  </clipPath>
</defs>
<polyline clip-path="url(#clip932)" style="stroke:#000000; stroke-linecap:round; stroke-linejoin:round; stroke-width:2; stroke-opacity:0.1; fill:none" points="354.547,2180.62 354.547,47.2441 "/>
<polyline clip-path="url(#clip932)" style="stroke:#000000; stroke-linecap:round; stroke-linejoin:round; stroke-width:2; stroke-opacity:0.1; fill:none" points="807.353,2180.62 807.353,47.2441 "/>
<polyline clip-path="url(#clip932)" style="stroke:#000000; stroke-linecap:round; stroke-linejoin:round; stroke-width:2; stroke-opacity:0.1; fill:none" points="1260.16,2180.62 1260.16,47.2441 "/>
<polyline clip-path="url(#clip932)" style="stroke:#000000; stroke-linecap:round; stroke-linejoin:round; stroke-width:2; stroke-opacity:0.1; fill:none" points="1712.97,2180.62 1712.97,47.2441 "/>
<polyline clip-path="url(#clip932)" style="stroke:#000000; stroke-linecap:round; stroke-linejoin:round; stroke-width:2; stroke-opacity:0.1; fill:none" points="2165.77,2180.62 2165.77,47.2441 "/>
<polyline clip-path="url(#clip932)" style="stroke:#000000; stroke-linecap:round; stroke-linejoin:round; stroke-width:2; stroke-opacity:0.1; fill:none" points="2618.58,2180.62 2618.58,47.2441 "/>
<polyline clip-path="url(#clip932)" style="stroke:#000000; stroke-linecap:round; stroke-linejoin:round; stroke-width:2; stroke-opacity:0.1; fill:none" points="3071.39,2180.62 3071.39,47.2441 "/>
<polyline clip-path="url(#clip930)" style="stroke:#000000; stroke-linecap:round; stroke-linejoin:round; stroke-width:4; stroke-opacity:1; fill:none" points="277.705,2180.62 3152.76,2180.62 "/>
<polyline clip-path="url(#clip930)" style="stroke:#000000; stroke-linecap:round; stroke-linejoin:round; stroke-width:4; stroke-opacity:1; fill:none" points="354.547,2180.62 354.547,2161.72 "/>
<polyline clip-path="url(#clip930)" style="stroke:#000000; stroke-linecap:round; stroke-linejoin:round; stroke-width:4; stroke-opacity:1; fill:none" points="807.353,2180.62 807.353,2161.72 "/>
<polyline clip-path="url(#clip930)" style="stroke:#000000; stroke-linecap:round; stroke-linejoin:round; stroke-width:4; stroke-opacity:1; fill:none" points="1260.16,2180.62 1260.16,2161.72 "/>
<polyline clip-path="url(#clip930)" style="stroke:#000000; stroke-linecap:round; stroke-linejoin:round; stroke-width:4; stroke-opacity:1; fill:none" points="1712.97,2180.62 1712.97,2161.72 "/>
<polyline clip-path="url(#clip930)" style="stroke:#000000; stroke-linecap:round; stroke-linejoin:round; stroke-width:4; stroke-opacity:1; fill:none" points="2165.77,2180.62 2165.77,2161.72 "/>
<polyline clip-path="url(#clip930)" style="stroke:#000000; stroke-linecap:round; stroke-linejoin:round; stroke-width:4; stroke-opacity:1; fill:none" points="2618.58,2180.62 2618.58,2161.72 "/>
<polyline clip-path="url(#clip930)" style="stroke:#000000; stroke-linecap:round; stroke-linejoin:round; stroke-width:4; stroke-opacity:1; fill:none" points="3071.39,2180.62 3071.39,2161.72 "/>
<path clip-path="url(#clip930)" d="M354.547 2223.8 Q349.13 2223.8 346.387 2229.15 Q343.679 2234.46 343.679 2245.15 Q343.679 2255.81 346.387 2261.16 Q349.13 2266.47 354.547 2266.47 Q359.998 2266.47 362.706 2261.16 Q365.449 2255.81 365.449 2245.15 Q365.449 2234.46 362.706 2229.15 Q359.998 2223.8 354.547 2223.8 M354.547 2218.24 Q363.262 2218.24 367.845 2225.15 Q372.463 2232.03 372.463 2245.15 Q372.463 2258.24 367.845 2265.15 Q363.262 2272.03 354.547 2272.03 Q345.831 2272.03 341.213 2265.15 Q336.63 2258.24 336.63 2245.15 Q336.63 2232.03 341.213 2225.15 Q345.831 2218.24 354.547 2218.24 Z" fill="#000000" fill-rule="nonzero" fill-opacity="1" /><path clip-path="url(#clip930)" d="M746.763 2265.12 L758.222 2265.12 L758.222 2225.57 L745.756 2228.07 L745.756 2221.68 L758.152 2219.18 L765.166 2219.18 L765.166 2265.12 L776.624 2265.12 L776.624 2271.02 L746.763 2271.02 L746.763 2265.12 Z" fill="#000000" fill-rule="nonzero" fill-opacity="1" /><path clip-path="url(#clip930)" d="M805.791 2223.8 Q800.374 2223.8 797.631 2229.15 Q794.923 2234.46 794.923 2245.15 Q794.923 2255.81 797.631 2261.16 Q800.374 2266.47 805.791 2266.47 Q811.242 2266.47 813.951 2261.16 Q816.694 2255.81 816.694 2245.15 Q816.694 2234.46 813.951 2229.15 Q811.242 2223.8 805.791 2223.8 M805.791 2218.24 Q814.506 2218.24 819.089 2225.15 Q823.707 2232.03 823.707 2245.15 Q823.707 2258.24 819.089 2265.15 Q814.506 2272.03 805.791 2272.03 Q797.076 2272.03 792.458 2265.15 Q787.874 2258.24 787.874 2245.15 Q787.874 2232.03 792.458 2225.15 Q797.076 2218.24 805.791 2218.24 Z" fill="#000000" fill-rule="nonzero" fill-opacity="1" /><path clip-path="url(#clip930)" d="M851.034 2223.8 Q845.617 2223.8 842.874 2229.15 Q840.166 2234.46 840.166 2245.15 Q840.166 2255.81 842.874 2261.16 Q845.617 2266.47 851.034 2266.47 Q856.485 2266.47 859.193 2261.16 Q861.936 2255.81 861.936 2245.15 Q861.936 2234.46 859.193 2229.15 Q856.485 2223.8 851.034 2223.8 M851.034 2218.24 Q859.749 2218.24 864.332 2225.15 Q868.95 2232.03 868.95 2245.15 Q868.95 2258.24 864.332 2265.15 Q859.749 2272.03 851.034 2272.03 Q842.318 2272.03 837.7 2265.15 Q833.117 2258.24 833.117 2245.15 Q833.117 2232.03 837.7 2225.15 Q842.318 2218.24 851.034 2218.24 Z" fill="#000000" fill-rule="nonzero" fill-opacity="1" /><path clip-path="url(#clip930)" d="M1205.7 2265.12 L1230.18 2265.12 L1230.18 2271.02 L1197.26 2271.02 L1197.26 2265.12 Q1201.25 2260.99 1208.13 2254.04 Q1215.04 2247.06 1216.81 2245.05 Q1220.18 2241.26 1221.5 2238.66 Q1222.85 2236.02 1222.85 2233.49 Q1222.85 2229.35 1219.93 2226.75 Q1217.05 2224.15 1212.4 2224.15 Q1209.1 2224.15 1205.42 2225.29 Q1201.77 2226.44 1197.61 2228.76 L1197.61 2221.68 Q1201.84 2219.98 1205.52 2219.11 Q1209.21 2218.24 1212.26 2218.24 Q1220.32 2218.24 1225.11 2222.27 Q1229.9 2226.3 1229.9 2233.03 Q1229.9 2236.23 1228.68 2239.11 Q1227.5 2241.96 1224.34 2245.85 Q1223.48 2246.85 1218.82 2251.68 Q1214.17 2256.47 1205.7 2265.12 Z" fill="#000000" fill-rule="nonzero" fill-opacity="1" /><path clip-path="url(#clip930)" d="M1259.9 2223.8 Q1254.48 2223.8 1251.74 2229.15 Q1249.03 2234.46 1249.03 2245.15 Q1249.03 2255.81 1251.74 2261.16 Q1254.48 2266.47 1259.9 2266.47 Q1265.35 2266.47 1268.06 2261.16 Q1270.8 2255.81 1270.8 2245.15 Q1270.8 2234.46 1268.06 2229.15 Q1265.35 2223.8 1259.9 2223.8 M1259.9 2218.24 Q1268.61 2218.24 1273.2 2225.15 Q1277.82 2232.03 1277.82 2245.15 Q1277.82 2258.24 1273.2 2265.15 Q1268.61 2272.03 1259.9 2272.03 Q1251.18 2272.03 1246.57 2265.15 Q1241.98 2258.24 1241.98 2245.15 Q1241.98 2232.03 1246.57 2225.15 Q1251.18 2218.24 1259.9 2218.24 Z" fill="#000000" fill-rule="nonzero" fill-opacity="1" /><path clip-path="url(#clip930)" d="M1305.14 2223.8 Q1299.73 2223.8 1296.98 2229.15 Q1294.27 2234.46 1294.27 2245.15 Q1294.27 2255.81 1296.98 2261.16 Q1299.73 2266.47 1305.14 2266.47 Q1310.59 2266.47 1313.3 2261.16 Q1316.05 2255.81 1316.05 2245.15 Q1316.05 2234.46 1313.3 2229.15 Q1310.59 2223.8 1305.14 2223.8 M1305.14 2218.24 Q1313.86 2218.24 1318.44 2225.15 Q1323.06 2232.03 1323.06 2245.15 Q1323.06 2258.24 1318.44 2265.15 Q1313.86 2272.03 1305.14 2272.03 Q1296.43 2272.03 1291.81 2265.15 Q1287.23 2258.24 1287.23 2245.15 Q1287.23 2232.03 1291.81 2225.15 Q1296.43 2218.24 1305.14 2218.24 Z" fill="#000000" fill-rule="nonzero" fill-opacity="1" /><path clip-path="url(#clip930)" d="M1673.61 2243.07 Q1678.64 2244.14 1681.46 2247.55 Q1684.3 2250.95 1684.3 2255.95 Q1684.3 2263.62 1679.03 2267.83 Q1673.75 2272.03 1664.03 2272.03 Q1660.76 2272.03 1657.29 2271.37 Q1653.85 2270.74 1650.17 2269.46 L1650.17 2262.69 Q1653.09 2264.39 1656.56 2265.26 Q1660.03 2266.12 1663.82 2266.12 Q1670.41 2266.12 1673.85 2263.52 Q1677.32 2260.92 1677.32 2255.95 Q1677.32 2251.37 1674.1 2248.8 Q1670.9 2246.19 1665.17 2246.19 L1659.13 2246.19 L1659.13 2240.43 L1665.45 2240.43 Q1670.62 2240.43 1673.37 2238.38 Q1676.11 2236.3 1676.11 2232.41 Q1676.11 2228.42 1673.26 2226.3 Q1670.45 2224.15 1665.17 2224.15 Q1662.29 2224.15 1658.99 2224.77 Q1655.69 2225.4 1651.73 2226.71 L1651.73 2220.46 Q1655.73 2219.35 1659.2 2218.8 Q1662.71 2218.24 1665.8 2218.24 Q1673.78 2218.24 1678.44 2221.89 Q1683.09 2225.5 1683.09 2231.68 Q1683.09 2235.99 1680.62 2238.97 Q1678.16 2241.92 1673.61 2243.07 Z" fill="#000000" fill-rule="nonzero" fill-opacity="1" /><path clip-path="url(#clip930)" d="M1712.6 2223.8 Q1707.19 2223.8 1704.44 2229.15 Q1701.73 2234.46 1701.73 2245.15 Q1701.73 2255.81 1704.44 2261.16 Q1707.19 2266.47 1712.6 2266.47 Q1718.05 2266.47 1720.76 2261.16 Q1723.5 2255.81 1723.5 2245.15 Q1723.5 2234.46 1720.76 2229.15 Q1718.05 2223.8 1712.6 2223.8 M1712.6 2218.24 Q1721.32 2218.24 1725.9 2225.15 Q1730.52 2232.03 1730.52 2245.15 Q1730.52 2258.24 1725.9 2265.15 Q1721.32 2272.03 1712.6 2272.03 Q1703.89 2272.03 1699.27 2265.15 Q1694.69 2258.24 1694.69 2245.15 Q1694.69 2232.03 1699.27 2225.15 Q1703.89 2218.24 1712.6 2218.24 Z" fill="#000000" fill-rule="nonzero" fill-opacity="1" /><path clip-path="url(#clip930)" d="M1757.84 2223.8 Q1752.43 2223.8 1749.69 2229.15 Q1746.98 2234.46 1746.98 2245.15 Q1746.98 2255.81 1749.69 2261.16 Q1752.43 2266.47 1757.84 2266.47 Q1763.3 2266.47 1766 2261.16 Q1768.75 2255.81 1768.75 2245.15 Q1768.75 2234.46 1766 2229.15 Q1763.3 2223.8 1757.84 2223.8 M1757.84 2218.24 Q1766.56 2218.24 1771.14 2225.15 Q1775.76 2232.03 1775.76 2245.15 Q1775.76 2258.24 1771.14 2265.15 Q1766.56 2272.03 1757.84 2272.03 Q1749.13 2272.03 1744.51 2265.15 Q1739.93 2258.24 1739.93 2245.15 Q1739.93 2232.03 1744.51 2225.15 Q1749.13 2218.24 1757.84 2218.24 Z" fill="#000000" fill-rule="nonzero" fill-opacity="1" /><path clip-path="url(#clip930)" d="M2125.41 2225.29 L2107.7 2252.96 L2125.41 2252.96 L2125.41 2225.29 M2123.57 2219.18 L2132.39 2219.18 L2132.39 2252.96 L2139.78 2252.96 L2139.78 2258.8 L2132.39 2258.8 L2132.39 2271.02 L2125.41 2271.02 L2125.41 2258.8 L2102.01 2258.8 L2102.01 2252.03 L2123.57 2219.18 Z" fill="#000000" fill-rule="nonzero" fill-opacity="1" /><path clip-path="url(#clip930)" d="M2166.38 2223.8 Q2160.96 2223.8 2158.22 2229.15 Q2155.51 2234.46 2155.51 2245.15 Q2155.51 2255.81 2158.22 2261.16 Q2160.96 2266.47 2166.38 2266.47 Q2171.83 2266.47 2174.54 2261.16 Q2177.28 2255.81 2177.28 2245.15 Q2177.28 2234.46 2174.54 2229.15 Q2171.83 2223.8 2166.38 2223.8 M2166.38 2218.24 Q2175.1 2218.24 2179.68 2225.15 Q2184.3 2232.03 2184.3 2245.15 Q2184.3 2258.24 2179.68 2265.15 Q2175.1 2272.03 2166.38 2272.03 Q2157.67 2272.03 2153.05 2265.15 Q2148.46 2258.24 2148.46 2245.15 Q2148.46 2232.03 2153.05 2225.15 Q2157.67 2218.24 2166.38 2218.24 Z" fill="#000000" fill-rule="nonzero" fill-opacity="1" /><path clip-path="url(#clip930)" d="M2211.62 2223.8 Q2206.21 2223.8 2203.46 2229.15 Q2200.76 2234.46 2200.76 2245.15 Q2200.76 2255.81 2203.46 2261.16 Q2206.21 2266.47 2211.62 2266.47 Q2217.08 2266.47 2219.78 2261.16 Q2222.53 2255.81 2222.53 2245.15 Q2222.53 2234.46 2219.78 2229.15 Q2217.08 2223.8 2211.62 2223.8 M2211.62 2218.24 Q2220.34 2218.24 2224.92 2225.15 Q2229.54 2232.03 2229.54 2245.15 Q2229.54 2258.24 2224.92 2265.15 Q2220.34 2272.03 2211.62 2272.03 Q2202.91 2272.03 2198.29 2265.15 Q2193.71 2258.24 2193.71 2245.15 Q2193.71 2232.03 2198.29 2225.15 Q2202.91 2218.24 2211.62 2218.24 Z" fill="#000000" fill-rule="nonzero" fill-opacity="1" /><path clip-path="url(#clip930)" d="M2558.01 2219.18 L2585.54 2219.18 L2585.54 2225.08 L2564.43 2225.08 L2564.43 2237.79 Q2565.96 2237.27 2567.49 2237.03 Q2569.01 2236.75 2570.54 2236.75 Q2579.22 2236.75 2584.29 2241.51 Q2589.36 2246.26 2589.36 2254.39 Q2589.36 2262.76 2584.15 2267.41 Q2578.94 2272.03 2569.47 2272.03 Q2566.2 2272.03 2562.8 2271.47 Q2559.43 2270.92 2555.82 2269.8 L2555.82 2262.76 Q2558.94 2264.46 2562.28 2265.29 Q2565.61 2266.12 2569.33 2266.12 Q2575.33 2266.12 2578.84 2262.96 Q2582.35 2259.8 2582.35 2254.39 Q2582.35 2248.97 2578.84 2245.81 Q2575.33 2242.65 2569.33 2242.65 Q2566.51 2242.65 2563.7 2243.28 Q2560.92 2243.9 2558.01 2245.22 L2558.01 2219.18 Z" fill="#000000" fill-rule="nonzero" fill-opacity="1" /><path clip-path="url(#clip930)" d="M2618.18 2223.8 Q2612.76 2223.8 2610.02 2229.15 Q2607.31 2234.46 2607.31 2245.15 Q2607.31 2255.81 2610.02 2261.16 Q2612.76 2266.47 2618.18 2266.47 Q2623.63 2266.47 2626.34 2261.16 Q2629.08 2255.81 2629.08 2245.15 Q2629.08 2234.46 2626.34 2229.15 Q2623.63 2223.8 2618.18 2223.8 M2618.18 2218.24 Q2626.9 2218.24 2631.48 2225.15 Q2636.1 2232.03 2636.1 2245.15 Q2636.1 2258.24 2631.48 2265.15 Q2626.9 2272.03 2618.18 2272.03 Q2609.47 2272.03 2604.85 2265.15 Q2600.26 2258.24 2600.26 2245.15 Q2600.26 2232.03 2604.85 2225.15 Q2609.47 2218.24 2618.18 2218.24 Z" fill="#000000" fill-rule="nonzero" fill-opacity="1" /><path clip-path="url(#clip930)" d="M2663.42 2223.8 Q2658.01 2223.8 2655.26 2229.15 Q2652.56 2234.46 2652.56 2245.15 Q2652.56 2255.81 2655.26 2261.16 Q2658.01 2266.47 2663.42 2266.47 Q2668.87 2266.47 2671.58 2261.16 Q2674.33 2255.81 2674.33 2245.15 Q2674.33 2234.46 2671.58 2229.15 Q2668.87 2223.8 2663.42 2223.8 M2663.42 2218.24 Q2672.14 2218.24 2676.72 2225.15 Q2681.34 2232.03 2681.34 2245.15 Q2681.34 2258.24 2676.72 2265.15 Q2672.14 2272.03 2663.42 2272.03 Q2654.71 2272.03 2650.09 2265.15 Q2645.51 2258.24 2645.51 2245.15 Q2645.51 2232.03 2650.09 2225.15 Q2654.71 2218.24 2663.42 2218.24 Z" fill="#000000" fill-rule="nonzero" fill-opacity="1" /><path clip-path="url(#clip930)" d="M3026.87 2242.3 Q3022.15 2242.3 3019.37 2245.53 Q3016.63 2248.76 3016.63 2254.39 Q3016.63 2259.98 3019.37 2263.24 Q3022.15 2266.47 3026.87 2266.47 Q3031.6 2266.47 3034.34 2263.24 Q3037.12 2259.98 3037.12 2254.39 Q3037.12 2248.76 3034.34 2245.53 Q3031.6 2242.3 3026.87 2242.3 M3040.8 2220.33 L3040.8 2226.71 Q3038.16 2225.46 3035.45 2224.8 Q3032.78 2224.15 3030.14 2224.15 Q3023.19 2224.15 3019.51 2228.83 Q3015.87 2233.52 3015.35 2243 Q3017.39 2239.98 3020.48 2238.38 Q3023.57 2236.75 3027.29 2236.75 Q3035.1 2236.75 3039.62 2241.51 Q3044.16 2246.23 3044.16 2254.39 Q3044.16 2262.37 3039.44 2267.2 Q3034.72 2272.03 3026.87 2272.03 Q3017.88 2272.03 3013.12 2265.15 Q3008.37 2258.24 3008.37 2245.15 Q3008.37 2232.86 3014.2 2225.57 Q3020.03 2218.24 3029.86 2218.24 Q3032.5 2218.24 3035.17 2218.76 Q3037.88 2219.28 3040.8 2220.33 Z" fill="#000000" fill-rule="nonzero" fill-opacity="1" /><path clip-path="url(#clip930)" d="M3071.25 2223.8 Q3065.83 2223.8 3063.09 2229.15 Q3060.38 2234.46 3060.38 2245.15 Q3060.38 2255.81 3063.09 2261.16 Q3065.83 2266.47 3071.25 2266.47 Q3076.7 2266.47 3079.41 2261.16 Q3082.15 2255.81 3082.15 2245.15 Q3082.15 2234.46 3079.41 2229.15 Q3076.7 2223.8 3071.25 2223.8 M3071.25 2218.24 Q3079.96 2218.24 3084.55 2225.15 Q3089.16 2232.03 3089.16 2245.15 Q3089.16 2258.24 3084.55 2265.15 Q3079.96 2272.03 3071.25 2272.03 Q3062.53 2272.03 3057.91 2265.15 Q3053.33 2258.24 3053.33 2245.15 Q3053.33 2232.03 3057.91 2225.15 Q3062.53 2218.24 3071.25 2218.24 Z" fill="#000000" fill-rule="nonzero" fill-opacity="1" /><path clip-path="url(#clip930)" d="M3116.49 2223.8 Q3111.07 2223.8 3108.33 2229.15 Q3105.62 2234.46 3105.62 2245.15 Q3105.62 2255.81 3108.33 2261.16 Q3111.07 2266.47 3116.49 2266.47 Q3121.94 2266.47 3124.65 2261.16 Q3127.39 2255.81 3127.39 2245.15 Q3127.39 2234.46 3124.65 2229.15 Q3121.94 2223.8 3116.49 2223.8 M3116.49 2218.24 Q3125.21 2218.24 3129.79 2225.15 Q3134.41 2232.03 3134.41 2245.15 Q3134.41 2258.24 3129.79 2265.15 Q3125.21 2272.03 3116.49 2272.03 Q3107.78 2272.03 3103.16 2265.15 Q3098.57 2258.24 3098.57 2245.15 Q3098.57 2232.03 3103.16 2225.15 Q3107.78 2218.24 3116.49 2218.24 Z" fill="#000000" fill-rule="nonzero" fill-opacity="1" /><path clip-path="url(#clip930)" d="M1732.76 2335.24 Q1731.85 2339.77 1730.62 2342.37 Q1728.65 2346.34 1725.28 2346.34 Q1722.89 2346.34 1721.06 2344.9 Q1719.27 2343.46 1718.82 2341.07 Q1717.9 2342.16 1717.23 2342.8 Q1716.6 2343.43 1715.34 2344.41 Q1714.11 2345.36 1712.56 2345.85 Q1711.02 2346.34 1709.26 2346.34 Q1704.97 2346.34 1702.27 2344.1 Q1698.61 2358.82 1698.3 2359.55 Q1697.28 2361.07 1695.8 2361.07 Q1694.89 2361.07 1694.33 2360.5 Q1693.77 2359.98 1693.77 2359.13 Q1693.8 2358.85 1694.01 2357.97 L1704.34 2316.34 Q1704.62 2315.22 1705.32 2314.58 Q1706.06 2313.92 1706.48 2313.85 Q1706.91 2313.74 1707.22 2313.74 Q1708.17 2313.74 1708.73 2314.27 Q1709.33 2314.76 1709.33 2315.67 Q1709.33 2315.81 1709.12 2316.62 Q1708.94 2317.39 1708.66 2318.59 Q1708.38 2319.75 1708.24 2320.27 L1705.22 2332.36 Q1704.2 2336.51 1704.2 2338.47 Q1704.2 2341.46 1705.53 2343.11 Q1706.91 2344.73 1709.54 2344.73 Q1711.19 2344.73 1712.74 2344.06 Q1714.28 2343.36 1715.34 2342.41 Q1716.39 2341.46 1717.23 2340.44 Q1718.08 2339.39 1718.46 2338.72 Q1718.85 2338.02 1718.89 2337.84 L1720.75 2330.5 L1724.16 2317.04 Q1724.37 2316.2 1724.75 2315.64 Q1725.17 2315.04 1725.67 2314.83 Q1726.16 2314.62 1726.44 2314.58 Q1726.72 2314.51 1726.97 2314.51 Q1727.84 2314.51 1728.44 2315.04 Q1729.04 2315.57 1729.04 2316.48 Q1729.04 2316.66 1728.83 2317.5 Q1728.65 2318.31 1728.37 2319.5 Q1728.09 2320.66 1727.95 2321.29 Q1726.83 2325.72 1726.72 2326.18 L1724.72 2333.94 Q1724.61 2334.4 1724.26 2335.87 Q1723.95 2337.35 1723.77 2338.12 Q1723.59 2338.86 1723.42 2339.88 Q1723.28 2340.86 1723.28 2341.43 Q1723.28 2344.73 1725.46 2344.73 Q1726.3 2344.73 1727.04 2344.24 Q1727.77 2343.71 1728.27 2342.97 Q1728.79 2342.23 1729.29 2340.97 Q1729.81 2339.67 1730.13 2338.61 Q1730.44 2337.53 1730.9 2335.84 Q1731.08 2335.03 1731.25 2334.79 Q1731.43 2334.54 1731.92 2334.54 Q1732.76 2334.54 1732.76 2335.24 Z" fill="#000000" fill-rule="nonzero" fill-opacity="1" /><polyline clip-path="url(#clip932)" style="stroke:#000000; stroke-linecap:round; stroke-linejoin:round; stroke-width:2; stroke-opacity:0.1; fill:none" points="277.705,1360.25 3152.76,1360.25 "/>
<polyline clip-path="url(#clip932)" style="stroke:#000000; stroke-linecap:round; stroke-linejoin:round; stroke-width:2; stroke-opacity:0.1; fill:none" points="277.705,261.781 3152.76,261.781 "/>
<polyline clip-path="url(#clip930)" style="stroke:#000000; stroke-linecap:round; stroke-linejoin:round; stroke-width:4; stroke-opacity:1; fill:none" points="277.705,2180.62 277.705,47.2441 "/>
<polyline clip-path="url(#clip930)" style="stroke:#000000; stroke-linecap:round; stroke-linejoin:round; stroke-width:4; stroke-opacity:1; fill:none" points="277.705,1360.25 296.603,1360.25 "/>
<polyline clip-path="url(#clip930)" style="stroke:#000000; stroke-linecap:round; stroke-linejoin:round; stroke-width:4; stroke-opacity:1; fill:none" points="277.705,261.781 296.603,261.781 "/>
<path clip-path="url(#clip930)" d="M126.017 1389.94 L137.475 1389.94 L137.475 1350.39 L125.01 1352.89 L125.01 1346.5 L137.406 1344 L144.419 1344 L144.419 1389.94 L155.878 1389.94 L155.878 1395.84 L126.017 1395.84 L126.017 1389.94 Z" fill="#000000" fill-rule="nonzero" fill-opacity="1" /><path clip-path="url(#clip930)" d="M185.044 1348.62 Q179.628 1348.62 176.885 1353.97 Q174.176 1359.28 174.176 1369.98 Q174.176 1380.63 176.885 1385.98 Q179.628 1391.29 185.044 1391.29 Q190.496 1391.29 193.204 1385.98 Q195.947 1380.63 195.947 1369.98 Q195.947 1359.28 193.204 1353.97 Q190.496 1348.62 185.044 1348.62 M185.044 1343.07 Q193.759 1343.07 198.343 1349.98 Q202.961 1356.85 202.961 1369.98 Q202.961 1383.07 198.343 1389.98 Q193.759 1396.85 185.044 1396.85 Q176.329 1396.85 171.711 1389.98 Q167.128 1383.07 167.128 1369.98 Q167.128 1356.85 171.711 1349.98 Q176.329 1343.07 185.044 1343.07 Z" fill="#000000" fill-rule="nonzero" fill-opacity="1" /><path clip-path="url(#clip930)" d="M209.816 1349.93 L229.705 1349.93 L229.705 1354.73 L202.961 1354.73 L202.961 1349.93 Q206.205 1346.57 211.791 1340.93 Q217.405 1335.26 218.844 1333.63 Q221.58 1330.55 222.652 1328.43 Q223.753 1326.29 223.753 1324.23 Q223.753 1320.87 221.383 1318.76 Q219.041 1316.64 215.261 1316.64 Q212.581 1316.64 209.59 1317.57 Q206.628 1318.5 203.243 1320.39 L203.243 1314.64 Q206.685 1313.26 209.675 1312.55 Q212.666 1311.85 215.148 1311.85 Q221.693 1311.85 225.587 1315.12 Q229.48 1318.39 229.48 1323.86 Q229.48 1326.46 228.492 1328.8 Q227.533 1331.11 224.966 1334.27 Q224.261 1335.09 220.48 1339.01 Q216.7 1342.91 209.816 1349.93 Z" fill="#000000" fill-rule="nonzero" fill-opacity="1" /><path clip-path="url(#clip930)" d="M122.067 291.47 L133.525 291.47 L133.525 251.922 L121.06 254.422 L121.06 248.033 L133.456 245.533 L140.47 245.533 L140.47 291.47 L151.928 291.47 L151.928 297.373 L122.067 297.373 L122.067 291.47 Z" fill="#000000" fill-rule="nonzero" fill-opacity="1" /><path clip-path="url(#clip930)" d="M181.095 250.151 Q175.678 250.151 172.935 255.498 Q170.227 260.81 170.227 271.505 Q170.227 282.164 172.935 287.512 Q175.678 292.824 181.095 292.824 Q186.546 292.824 189.254 287.512 Q191.997 282.164 191.997 271.505 Q191.997 260.81 189.254 255.498 Q186.546 250.151 181.095 250.151 M181.095 244.595 Q189.81 244.595 194.393 251.505 Q199.011 258.38 199.011 271.505 Q199.011 284.595 194.393 291.505 Q189.81 298.38 181.095 298.38 Q172.379 298.38 167.761 291.505 Q163.178 284.595 163.178 271.505 Q163.178 258.38 167.761 251.505 Q172.379 244.595 181.095 244.595 Z" fill="#000000" fill-rule="nonzero" fill-opacity="1" /><path clip-path="url(#clip930)" d="M218.026 219.102 L203.638 241.587 L218.026 241.587 L218.026 219.102 M216.531 214.137 L223.696 214.137 L223.696 241.587 L229.705 241.587 L229.705 246.327 L223.696 246.327 L223.696 256.257 L218.026 256.257 L218.026 246.327 L199.011 246.327 L199.011 240.825 L216.531 214.137 Z" fill="#000000" fill-rule="nonzero" fill-opacity="1" /><path clip-path="url(#clip930)" d="M9.21958 1224.74 Q9.88712 1224.74 10.2033 1225.02 Q10.4844 1225.27 10.5547 1225.66 Q10.5898 1226.04 10.5898 1227.06 Q10.5898 1228.78 10.7303 1229.87 Q10.8357 1230.96 11.0114 1231.63 Q11.1519 1232.3 11.6438 1232.68 Q12.1005 1233.03 12.5221 1233.21 Q12.9438 1233.35 13.8924 1233.6 L52.2232 1243.22 Q53.3475 1243.54 53.9096 1243.54 Q54.5069 1243.54 54.7528 1243.19 Q54.9988 1242.84 55.1042 1241.71 Q55.2798 1239.92 55.2798 1238.62 Q55.2798 1236.9 55.5258 1236.65 Q55.7717 1236.48 56.123 1236.48 Q56.7554 1236.48 57.1068 1236.76 Q57.423 1237.04 57.4581 1237.29 Q57.4932 1237.5 57.4932 1237.92 L57.2824 1247.54 L57.4932 1257 Q57.4932 1258.05 56.6852 1258.05 Q56.1582 1258.05 55.8771 1257.98 Q55.5609 1257.87 55.4555 1257.52 Q55.315 1257.14 55.315 1256.85 Q55.2798 1256.57 55.2798 1255.77 Q55.2798 1254.32 55.2447 1253.38 Q55.1744 1252.39 54.9988 1251.69 Q54.7879 1250.95 54.6123 1250.6 Q54.4015 1250.21 53.9447 1249.93 Q53.4529 1249.62 53.0664 1249.51 Q52.6799 1249.37 51.8719 1249.2 L13.0843 1239.5 Q12.4519 1239.36 11.96 1239.36 Q11.0114 1239.36 10.8006 1240.48 Q10.5898 1241.57 10.5898 1244.31 Q10.5898 1245.16 10.5547 1245.51 Q10.5195 1245.82 10.3439 1246.1 Q10.1682 1246.35 9.78172 1246.35 Q9.28985 1246.35 8.97365 1246.21 Q8.62231 1246.07 8.51691 1245.82 Q8.41151 1245.54 8.37637 1245.37 Q8.34124 1245.19 8.34124 1244.91 L8.55204 1235.32 L8.34124 1225.83 Q8.34124 1224.74 9.21958 1224.74 Z" fill="#000000" fill-rule="nonzero" fill-opacity="1" /><path clip-path="url(#clip930)" d="M47.1991 1161.99 Q47.4801 1161.99 48.5693 1162.31 Q49.6584 1162.62 51.3448 1163.39 Q53.0313 1164.13 54.5771 1165.19 Q56.0879 1166.21 57.2122 1167.89 Q58.3013 1169.54 58.3013 1171.44 Q58.3013 1173.97 56.6149 1175.66 Q54.9285 1177.34 52.3989 1177.34 Q51.0286 1177.34 48.4288 1176.39 Q36.5536 1171.93 32.3024 1171.93 Q27.2783 1171.93 27.2783 1175.83 Q27.2783 1178.05 28.1918 1180.05 Q29.1052 1182.05 30.37 1183.35 Q31.6349 1184.65 33.0753 1185.67 Q34.5158 1186.69 35.4644 1187.14 Q36.413 1187.57 36.8346 1187.67 L54.1907 1191.99 Q55.6663 1192.34 56.369 1192.59 Q57.0716 1192.84 57.6689 1193.5 Q58.3013 1194.17 58.3013 1195.23 Q58.3013 1196.1 57.7743 1196.74 Q57.2473 1197.33 56.3338 1197.33 Q56.1933 1197.33 55.4555 1197.16 Q54.7177 1196.98 53.6988 1196.74 Q52.6799 1196.49 52.0827 1196.38 Q47.3045 1195.12 46.6369 1194.94 L38.2751 1192.94 Q34.1294 1191.85 32.3024 1191.85 Q27.2783 1191.85 27.2783 1195.75 Q27.2783 1197.68 28.0161 1199.51 Q28.7188 1201.3 29.7025 1202.53 Q30.6863 1203.76 32.0565 1204.89 Q33.3915 1205.98 34.305 1206.54 Q35.1834 1207.07 36.0617 1207.49 L39.6453 1208.4 Q40.6291 1208.61 44.4587 1209.63 L50.9584 1211.21 Q55.8068 1212.34 56.2636 1212.58 Q57.2473 1212.93 57.7743 1213.71 Q58.3013 1214.48 58.3013 1215.25 Q58.3013 1216.13 57.7743 1216.73 Q57.2473 1217.32 56.3338 1217.32 Q56.1933 1217.32 55.6663 1217.22 Q55.1393 1217.11 54.4015 1216.94 Q53.6637 1216.76 53.2421 1216.69 L36.6238 1212.51 Q33.6023 1211.74 32.6537 1211.56 Q31.67 1211.35 30.5809 1211.35 Q27.2783 1211.35 27.2783 1213.6 Q27.2783 1215.43 29.4566 1216.62 Q31.6349 1217.82 35.8509 1218.84 Q37.0103 1219.15 37.2562 1219.36 Q37.5022 1219.54 37.5022 1220.06 Q37.4671 1220.94 36.7644 1220.94 Q36.5887 1220.94 35.4644 1220.66 Q34.3402 1220.38 32.6537 1219.85 Q30.9322 1219.29 29.8079 1218.69 Q29.0701 1218.34 28.5782 1218.03 Q28.0864 1217.71 27.3134 1217.08 Q26.5405 1216.45 26.1189 1215.5 Q25.6973 1214.55 25.6973 1213.39 Q25.6973 1210.82 27.3486 1208.93 Q28.9998 1207 31.9511 1206.75 Q25.6973 1202.08 25.6973 1195.54 Q25.6973 1191.85 27.5594 1189.64 Q29.3512 1187.57 32.6537 1187.32 Q25.6973 1182.47 25.6973 1175.59 Q25.6973 1171.62 27.7702 1169.47 Q29.8079 1167.33 33.3915 1167.33 Q35.2536 1167.33 38.8021 1168.28 Q42.3155 1169.23 44.0722 1169.86 Q45.8289 1170.49 49.2017 1171.72 Q52.434 1173.02 54.3312 1173.02 Q55.5609 1173.02 56.123 1172.6 Q56.6852 1172.18 56.6852 1171.26 Q56.6852 1169.86 55.8771 1168.63 Q55.0339 1167.4 53.6637 1166.52 Q52.2583 1165.61 50.853 1165.01 Q49.4125 1164.41 47.7963 1163.96 Q46.918 1163.68 46.7072 1163.53 Q46.4964 1163.36 46.4964 1162.87 Q46.4964 1161.99 47.1991 1161.99 Z" fill="#000000" fill-rule="nonzero" fill-opacity="1" /><path clip-path="url(#clip930)" d="M39.9615 1158.25 Q39.7859 1158.39 39.5048 1158.39 Q39.2237 1158.39 39.0481 1158.29 Q38.8724 1158.18 38.8021 1157.93 Q38.6967 1157.69 38.6616 1157.44 Q38.6265 1157.2 38.5562 1156.67 Q38.4859 1156.11 38.4157 1155.69 Q37.9238 1153.09 36.1671 1150.98 Q34.4104 1148.83 31.8105 1148.41 Q31.1079 1148.27 29.7025 1148.27 L14.0329 1148.27 Q10.3087 1148.27 8.13044 1146.48 Q5.74135 1144.55 4.65221 1141.07 Q3.52793 1137.56 3.52793 1134.36 Q3.52793 1133.06 4.336 1133.09 Q4.68734 1133.09 4.86301 1133.31 Q5.03868 1133.52 5.10894 1133.9 Q5.17921 1134.29 5.24948 1134.78 Q5.31975 1135.24 5.42515 1135.91 Q5.53055 1136.54 5.67108 1137.1 Q7.6737 1143.21 13.6113 1143.21 L29.8079 1143.21 Q37.3616 1143.21 39.5048 1151.79 Q41.648 1143.21 48.7801 1143.21 L64.7659 1143.21 Q66.4875 1143.21 67.3658 1143.07 Q69.8252 1142.58 71.617 1140.37 Q73.4088 1138.12 73.7601 1134.82 Q73.9709 1133.09 74.6736 1133.09 Q75.4817 1133.09 75.4817 1134.29 Q75.4817 1139.38 73.2683 1143.53 Q71.09 1147.68 66.9091 1148.2 Q66.2064 1148.27 64.8362 1148.27 L49.0612 1148.27 Q46.6721 1148.27 44.8803 1149.26 Q43.0884 1150.2 42.2452 1151.65 Q41.3669 1153.09 40.9804 1154.17 Q40.5939 1155.23 40.4534 1156.11 Q40.4534 1156.32 40.4183 1156.74 Q40.3831 1157.13 40.348 1157.37 Q40.3129 1157.62 40.2426 1157.86 Q40.1372 1158.11 39.9615 1158.25 Z" fill="#000000" fill-rule="nonzero" fill-opacity="1" /><path clip-path="url(#clip930)" d="M57.5635 1087.18 Q58.231 1087.18 58.3013 1087.95 L58.3013 1089.53 Q58.3013 1091.15 58.0554 1091.85 Q57.8094 1092.55 56.6852 1093.36 Q55.9825 1093.85 52.7151 1095.08 Q49.4125 1096.28 44.4235 1098.03 Q39.4345 1099.75 36.4833 1100.91 L56.9311 1118.23 Q58.4418 1119.43 58.4418 1120.62 Q58.4418 1121.5 57.8446 1122.13 Q57.2473 1122.77 56.3338 1122.77 Q55.6663 1122.77 55.2798 1122.52 Q54.8933 1122.24 54.1204 1121.5 L34.4104 1101.62 L14.841 1108.61 Q11.2222 1109.94 10.3087 1110.71 Q9.39525 1111.45 9.07905 1113.28 Q8.90338 1113.95 8.34124 1113.95 Q7.5683 1113.95 7.5683 1112.65 Q7.5683 1105.69 12.6627 1103.86 L53.5934 1089.18 Q55.9474 1088.37 56.9311 1087.53 Q57.3878 1087.18 57.5635 1087.18 Z" fill="#000000" fill-rule="nonzero" fill-opacity="1" /><path clip-path="url(#clip930)" d="M63.8399 1064.73 Q63.8399 1065.89 63.2251 1065.89 Q62.6102 1065.89 62.6102 1064.68 Q62.6102 1064.53 62.6348 1064.29 Q62.6594 1064.02 62.6594 1063.97 L62.6594 1049.78 L48.4198 1049.78 Q48.3706 1049.78 48.1492 1049.8 Q47.9033 1049.83 47.7557 1049.83 Q46.5506 1049.83 46.5506 1049.24 Q46.5506 1048.62 47.7557 1048.62 L62.6594 1048.62 L62.6594 1034.41 Q62.6594 1034.36 62.6348 1034.11 Q62.6102 1033.86 62.6102 1033.72 Q62.6102 1032.56 63.2251 1032.56 Q63.8399 1032.54 63.8399 1033.77 Q63.8399 1033.91 63.8153 1034.14 Q63.7907 1034.36 63.7907 1034.41 L63.7907 1048.62 L78.7436 1048.62 Q79.8995 1048.62 79.8995 1049.24 Q79.8995 1049.83 78.6944 1049.83 Q78.5469 1049.83 78.3009 1049.8 Q78.0796 1049.78 78.0304 1049.78 L63.7907 1049.78 L63.7907 1063.97 Q63.7907 1064.02 63.8153 1064.31 Q63.8399 1064.58 63.8399 1064.73 Z" fill="#000000" fill-rule="nonzero" fill-opacity="1" /><path clip-path="url(#clip930)" d="M74.6736 1005.44 Q74.1817 1005.44 74.0412 1004.98 Q73.9007 1004.53 73.7601 1003.4 Q73.6196 1002.28 73.3385 1001.43 Q71.3359 995.321 65.3983 995.321 L49.2017 995.321 Q41.648 995.321 39.5048 986.749 Q37.3616 995.321 30.2998 995.321 L14.2437 995.321 Q12.5221 995.321 11.6438 995.462 Q9.18445 995.954 7.39263 998.202 Q5.60081 1000.42 5.24948 1003.72 Q5.24948 1003.79 5.21434 1004.14 Q5.17921 1004.46 5.14408 1004.6 Q5.10894 1004.74 5.03868 1004.98 Q4.96841 1005.23 4.79274 1005.33 Q4.61707 1005.44 4.40627 1005.44 Q3.52793 1005.44 3.52793 1004.25 Q3.52793 999.151 5.74135 995.005 Q7.91964 990.859 12.1005 990.332 Q12.8032 990.262 14.1734 990.262 L29.9484 990.262 Q32.3375 990.262 34.1294 989.349 Q35.9212 988.4 36.7995 986.924 Q37.6427 985.449 38.0292 984.465 Q38.4157 983.446 38.5562 982.427 Q38.5562 982.216 38.5913 981.83 Q38.6265 981.408 38.7319 981.162 Q38.8021 980.917 38.8724 980.671 Q38.9427 980.425 39.1183 980.284 Q39.294 980.144 39.5048 980.144 Q39.7859 980.144 39.9615 980.249 Q40.1372 980.354 40.2426 980.635 Q40.3129 980.917 40.348 981.233 Q40.3831 981.514 40.4534 982.006 Q40.5237 982.498 40.5939 982.919 Q41.0858 985.519 42.8074 987.627 Q44.5289 989.7 47.1991 990.122 Q47.9017 990.262 49.3071 990.262 L64.9767 990.262 Q66.4172 990.262 67.2604 990.403 Q68.1387 990.508 69.6846 991.351 Q71.2305 992.159 72.4602 993.74 Q75.4817 997.851 75.4817 1004.18 Q75.4817 1005.44 74.6736 1005.44 Z" fill="#000000" fill-rule="nonzero" fill-opacity="1" /><polyline clip-path="url(#clip932)" style="stroke:#000000; stroke-linecap:round; stroke-linejoin:round; stroke-width:8; stroke-opacity:1; fill:none" points="359.075,2120.24 361.79,2033.66 364.505,1964.95 367.22,1908.02 369.935,1859.4 372.65,1816.92 375.365,1779.2 378.08,1745.24 380.795,1714.37 383.51,1686.06 386.225,1659.92 388.94,1635.62 391.655,1612.94 394.37,1591.66 397.085,1571.62 399.8,1552.68 402.515,1534.73 405.23,1517.67 407.945,1501.41 410.66,1485.89 413.375,1471.03 416.09,1456.78 418.805,1443.1 421.52,1429.93 424.235,1417.25 426.95,1405.02 429.665,1393.2 432.38,1381.77 435.096,1370.7 437.811,1359.98 440.526,1349.58 443.241,1339.48 445.956,1329.67 448.671,1320.12 451.386,1310.83 454.101,1301.78 456.816,1292.96 459.531,1284.36 462.246,1275.97 464.961,1267.77 467.676,1259.76 470.391,1251.93 473.106,1244.27 475.821,1236.78 478.536,1229.44 481.251,1222.26 483.966,1215.22 486.681,1208.32 489.396,1201.55 492.111,1194.91 494.826,1188.4 497.541,1182 500.256,1175.72 502.971,1169.55 505.686,1163.49 508.401,1157.53 511.116,1151.67 513.831,1145.91 516.546,1140.24 519.261,1134.66 521.976,1129.17 524.691,1123.76 527.406,1118.44 530.121,1113.19 532.836,1108.02 535.552,1102.93 538.267,1097.91 540.982,1092.96 543.697,1088.08 546.412,1083.27 549.127,1078.52 551.842,1073.83 554.557,1069.21 557.272,1064.65 559.987,1060.14 562.702,1055.7 565.417,1051.31 568.132,1046.97 570.847,1042.68 573.562,1038.45 576.277,1034.27 578.992,1030.14 581.707,1026.05 584.422,1022.01 587.137,1018.02 589.852,1014.08 592.567,1010.17 595.282,1006.31 597.997,1002.49 600.712,998.715 603.427,994.978 606.142,991.28 608.857,987.621 611.572,983.999 614.287,980.414 617.002,976.866 619.717,973.353 622.432,969.874 625.147,966.43 627.862,963.019 630.577,959.641 633.292,956.295 636.007,952.98 638.723,949.696 641.438,946.443 644.153,943.22 646.868,940.025 649.583,936.86 652.298,933.723 655.013,930.613 657.728,927.531 660.443,924.475 663.158,921.446 665.873,918.443 668.588,915.465 671.303,912.512 674.018,909.583 676.733,906.679 679.448,903.798 682.163,900.941 684.878,898.107 687.593,895.295 690.308,892.506 693.023,889.738 695.738,886.992 698.453,884.268 701.168,881.564 703.883,878.881 706.598,876.218 709.313,873.575 712.028,870.952 714.743,868.348 717.458,865.763 720.173,863.197 722.888,860.65 725.603,858.12 728.318,855.609 731.033,853.116 733.748,850.64 736.463,848.181 739.179,845.74 741.894,843.315 744.609,840.907 747.324,838.515 750.039,836.139 752.754,833.779 755.469,831.435 758.184,829.106 760.899,826.793 763.614,824.494 766.329,822.211 769.044,819.942 771.759,817.688 774.474,815.448 777.189,813.222 779.904,811.01 782.619,808.812 785.334,806.627 788.049,804.456 790.764,802.298 793.479,800.153 796.194,798.021 798.909,795.902 801.624,793.796 804.339,791.702 807.054,789.621 809.769,787.551 812.484,785.494 815.199,783.449 817.914,781.415 820.629,779.393 823.344,777.383 826.059,775.384 828.774,773.396 831.489,771.419 834.204,769.454 836.919,767.499 839.635,765.555 842.35,763.622 845.065,761.699 847.78,759.786 850.495,757.884 853.21,755.992 855.925,754.11 858.64,752.239 861.355,750.377 864.07,748.524 866.785,746.682 869.5,744.849 872.215,743.025 874.93,741.211 877.645,739.406 880.36,737.61 883.075,735.823 885.79,734.046 888.505,732.277 891.22,730.517 893.935,728.765 896.65,727.023 899.365,725.289 902.08,723.563 904.795,721.846 907.51,720.137 910.225,718.436 912.94,716.743 915.655,715.059 918.37,713.382 921.085,711.714 923.8,710.053 926.515,708.4 929.23,706.755 931.945,705.117 934.66,703.487 937.375,701.864 940.091,700.249 942.806,698.641 945.521,697.04 948.236,695.447 950.951,693.861 953.666,692.281 956.381,690.709 959.096,689.144 961.811,687.586 964.526,686.034 967.241,684.49 969.956,682.952 972.671,681.42 975.386,679.895 978.101,678.377 980.816,676.866 983.531,675.36 986.246,673.861 988.961,672.369 991.676,670.883 994.391,669.402 997.106,667.929 999.821,666.461 1002.54,664.999 1005.25,663.543 1007.97,662.094 1010.68,660.65 1013.4,659.212 1016.11,657.78 1018.83,656.353 1021.54,654.933 1024.26,653.518 1026.97,652.108 1029.69,650.705 1032.4,649.306 1035.12,647.914 1037.83,646.526 1040.55,645.145 1043.26,643.768 1045.98,642.397 1048.69,641.031 1051.41,639.671 1054.12,638.315 1056.84,636.965 1059.55,635.62 1062.27,634.28 1064.98,632.945 1067.7,631.615 1070.41,630.29 1073.13,628.97 1075.84,627.655 1078.56,626.345 1081.27,625.04 1083.99,623.739 1086.7,622.443 1089.42,621.152 1092.13,619.866 1094.85,618.584 1097.56,617.307 1100.28,616.034 1102.99,614.766 1105.71,613.503 1108.42,612.244 1111.14,610.989 1113.85,609.739 1116.57,608.494 1119.28,607.252 1122,606.015 1124.71,604.783 1127.43,603.554 1130.14,602.33 1132.86,601.11 1135.57,599.894 1138.29,598.683 1141,597.475 1143.72,596.272 1146.43,595.073 1149.15,593.878 1151.86,592.686 1154.58,591.499 1157.29,590.316 1160.01,589.137 1162.72,587.961 1165.44,586.79 1168.15,585.622 1170.87,584.458 1173.58,583.298 1176.3,582.142 1179.01,580.99 1181.73,579.841 1184.44,578.696 1187.16,577.555 1189.87,576.417 1192.59,575.283 1195.3,574.152 1198.02,573.026 1200.73,571.902 1203.45,570.783 1206.16,569.667 1208.88,568.554 1211.59,567.445 1214.31,566.339 1217.02,565.237 1219.74,564.138 1222.45,563.043 1225.17,561.951 1227.88,560.862 1230.6,559.776 1233.31,558.694 1236.03,557.616 1238.74,556.54 1241.46,555.468 1244.17,554.399 1246.89,553.333 1249.6,552.271 1252.32,551.211 1255.03,550.155 1257.75,549.102 1260.46,548.052 1263.18,547.005 1265.89,545.961 1268.61,544.92 1271.32,543.883 1274.04,542.848 1276.75,541.816 1279.47,540.788 1282.18,539.762 1284.9,538.739 1287.61,537.719 1290.33,536.703 1293.04,535.689 1295.76,534.678 1298.47,533.669 1301.19,532.664 1303.9,531.662 1306.62,530.662 1309.33,529.665 1312.05,528.671 1314.76,527.68 1317.48,526.691 1320.19,525.705 1322.91,524.722 1325.62,523.742 1328.34,522.764 1331.05,521.79 1333.77,520.817 1336.48,519.848 1339.2,518.881 1341.91,517.916 1344.63,516.955 1347.34,515.996 1350.06,515.039 1352.77,514.085 1355.49,513.134 1358.2,512.185 1360.92,511.239 1363.63,510.295 1366.35,509.354 1369.06,508.415 1371.78,507.479 1374.49,506.545 1377.21,505.613 1379.92,504.685 1382.64,503.758 1385.35,502.834 1388.07,501.912 1390.78,500.993 1393.5,500.076 1396.22,499.161 1398.93,498.249 1401.65,497.339 1404.36,496.432 1407.08,495.527 1409.79,494.624 1412.51,493.723 1415.22,492.825 1417.94,491.929 1420.65,491.035 1423.37,490.143 1426.08,489.254 1428.8,488.367 1431.51,487.482 1434.23,486.599 1436.94,485.719 1439.66,484.84 1442.37,483.964 1445.09,483.09 1447.8,482.218 1450.52,481.349 1453.23,480.481 1455.95,479.616 1458.66,478.752 1461.38,477.891 1464.09,477.032 1466.81,476.175 1469.52,475.32 1472.24,474.467 1474.95,473.616 1477.67,472.767 1480.38,471.92 1483.1,471.075 1485.81,470.232 1488.53,469.391 1491.24,468.552 1493.96,467.716 1496.67,466.881 1499.39,466.048 1502.1,465.217 1504.82,464.388 1507.53,463.561 1510.25,462.735 1512.96,461.912 1515.68,461.091 1518.39,460.271 1521.11,459.454 1523.82,458.638 1526.54,457.824 1529.25,457.012 1531.97,456.202 1534.68,455.394 1537.4,454.587 1540.11,453.783 1542.83,452.98 1545.54,452.179 1548.26,451.38 1550.97,450.582 1553.69,449.787 1556.4,448.993 1559.12,448.201 1561.83,447.41 1564.55,446.622 1567.26,445.835 1569.98,445.05 1572.69,444.267 1575.41,443.485 1578.12,442.705 1580.84,441.927 1583.55,441.151 1586.27,440.376 1588.98,439.603 1591.7,438.832 1594.41,438.062 1597.13,437.294 1599.84,436.527 1602.56,435.763 1605.27,435 1607.99,434.238 1610.7,433.478 1613.42,432.72 1616.13,431.963 1618.85,431.209 1621.56,430.455 1624.28,429.703 1626.99,428.953 1629.71,428.205 1632.42,427.458 1635.14,426.712 1637.85,425.968 1640.57,425.226 1643.28,424.485 1646,423.746 1648.71,423.008 1651.43,422.272 1654.14,421.537 1656.86,420.804 1659.57,420.072 1662.29,419.342 1665,418.614 1667.72,417.887 1670.43,417.161 1673.15,416.437 1675.86,415.714 1678.58,414.993 1681.29,414.273 1684.01,413.555 1686.72,412.838 1689.44,412.122 1692.15,411.408 1694.87,410.696 1697.58,409.985 1700.3,409.275 1703.01,408.567 1705.73,407.86 1708.44,407.155 1711.16,406.45 1713.87,405.748 1716.59,405.046 1719.3,404.347 1722.02,403.648 1724.73,402.951 1727.45,402.255 1730.16,401.561 1732.88,400.868 1735.59,400.176 1738.31,399.486 1741.02,398.797 1743.74,398.109 1746.45,397.422 1749.17,396.737 1751.88,396.054 1754.6,395.371 1757.31,394.69 1760.03,394.01 1762.74,393.332 1765.46,392.655 1768.17,391.979 1770.89,391.304 1773.6,390.631 1776.32,389.959 1779.03,389.288 1781.75,388.618 1784.46,387.95 1787.18,387.283 1789.89,386.617 1792.61,385.953 1795.32,385.289 1798.04,384.627 1800.75,383.967 1803.47,383.307 1806.18,382.649 1808.9,381.991 1811.61,381.335 1814.33,380.681 1817.04,380.027 1819.76,379.375 1822.47,378.724 1825.19,378.074 1827.9,377.425 1830.62,376.778 1833.33,376.131 1836.05,375.486 1838.76,374.842 1841.48,374.199 1844.19,373.557 1846.91,372.917 1849.62,372.277 1852.34,371.639 1855.05,371.002 1857.77,370.366 1860.48,369.731 1863.2,369.097 1865.91,368.465 1868.63,367.833 1871.34,367.203 1874.06,366.574 1876.77,365.946 1879.49,365.319 1882.2,364.693 1884.92,364.068 1887.63,363.444 1890.35,362.822 1893.06,362.2 1895.78,361.58 1898.49,360.961 1901.21,360.342 1903.93,359.725 1906.64,359.109 1909.36,358.494 1912.07,357.88 1914.79,357.267 1917.5,356.655 1920.22,356.044 1922.93,355.435 1925.65,354.826 1928.36,354.218 1931.08,353.612 1933.79,353.006 1936.51,352.401 1939.22,351.798 1941.94,351.195 1944.65,350.594 1947.37,349.993 1950.08,349.394 1952.8,348.795 1955.51,348.198 1958.23,347.602 1960.94,347.006 1963.66,346.412 1966.37,345.818 1969.09,345.226 1971.8,344.634 1974.52,344.044 1977.23,343.454 1979.95,342.866 1982.66,342.278 1985.38,341.691 1988.09,341.106 1990.81,340.521 1993.52,339.937 1996.24,339.355 1998.95,338.773 2001.67,338.192 2004.38,337.612 2007.1,337.033 2009.81,336.455 2012.53,335.878 2015.24,335.302 2017.96,334.727 2020.67,334.152 2023.39,333.579 2026.1,333.007 2028.82,332.435 2031.53,331.864 2034.25,331.295 2036.96,330.726 2039.68,330.158 2042.39,329.591 2045.11,329.025 2047.82,328.46 2050.54,327.896 2053.25,327.332 2055.97,326.77 2058.68,326.208 2061.4,325.648 2064.11,325.088 2066.83,324.529 2069.54,323.971 2072.26,323.414 2074.97,322.857 2077.69,322.302 2080.4,321.747 2083.12,321.194 2085.83,320.641 2088.55,320.089 2091.26,319.538 2093.98,318.988 2096.69,318.438 2099.41,317.89 2102.12,317.342 2104.84,316.795 2107.55,316.249 2110.27,315.704 2112.98,315.159 2115.7,314.616 2118.41,314.073 2121.13,313.531 2123.84,312.99 2126.56,312.45 2129.27,311.911 2131.99,311.372 2134.7,310.834 2137.42,310.297 2140.13,309.761 2142.85,309.226 2145.56,308.691 2148.28,308.157 2150.99,307.625 2153.71,307.092 2156.42,306.561 2159.14,306.031 2161.85,305.501 2164.57,304.972 2167.28,304.444 2170,303.916 2172.71,303.39 2175.43,302.864 2178.14,302.339 2180.86,301.814 2183.57,301.291 2186.29,300.768 2189,300.246 2191.72,299.725 2194.43,299.204 2197.15,298.685 2199.86,298.166 2202.58,297.648 2205.29,297.13 2208.01,296.614 2210.72,296.098 2213.44,295.583 2216.15,295.068 2218.87,294.554 2221.58,294.041 2224.3,293.529 2227.01,293.018 2229.73,292.507 2232.44,291.997 2235.16,291.488 2237.87,290.979 2240.59,290.472 2243.3,289.964 2246.02,289.458 2248.73,288.952 2251.45,288.447 2254.16,287.943 2256.88,287.44 2259.59,286.937 2262.31,286.435 2265.02,285.934 2267.74,285.433 2270.45,284.933 2273.17,284.434 2275.88,283.935 2278.6,283.437 2281.31,282.94 2284.03,282.444 2286.74,281.948 2289.46,281.453 2292.17,280.958 2294.89,280.465 2297.6,279.972 2300.32,279.479 2303.03,278.988 2305.75,278.497 2308.46,278.007 2311.18,277.517 2313.89,277.028 2316.61,276.54 2319.32,276.052 2322.04,275.565 2324.75,275.079 2327.47,274.593 2330.18,274.108 2332.9,273.624 2335.61,273.14 2338.33,272.657 2341.04,272.175 2343.76,271.693 2346.47,271.212 2349.19,270.732 2351.9,270.252 2354.62,269.773 2357.33,269.295 2360.05,268.817 2362.76,268.34 2365.48,267.863 2368.19,267.388 2370.91,266.912 2373.62,266.438 2376.34,265.964 2379.05,265.491 2381.77,265.018 2384.48,264.546 2387.2,264.074 2389.91,263.603 2392.63,263.133 2395.34,262.664 2398.06,262.195 2400.77,261.726 2403.49,261.259 2406.2,260.792 2408.92,260.325 2411.64,259.859 2414.35,259.394 2417.07,258.929 2419.78,258.465 2422.5,258.002 2425.21,257.539 2427.93,257.077 2430.64,256.615 2433.36,256.154 2436.07,255.694 2438.79,255.234 2441.5,254.774 2444.22,254.316 2446.93,253.858 2449.65,253.4 2452.36,252.943 2455.08,252.487 2457.79,252.031 2460.51,251.576 2463.22,251.122 2465.94,250.668 2468.65,250.214 2471.37,249.761 2474.08,249.309 2476.8,248.857 2479.51,248.406 2482.23,247.956 2484.94,247.506 2487.66,247.056 2490.37,246.608 2493.09,246.159 2495.8,245.712 2498.52,245.264 2501.23,244.818 2503.95,244.372 2506.66,243.926 2509.38,243.482 2512.09,243.037 2514.81,242.593 2517.52,242.15 2520.24,241.708 2522.95,241.265 2525.67,240.824 2528.38,240.383 2531.1,239.942 2533.81,239.502 2536.53,239.063 2539.24,238.624 2541.96,238.186 2544.67,237.748 2547.39,237.311 2550.1,236.874 2552.82,236.438 2555.53,236.002 2558.25,235.567 2560.96,235.133 2563.68,234.699 2566.39,234.265 2569.11,233.832 2571.82,233.4 2574.54,232.968 2577.25,232.536 2579.97,232.105 2582.68,231.675 2585.4,231.245 2588.11,230.816 2590.83,230.387 2593.54,229.959 2596.26,229.531 2598.97,229.104 2601.69,228.677 2604.4,228.251 2607.12,227.825 2609.83,227.4 2612.55,226.975 2615.26,226.551 2617.98,226.127 2620.69,225.704 2623.41,225.281 2626.12,224.859 2628.84,224.438 2631.55,224.016 2634.27,223.596 2636.98,223.175 2639.7,222.756 2642.41,222.337 2645.13,221.918 2647.84,221.5 2650.56,221.082 2653.27,220.665 2655.99,220.248 2658.7,219.832 2661.42,219.416 2664.13,219.001 2666.85,218.586 2669.56,218.172 2672.28,217.758 2674.99,217.344 2677.71,216.932 2680.42,216.519 2683.14,216.107 2685.85,215.696 2688.57,215.285 2691.28,214.874 2694,214.464 2696.71,214.055 2699.43,213.646 2702.14,213.237 2704.86,212.829 2707.57,212.421 2710.29,212.014 2713,211.607 2715.72,211.201 2718.43,210.795 2721.15,210.39 2723.86,209.985 2726.58,209.581 2729.29,209.177 2732.01,208.773 2734.72,208.37 2737.44,207.968 2740.15,207.565 2742.87,207.164 2745.58,206.762 2748.3,206.362 2751.01,205.961 2753.73,205.561 2756.44,205.162 2759.16,204.763 2761.87,204.365 2764.59,203.966 2767.3,203.569 2770.02,203.172 2772.73,202.775 2775.45,202.379 2778.16,201.983 2780.88,201.587 2783.59,201.192 2786.31,200.798 2789.02,200.404 2791.74,200.01 2794.45,199.617 2797.17,199.224 2799.88,198.832 2802.6,198.44 2805.31,198.048 2808.03,197.657 2810.74,197.266 2813.46,196.876 2816.17,196.486 2818.89,196.097 2821.6,195.708 2824.32,195.319 2827.03,194.931 2829.75,194.544 2832.46,194.156 2835.18,193.77 2837.89,193.383 2840.61,192.997 2843.32,192.612 2846.04,192.226 2848.75,191.842 2851.47,191.457 2854.18,191.074 2856.9,190.69 2859.61,190.307 2862.33,189.924 2865.04,189.542 2867.76,189.16 2870.47,188.779 2873.19,188.398 2875.9,188.017 2878.62,187.637 2881.33,187.257 2884.05,186.878 2886.76,186.499 2889.48,186.12 2892.19,185.742 2894.91,185.364 2897.62,184.987 2900.34,184.61 2903.05,184.233 2905.77,183.857 2908.48,183.481 2911.2,183.106 2913.91,182.731 2916.63,182.356 2919.35,181.982 2922.06,181.608 2924.78,181.235 2927.49,180.862 2930.21,180.489 2932.92,180.117 2935.64,179.745 2938.35,179.373 2941.07,179.002 2943.78,178.632 2946.5,178.261 2949.21,177.891 2951.93,177.522 2954.64,177.153 2957.36,176.784 2960.07,176.415 2962.79,176.047 2965.5,175.68 2968.22,175.312 2970.93,174.946 2973.65,174.579 2976.36,174.213 2979.08,173.847 2981.79,173.482 2984.51,173.117 2987.22,172.752 2989.94,172.388 2992.65,172.024 2995.37,171.661 2998.08,171.297 3000.8,170.935 3003.51,170.572 3006.23,170.21 3008.94,169.849 3011.66,169.487 3014.37,169.126 3017.09,168.766 3019.8,168.406 3022.52,168.046 3025.23,167.686 3027.95,167.327 3030.66,166.968 3033.38,166.61 3036.09,166.252 3038.81,165.894 3041.52,165.537 3044.24,165.18 3046.95,164.823 3049.67,164.467 3052.38,164.111 3055.1,163.756 3057.81,163.401 3060.53,163.046 3063.24,162.691 3065.96,162.337 3068.67,161.984 3071.39,161.63 "/>
<polyline clip-path="url(#clip932)" style="stroke:#ff0000; stroke-linecap:round; stroke-linejoin:round; stroke-width:8; stroke-opacity:1; fill:none" points="359.075,1552.5 361.79,1534.56 364.505,1517.51 367.22,1501.26 369.935,1485.74 372.65,1470.88 375.365,1456.64 378.08,1442.96 380.795,1429.8 383.51,1417.13 386.225,1404.89 388.94,1393.08 391.655,1381.66 394.37,1370.6 397.085,1359.88 399.8,1349.48 402.515,1339.38 405.23,1329.57 407.945,1320.03 410.66,1310.74 413.375,1301.69 416.09,1292.88 418.805,1284.28 421.52,1275.88 424.235,1267.69 426.95,1259.68 429.665,1251.85 432.38,1244.2 435.096,1236.71 437.811,1229.37 440.526,1222.19 443.241,1215.15 445.956,1208.25 448.671,1201.49 451.386,1194.85 454.101,1188.34 456.816,1181.94 459.531,1175.66 462.246,1169.49 464.961,1163.43 467.676,1157.47 470.391,1151.61 473.106,1145.85 475.821,1140.18 478.536,1134.6 481.251,1129.11 483.966,1123.71 486.681,1118.38 489.396,1113.14 492.111,1107.97 494.826,1102.88 497.541,1097.86 500.256,1092.91 502.971,1088.03 505.686,1083.22 508.401,1078.47 511.116,1073.79 513.831,1069.17 516.546,1064.6 519.261,1060.1 521.976,1055.65 524.691,1051.26 527.406,1046.93 530.121,1042.64 532.836,1038.41 535.552,1034.23 538.267,1030.1 540.982,1026.01 543.697,1021.97 546.412,1017.98 549.127,1014.04 551.842,1010.13 554.557,1006.27 557.272,1002.45 559.987,998.678 562.702,994.941 565.417,991.243 568.132,987.584 570.847,983.963 573.562,980.379 576.277,976.83 578.992,973.318 581.707,969.839 584.422,966.395 587.137,962.985 589.852,959.607 592.567,956.261 595.282,952.947 597.997,949.664 600.712,946.411 603.427,943.188 606.142,939.994 608.857,936.828 611.572,933.691 614.287,930.582 617.002,927.5 619.717,924.445 622.432,921.416 625.147,918.413 627.862,915.435 630.577,912.482 633.292,909.554 636.007,906.65 638.723,903.769 641.438,900.912 644.153,898.078 646.868,895.267 649.583,892.478 652.298,889.711 655.013,886.965 657.728,884.24 660.443,881.537 663.158,878.854 665.873,876.191 668.588,873.549 671.303,870.925 674.018,868.322 676.733,865.737 679.448,863.171 682.163,860.624 684.878,858.095 687.593,855.584 690.308,853.091 693.023,850.615 695.738,848.157 698.453,845.716 701.168,843.291 703.883,840.883 706.598,838.491 709.313,836.115 712.028,833.756 714.743,831.412 717.458,829.083 720.173,826.77 722.888,824.471 725.603,822.188 728.318,819.919 731.033,817.665 733.748,815.425 736.463,813.199 739.179,810.988 741.894,808.79 744.609,806.605 747.324,804.434 750.039,802.276 752.754,800.132 755.469,798 758.184,795.881 760.899,793.775 763.614,791.681 766.329,789.6 769.044,787.531 771.759,785.474 774.474,783.428 777.189,781.395 779.904,779.373 782.619,777.363 785.334,775.364 788.049,773.376 790.764,771.4 793.479,769.434 796.194,767.48 798.909,765.536 801.624,763.602 804.339,761.68 807.054,759.767 809.769,757.865 812.484,755.973 815.199,754.092 817.914,752.22 820.629,750.358 823.344,748.506 826.059,746.663 828.774,744.83 831.489,743.007 834.204,741.193 836.919,739.388 839.635,737.592 842.35,735.805 845.065,734.028 847.78,732.259 850.495,730.499 853.21,728.748 855.925,727.005 858.64,725.271 861.355,723.546 864.07,721.829 866.785,720.12 869.5,718.419 872.215,716.727 874.93,715.042 877.645,713.366 880.36,711.697 883.075,710.036 885.79,708.383 888.505,706.738 891.22,705.101 893.935,703.471 896.65,701.848 899.365,700.233 902.08,698.625 904.795,697.024 907.51,695.431 910.225,693.845 912.94,692.266 915.655,690.694 918.37,689.128 921.085,687.57 923.8,686.019 926.515,684.474 929.23,682.936 931.945,681.405 934.66,679.88 937.375,678.362 940.091,676.85 942.806,675.345 945.521,673.846 948.236,672.354 950.951,670.868 953.666,669.388 956.381,667.914 959.096,666.446 961.811,664.984 964.526,663.529 967.241,662.079 969.956,660.635 972.671,659.197 975.386,657.765 978.101,656.339 980.816,654.918 983.531,653.503 986.246,652.094 988.961,650.69 991.676,649.292 994.391,647.9 997.106,646.513 999.821,645.131 1002.54,643.754 1005.25,642.383 1007.97,641.018 1010.68,639.657 1013.4,638.302 1016.11,636.952 1018.83,635.607 1021.54,634.267 1024.26,632.932 1026.97,631.602 1029.69,630.277 1032.4,628.957 1035.12,627.642 1037.83,626.332 1040.55,625.027 1043.26,623.726 1045.98,622.43 1048.69,621.139 1051.41,619.853 1054.12,618.571 1056.84,617.294 1059.55,616.022 1062.27,614.754 1064.98,613.49 1067.7,612.231 1070.41,610.977 1073.13,609.727 1075.84,608.481 1078.56,607.24 1081.27,606.003 1083.99,604.77 1086.7,603.542 1089.42,602.318 1092.13,601.098 1094.85,599.882 1097.56,598.671 1100.28,597.463 1102.99,596.26 1105.71,595.061 1108.42,593.866 1111.14,592.674 1113.85,591.487 1116.57,590.304 1119.28,589.125 1122,587.949 1124.71,586.778 1127.43,585.61 1130.14,584.447 1132.86,583.287 1135.57,582.13 1138.29,580.978 1141,579.829 1143.72,578.684 1146.43,577.543 1149.15,576.406 1151.86,575.272 1154.58,574.141 1157.29,573.014 1160.01,571.891 1162.72,570.772 1165.44,569.655 1168.15,568.543 1170.87,567.434 1173.58,566.328 1176.3,565.226 1179.01,564.127 1181.73,563.032 1184.44,561.94 1187.16,560.851 1189.87,559.766 1192.59,558.684 1195.3,557.605 1198.02,556.529 1200.73,555.457 1203.45,554.388 1206.16,553.322 1208.88,552.26 1211.59,551.201 1214.31,550.144 1217.02,549.091 1219.74,548.041 1222.45,546.994 1225.17,545.951 1227.88,544.91 1230.6,543.872 1233.31,542.838 1236.03,541.806 1238.74,540.777 1241.46,539.752 1244.17,538.729 1246.89,537.709 1249.6,536.692 1252.32,535.678 1255.03,534.667 1257.75,533.659 1260.46,532.654 1263.18,531.651 1265.89,530.652 1268.61,529.655 1271.32,528.661 1274.04,527.67 1276.75,526.681 1279.47,525.696 1282.18,524.713 1284.9,523.732 1287.61,522.755 1290.33,521.78 1293.04,520.808 1295.76,519.838 1298.47,518.871 1301.19,517.907 1303.9,516.945 1306.62,515.986 1309.33,515.03 1312.05,514.076 1314.76,513.124 1317.48,512.176 1320.19,511.229 1322.91,510.286 1325.62,509.344 1328.34,508.406 1331.05,507.469 1333.77,506.536 1336.48,505.604 1339.2,504.675 1341.91,503.749 1344.63,502.825 1347.34,501.903 1350.06,500.984 1352.77,500.067 1355.49,499.152 1358.2,498.24 1360.92,497.33 1363.63,496.423 1366.35,495.518 1369.06,494.615 1371.78,493.714 1374.49,492.816 1377.21,491.92 1379.92,491.026 1382.64,490.134 1385.35,489.245 1388.07,488.358 1390.78,487.473 1393.5,486.59 1396.22,485.71 1398.93,484.832 1401.65,483.955 1404.36,483.081 1407.08,482.21 1409.79,481.34 1412.51,480.472 1415.22,479.607 1417.94,478.744 1420.65,477.882 1423.37,477.023 1426.08,476.166 1428.8,475.311 1431.51,474.458 1434.23,473.607 1436.94,472.758 1439.66,471.911 1442.37,471.067 1445.09,470.224 1447.8,469.383 1450.52,468.544 1453.23,467.707 1455.95,466.872 1458.66,466.039 1461.38,465.208 1464.09,464.379 1466.81,463.552 1469.52,462.727 1472.24,461.904 1474.95,461.082 1477.67,460.263 1480.38,459.445 1483.1,458.63 1485.81,457.816 1488.53,457.004 1491.24,456.194 1493.96,455.386 1496.67,454.579 1499.39,453.775 1502.1,452.972 1504.82,452.171 1507.53,451.372 1510.25,450.574 1512.96,449.779 1515.68,448.985 1518.39,448.193 1521.11,447.403 1523.82,446.614 1526.54,445.827 1529.25,445.042 1531.97,444.259 1534.68,443.477 1537.4,442.698 1540.11,441.919 1542.83,441.143 1545.54,440.368 1548.26,439.595 1550.97,438.824 1553.69,438.054 1556.4,437.286 1559.12,436.52 1561.83,435.755 1564.55,434.992 1567.26,434.23 1569.98,433.471 1572.69,432.712 1575.41,431.956 1578.12,431.201 1580.84,430.448 1583.55,429.696 1586.27,428.946 1588.98,428.197 1591.7,427.45 1594.41,426.705 1597.13,425.961 1599.84,425.218 1602.56,424.478 1605.27,423.738 1607.99,423.001 1610.7,422.265 1613.42,421.53 1616.13,420.797 1618.85,420.065 1621.56,419.335 1624.28,418.606 1626.99,417.879 1629.71,417.154 1632.42,416.429 1635.14,415.707 1637.85,414.986 1640.57,414.266 1643.28,413.548 1646,412.831 1648.71,412.115 1651.43,411.401 1654.14,410.689 1656.86,409.978 1659.57,409.268 1662.29,408.56 1665,407.853 1667.72,407.147 1670.43,406.443 1673.15,405.741 1675.86,405.039 1678.58,404.34 1681.29,403.641 1684.01,402.944 1686.72,402.248 1689.44,401.554 1692.15,400.861 1694.87,400.169 1697.58,399.479 1700.3,398.79 1703.01,398.102 1705.73,397.416 1708.44,396.731 1711.16,396.047 1713.87,395.364 1716.59,394.683 1719.3,394.004 1722.02,393.325 1724.73,392.648 1727.45,391.972 1730.16,391.297 1732.88,390.624 1735.59,389.952 1738.31,389.281 1741.02,388.612 1743.74,387.943 1746.45,387.276 1749.17,386.611 1751.88,385.946 1754.6,385.283 1757.31,384.621 1760.03,383.96 1762.74,383.3 1765.46,382.642 1768.17,381.985 1770.89,381.329 1773.6,380.674 1776.32,380.021 1779.03,379.368 1781.75,378.717 1784.46,378.067 1787.18,377.419 1789.89,376.771 1792.61,376.125 1795.32,375.479 1798.04,374.835 1800.75,374.193 1803.47,373.551 1806.18,372.91 1808.9,372.271 1811.61,371.633 1814.33,370.996 1817.04,370.36 1819.76,369.725 1822.47,369.091 1825.19,368.459 1827.9,367.827 1830.62,367.197 1833.33,366.568 1836.05,365.94 1838.76,365.313 1841.48,364.687 1844.19,364.062 1846.91,363.438 1849.62,362.816 1852.34,362.194 1855.05,361.574 1857.77,360.954 1860.48,360.336 1863.2,359.719 1865.91,359.103 1868.63,358.488 1871.34,357.874 1874.06,357.261 1876.77,356.649 1879.49,356.038 1882.2,355.429 1884.92,354.82 1887.63,354.212 1890.35,353.606 1893.06,353 1895.78,352.395 1898.49,351.792 1901.21,351.189 1903.93,350.588 1906.64,349.987 1909.36,349.388 1912.07,348.789 1914.79,348.192 1917.5,347.596 1920.22,347 1922.93,346.406 1925.65,345.812 1928.36,345.22 1931.08,344.628 1933.79,344.038 1936.51,343.448 1939.22,342.86 1941.94,342.272 1944.65,341.686 1947.37,341.1 1950.08,340.515 1952.8,339.932 1955.51,339.349 1958.23,338.767 1960.94,338.186 1963.66,337.606 1966.37,337.027 1969.09,336.449 1971.8,335.872 1974.52,335.296 1977.23,334.721 1979.95,334.147 1982.66,333.573 1985.38,333.001 1988.09,332.429 1990.81,331.859 1993.52,331.289 1996.24,330.72 1998.95,330.152 2001.67,329.586 2004.38,329.02 2007.1,328.454 2009.81,327.89 2012.53,327.327 2015.24,326.764 2017.96,326.203 2020.67,325.642 2023.39,325.082 2026.1,324.523 2028.82,323.965 2031.53,323.408 2034.25,322.852 2036.96,322.296 2039.68,321.742 2042.39,321.188 2045.11,320.635 2047.82,320.083 2050.54,319.532 2053.25,318.982 2055.97,318.433 2058.68,317.884 2061.4,317.336 2064.11,316.79 2066.83,316.244 2069.54,315.698 2072.26,315.154 2074.97,314.61 2077.69,314.068 2080.4,313.526 2083.12,312.985 2085.83,312.445 2088.55,311.905 2091.26,311.367 2093.98,310.829 2096.69,310.292 2099.41,309.756 2102.12,309.22 2104.84,308.686 2107.55,308.152 2110.27,307.619 2112.98,307.087 2115.7,306.556 2118.41,306.025 2121.13,305.495 2123.84,304.967 2126.56,304.438 2129.27,303.911 2131.99,303.384 2134.7,302.858 2137.42,302.333 2140.13,301.809 2142.85,301.286 2145.56,300.763 2148.28,300.241 2150.99,299.72 2153.71,299.199 2156.42,298.68 2159.14,298.161 2161.85,297.643 2164.57,297.125 2167.28,296.608 2170,296.093 2172.71,295.577 2175.43,295.063 2178.14,294.549 2180.86,294.036 2183.57,293.524 2186.29,293.013 2189,292.502 2191.72,291.992 2194.43,291.483 2197.15,290.974 2199.86,290.466 2202.58,289.959 2205.29,289.453 2208.01,288.947 2210.72,288.442 2213.44,287.938 2216.15,287.435 2218.87,286.932 2221.58,286.43 2224.3,285.929 2227.01,285.428 2229.73,284.928 2232.44,284.429 2235.16,283.93 2237.87,283.432 2240.59,282.935 2243.3,282.439 2246.02,281.943 2248.73,281.448 2251.45,280.954 2254.16,280.46 2256.88,279.967 2259.59,279.475 2262.31,278.983 2265.02,278.492 2267.74,278.002 2270.45,277.512 2273.17,277.023 2275.88,276.535 2278.6,276.047 2281.31,275.56 2284.03,275.074 2286.74,274.588 2289.46,274.103 2292.17,273.619 2294.89,273.136 2297.6,272.653 2300.32,272.17 2303.03,271.689 2305.75,271.208 2308.46,270.727 2311.18,270.248 2313.89,269.768 2316.61,269.29 2319.32,268.812 2322.04,268.335 2324.75,267.859 2327.47,267.383 2330.18,266.908 2332.9,266.433 2335.61,265.959 2338.33,265.486 2341.04,265.013 2343.76,264.541 2346.47,264.07 2349.19,263.599 2351.9,263.129 2354.62,262.659 2357.33,262.19 2360.05,261.722 2362.76,261.254 2365.48,260.787 2368.19,260.32 2370.91,259.855 2373.62,259.389 2376.34,258.925 2379.05,258.461 2381.77,257.997 2384.48,257.534 2387.2,257.072 2389.91,256.61 2392.63,256.149 2395.34,255.689 2398.06,255.229 2400.77,254.77 2403.49,254.311 2406.2,253.853 2408.92,253.396 2411.64,252.939 2414.35,252.482 2417.07,252.027 2419.78,251.572 2422.5,251.117 2425.21,250.663 2427.93,250.21 2430.64,249.757 2433.36,249.305 2436.07,248.853 2438.79,248.402 2441.5,247.951 2444.22,247.501 2446.93,247.052 2449.65,246.603 2452.36,246.155 2455.08,245.707 2457.79,245.26 2460.51,244.813 2463.22,244.367 2465.94,243.922 2468.65,243.477 2471.37,243.033 2474.08,242.589 2476.8,242.146 2479.51,241.703 2482.23,241.261 2484.94,240.819 2487.66,240.378 2490.37,239.938 2493.09,239.498 2495.8,239.059 2498.52,238.62 2501.23,238.181 2503.95,237.744 2506.66,237.306 2509.38,236.87 2512.09,236.434 2514.81,235.998 2517.52,235.563 2520.24,235.128 2522.95,234.694 2525.67,234.261 2528.38,233.828 2531.1,233.395 2533.81,232.963 2536.53,232.532 2539.24,232.101 2541.96,231.671 2544.67,231.241 2547.39,230.812 2550.1,230.383 2552.82,229.955 2555.53,229.527 2558.25,229.1 2560.96,228.673 2563.68,228.247 2566.39,227.821 2569.11,227.396 2571.82,226.971 2574.54,226.547 2577.25,226.123 2579.97,225.7 2582.68,225.277 2585.4,224.855 2588.11,224.433 2590.83,224.012 2593.54,223.591 2596.26,223.171 2598.97,222.752 2601.69,222.332 2604.4,221.914 2607.12,221.495 2609.83,221.078 2612.55,220.661 2615.26,220.244 2617.98,219.828 2620.69,219.412 2623.41,218.997 2626.12,218.582 2628.84,218.167 2631.55,217.754 2634.27,217.34 2636.98,216.927 2639.7,216.515 2642.41,216.103 2645.13,215.692 2647.84,215.281 2650.56,214.87 2653.27,214.46 2655.99,214.051 2658.7,213.642 2661.42,213.233 2664.13,212.825 2666.85,212.417 2669.56,212.01 2672.28,211.603 2674.99,211.197 2677.71,210.791 2680.42,210.386 2683.14,209.981 2685.85,209.577 2688.57,209.173 2691.28,208.769 2694,208.366 2696.71,207.963 2699.43,207.561 2702.14,207.16 2704.86,206.758 2707.57,206.358 2710.29,205.957 2713,205.557 2715.72,205.158 2718.43,204.759 2721.15,204.361 2723.86,203.962 2726.58,203.565 2729.29,203.168 2732.01,202.771 2734.72,202.375 2737.44,201.979 2740.15,201.583 2742.87,201.188 2745.58,200.794 2748.3,200.4 2751.01,200.006 2753.73,199.613 2756.44,199.22 2759.16,198.828 2761.87,198.436 2764.59,198.044 2767.3,197.653 2770.02,197.262 2772.73,196.872 2775.45,196.482 2778.16,196.093 2780.88,195.704 2783.59,195.316 2786.31,194.927 2789.02,194.54 2791.74,194.153 2794.45,193.766 2797.17,193.379 2799.88,192.993 2802.6,192.608 2805.31,192.223 2808.03,191.838 2810.74,191.454 2813.46,191.07 2816.17,190.686 2818.89,190.303 2821.6,189.92 2824.32,189.538 2827.03,189.156 2829.75,188.775 2832.46,188.394 2835.18,188.013 2837.89,187.633 2840.61,187.253 2843.32,186.874 2846.04,186.495 2848.75,186.116 2851.47,185.738 2854.18,185.36 2856.9,184.983 2859.61,184.606 2862.33,184.229 2865.04,183.853 2867.76,183.477 2870.47,183.102 2873.19,182.727 2875.9,182.352 2878.62,181.978 2881.33,181.604 2884.05,181.231 2886.76,180.858 2889.48,180.485 2892.19,180.113 2894.91,179.741 2897.62,179.37 2900.34,178.999 2903.05,178.628 2905.77,178.258 2908.48,177.888 2911.2,177.518 2913.91,177.149 2916.63,176.78 2919.35,176.412 2922.06,176.044 2924.78,175.676 2927.49,175.309 2930.21,174.942 2932.92,174.575 2935.64,174.209 2938.35,173.844 2941.07,173.478 2943.78,173.113 2946.5,172.749 2949.21,172.384 2951.93,172.02 2954.64,171.657 2957.36,171.294 2960.07,170.931 2962.79,170.569 2965.5,170.207 2968.22,169.845 2970.93,169.484 2973.65,169.123 2976.36,168.762 2979.08,168.402 2981.79,168.042 2984.51,167.683 2987.22,167.324 2989.94,166.965 2992.65,166.606 2995.37,166.248 2998.08,165.891 3000.8,165.533 3003.51,165.177 3006.23,164.82 3008.94,164.464 3011.66,164.108 3014.37,163.752 3017.09,163.397 3019.8,163.042 3022.52,162.688 3025.23,162.334 3027.95,161.98 3030.66,161.627 3033.38,161.274 3036.09,160.921 3038.81,160.569 3041.52,160.217 3044.24,159.865 3046.95,159.514 3049.67,159.163 3052.38,158.812 3055.1,158.462 3057.81,158.112 3060.53,157.762 3063.24,157.413 3065.96,157.064 3068.67,156.716 3071.39,156.367 "/>
<polyline clip-path="url(#clip932)" style="stroke:#0000ff; stroke-linecap:round; stroke-linejoin:round; stroke-width:8; stroke-opacity:1; fill:none" points="359.075,789.392 361.79,787.324 364.505,785.268 367.22,783.224 369.935,781.192 372.65,779.171 375.365,777.162 378.08,775.164 380.795,773.178 383.51,771.202 386.225,769.238 388.94,767.284 391.655,765.341 394.37,763.409 397.085,761.488 399.8,759.576 402.515,757.675 405.23,755.784 407.945,753.904 410.66,752.033 413.375,750.172 416.09,748.321 418.805,746.479 421.52,744.647 424.235,742.825 426.95,741.011 429.665,739.207 432.38,737.413 435.096,735.627 437.811,733.85 440.526,732.082 443.241,730.323 445.956,728.573 448.671,726.831 451.386,725.098 454.101,723.373 456.816,721.657 459.531,719.949 462.246,718.249 464.961,716.557 467.676,714.874 470.391,713.198 473.106,711.53 475.821,709.871 478.536,708.218 481.251,706.574 483.966,704.937 486.681,703.308 489.396,701.686 492.111,700.071 494.826,698.464 497.541,696.864 500.256,695.272 502.971,693.686 505.686,692.108 508.401,690.536 511.116,688.972 513.831,687.414 516.546,685.864 519.261,684.32 521.976,682.782 524.691,681.252 527.406,679.728 530.121,678.21 532.836,676.699 535.552,675.195 538.267,673.697 540.982,672.205 543.697,670.719 546.412,669.24 549.127,667.767 551.842,666.299 554.557,664.838 557.272,663.383 559.987,661.934 562.702,660.491 565.417,659.054 568.132,657.622 570.847,656.196 573.562,654.776 576.277,653.362 578.992,651.953 581.707,650.55 584.422,649.153 587.137,647.76 589.852,646.374 592.567,644.993 595.282,643.617 597.997,642.246 600.712,640.881 603.427,639.521 606.142,638.166 608.857,636.817 611.572,635.472 614.287,634.133 617.002,632.798 619.717,631.469 622.432,630.145 625.147,628.825 627.862,627.511 630.577,626.201 633.292,624.896 636.007,623.596 638.723,622.301 641.438,621.01 644.153,619.724 646.868,618.443 649.583,617.166 652.298,615.894 655.013,614.627 657.728,613.364 660.443,612.105 663.158,610.851 665.873,609.602 668.588,608.357 671.303,607.116 674.018,605.879 676.733,604.647 679.448,603.419 682.163,602.196 684.878,600.976 687.593,599.761 690.308,598.55 693.023,597.343 695.738,596.14 698.453,594.941 701.168,593.746 703.883,592.555 706.598,591.369 709.313,590.186 712.028,589.007 714.743,587.832 717.458,586.661 720.173,585.494 722.888,584.33 725.603,583.171 728.318,582.015 731.033,580.863 733.748,579.715 736.463,578.57 739.179,577.429 741.894,576.292 744.609,575.158 747.324,574.028 750.039,572.902 752.754,571.779 755.469,570.66 758.184,569.544 760.899,568.432 763.614,567.323 766.329,566.218 769.044,565.116 771.759,564.017 774.474,562.922 777.189,561.83 779.904,560.742 782.619,559.657 785.334,558.575 788.049,557.497 790.764,556.422 793.479,555.35 796.194,554.281 798.909,553.216 801.624,552.154 804.339,551.095 807.054,550.039 809.769,548.986 812.484,547.936 815.199,546.89 817.914,545.846 820.629,544.806 823.344,543.768 826.059,542.734 828.774,541.703 831.489,540.674 834.204,539.649 836.919,538.627 839.635,537.607 842.35,536.591 845.065,535.577 847.78,534.566 850.495,533.558 853.21,532.553 855.925,531.551 858.64,530.552 861.355,529.555 864.07,528.562 866.785,527.571 869.5,526.582 872.215,525.597 874.93,524.614 877.645,523.634 880.36,522.657 883.075,521.682 885.79,520.71 888.505,519.741 891.22,518.774 893.935,517.81 896.65,516.849 899.365,515.89 902.08,514.934 904.795,513.98 907.51,513.029 910.225,512.081 912.94,511.135 915.655,510.191 918.37,509.25 921.085,508.312 923.8,507.376 926.515,506.442 929.23,505.511 931.945,504.582 934.66,503.656 937.375,502.732 940.091,501.811 942.806,500.892 945.521,499.975 948.236,499.061 950.951,498.149 953.666,497.239 956.381,496.332 959.096,495.427 961.811,494.524 964.526,493.624 967.241,492.726 969.956,491.83 972.671,490.936 975.386,490.045 978.101,489.156 980.816,488.269 983.531,487.384 986.246,486.502 988.961,485.622 991.676,484.744 994.391,483.868 997.106,482.994 999.821,482.122 1002.54,481.253 1005.25,480.386 1007.97,479.52 1010.68,478.657 1013.4,477.796 1016.11,476.937 1018.83,476.08 1021.54,475.226 1024.26,474.373 1026.97,473.522 1029.69,472.673 1032.4,471.827 1035.12,470.982 1037.83,470.139 1040.55,469.299 1043.26,468.46 1045.98,467.624 1048.69,466.789 1051.41,465.956 1054.12,465.125 1056.84,464.296 1059.55,463.47 1062.27,462.645 1064.98,461.821 1067.7,461 1070.41,460.181 1073.13,459.364 1075.84,458.548 1078.56,457.734 1081.27,456.923 1083.99,456.113 1086.7,455.305 1089.42,454.498 1092.13,453.694 1094.85,452.891 1097.56,452.091 1100.28,451.292 1102.99,450.494 1105.71,449.699 1108.42,448.905 1111.14,448.114 1113.85,447.323 1116.57,446.535 1119.28,445.749 1122,444.964 1124.71,444.181 1127.43,443.399 1130.14,442.62 1132.86,441.842 1135.57,441.065 1138.29,440.291 1141,439.518 1143.72,438.747 1146.43,437.977 1149.15,437.209 1151.86,436.443 1154.58,435.678 1157.29,434.916 1160.01,434.154 1162.72,433.395 1165.44,432.637 1168.15,431.88 1170.87,431.125 1173.58,430.372 1176.3,429.621 1179.01,428.871 1181.73,428.122 1184.44,427.375 1187.16,426.63 1189.87,425.886 1192.59,425.144 1195.3,424.404 1198.02,423.664 1200.73,422.927 1203.45,422.191 1206.16,421.456 1208.88,420.723 1211.59,419.992 1214.31,419.262 1217.02,418.533 1219.74,417.807 1222.45,417.081 1225.17,416.357 1227.88,415.634 1230.6,414.913 1233.31,414.194 1236.03,413.476 1238.74,412.759 1241.46,412.044 1244.17,411.33 1246.89,410.618 1249.6,409.907 1252.32,409.197 1255.03,408.489 1257.75,407.782 1260.46,407.077 1263.18,406.373 1265.89,405.67 1268.61,404.969 1271.32,404.27 1274.04,403.571 1276.75,402.874 1279.47,402.179 1282.18,401.484 1284.9,400.791 1287.61,400.1 1290.33,399.41 1293.04,398.721 1295.76,398.033 1298.47,397.347 1301.19,396.662 1303.9,395.978 1306.62,395.296 1309.33,394.615 1312.05,393.936 1314.76,393.257 1317.48,392.58 1320.19,391.904 1322.91,391.23 1325.62,390.557 1328.34,389.885 1331.05,389.214 1333.77,388.545 1336.48,387.876 1339.2,387.21 1341.91,386.544 1344.63,385.88 1347.34,385.216 1350.06,384.554 1352.77,383.894 1355.49,383.234 1358.2,382.576 1360.92,381.919 1363.63,381.263 1366.35,380.609 1369.06,379.955 1371.78,379.303 1374.49,378.652 1377.21,378.002 1379.92,377.354 1382.64,376.706 1385.35,376.06 1388.07,375.415 1390.78,374.771 1393.5,374.128 1396.22,373.487 1398.93,372.846 1401.65,372.207 1404.36,371.569 1407.08,370.932 1409.79,370.296 1412.51,369.661 1415.22,369.028 1417.94,368.395 1420.65,367.764 1423.37,367.134 1426.08,366.505 1428.8,365.877 1431.51,365.25 1434.23,364.624 1436.94,363.999 1439.66,363.376 1442.37,362.753 1445.09,362.132 1447.8,361.512 1450.52,360.892 1453.23,360.274 1455.95,359.657 1458.66,359.041 1461.38,358.426 1464.09,357.812 1466.81,357.2 1469.52,356.588 1472.24,355.977 1474.95,355.368 1477.67,354.759 1480.38,354.151 1483.1,353.545 1485.81,352.939 1488.53,352.335 1491.24,351.731 1493.96,351.129 1496.67,350.528 1499.39,349.927 1502.1,349.328 1504.82,348.73 1507.53,348.132 1510.25,347.536 1512.96,346.941 1515.68,346.346 1518.39,345.753 1521.11,345.16 1523.82,344.569 1526.54,343.979 1529.25,343.389 1531.97,342.801 1534.68,342.213 1537.4,341.627 1540.11,341.041 1542.83,340.457 1545.54,339.873 1548.26,339.29 1550.97,338.709 1553.69,338.128 1556.4,337.548 1559.12,336.969 1561.83,336.391 1564.55,335.814 1567.26,335.238 1569.98,334.663 1572.69,334.089 1575.41,333.516 1578.12,332.944 1580.84,332.372 1583.55,331.802 1586.27,331.232 1588.98,330.663 1591.7,330.096 1594.41,329.529 1597.13,328.963 1599.84,328.398 1602.56,327.834 1605.27,327.27 1607.99,326.708 1610.7,326.147 1613.42,325.586 1616.13,325.026 1618.85,324.467 1621.56,323.91 1624.28,323.352 1626.99,322.796 1629.71,322.241 1632.42,321.686 1635.14,321.133 1637.85,320.58 1640.57,320.028 1643.28,319.477 1646,318.927 1648.71,318.378 1651.43,317.829 1654.14,317.282 1656.86,316.735 1659.57,316.189 1662.29,315.644 1665,315.099 1667.72,314.556 1670.43,314.013 1673.15,313.472 1675.86,312.931 1678.58,312.391 1681.29,311.851 1684.01,311.313 1686.72,310.775 1689.44,310.238 1692.15,309.702 1694.87,309.167 1697.58,308.632 1700.3,308.099 1703.01,307.566 1705.73,307.034 1708.44,306.503 1711.16,305.972 1713.87,305.442 1716.59,304.914 1719.3,304.385 1722.02,303.858 1724.73,303.332 1727.45,302.806 1730.16,302.281 1732.88,301.757 1735.59,301.233 1738.31,300.711 1741.02,300.189 1743.74,299.668 1746.45,299.147 1749.17,298.628 1751.88,298.109 1754.6,297.591 1757.31,297.073 1760.03,296.557 1762.74,296.041 1765.46,295.526 1768.17,295.011 1770.89,294.498 1773.6,293.985 1776.32,293.473 1779.03,292.962 1781.75,292.451 1784.46,291.941 1787.18,291.432 1789.89,290.923 1792.61,290.416 1795.32,289.909 1798.04,289.402 1800.75,288.897 1803.47,288.392 1806.18,287.888 1808.9,287.384 1811.61,286.882 1814.33,286.38 1817.04,285.878 1819.76,285.378 1822.47,284.878 1825.19,284.379 1827.9,283.88 1830.62,283.383 1833.33,282.885 1836.05,282.389 1838.76,281.893 1841.48,281.398 1844.19,280.904 1846.91,280.41 1849.62,279.917 1852.34,279.425 1855.05,278.934 1857.77,278.443 1860.48,277.953 1863.2,277.463 1865.91,276.974 1868.63,276.486 1871.34,275.998 1874.06,275.511 1876.77,275.025 1879.49,274.54 1882.2,274.055 1884.92,273.571 1887.63,273.087 1890.35,272.604 1893.06,272.122 1895.78,271.64 1898.49,271.159 1901.21,270.679 1903.93,270.2 1906.64,269.721 1909.36,269.242 1912.07,268.764 1914.79,268.287 1917.5,267.811 1920.22,267.335 1922.93,266.86 1925.65,266.386 1928.36,265.912 1931.08,265.438 1933.79,264.966 1936.51,264.494 1939.22,264.022 1941.94,263.552 1944.65,263.082 1947.37,262.612 1950.08,262.143 1952.8,261.675 1955.51,261.207 1958.23,260.74 1960.94,260.274 1963.66,259.808 1966.37,259.343 1969.09,258.878 1971.8,258.414 1974.52,257.951 1977.23,257.488 1979.95,257.026 1982.66,256.564 1985.38,256.103 1988.09,255.643 1990.81,255.183 1993.52,254.724 1996.24,254.265 1998.95,253.807 2001.67,253.35 2004.38,252.893 2007.1,252.437 2009.81,251.981 2012.53,251.526 2015.24,251.071 2017.96,250.618 2020.67,250.164 2023.39,249.711 2026.1,249.259 2028.82,248.808 2031.53,248.357 2034.25,247.906 2036.96,247.456 2039.68,247.007 2042.39,246.558 2045.11,246.11 2047.82,245.662 2050.54,245.215 2053.25,244.769 2055.97,244.323 2058.68,243.877 2061.4,243.433 2064.11,242.988 2066.83,242.545 2069.54,242.101 2072.26,241.659 2074.97,241.217 2077.69,240.775 2080.4,240.334 2083.12,239.894 2085.83,239.454 2088.55,239.015 2091.26,238.576 2093.98,238.138 2096.69,237.7 2099.41,237.263 2102.12,236.826 2104.84,236.39 2107.55,235.954 2110.27,235.519 2112.98,235.085 2115.7,234.651 2118.41,234.217 2121.13,233.784 2123.84,233.352 2126.56,232.92 2129.27,232.489 2131.99,232.058 2134.7,231.628 2137.42,231.198 2140.13,230.769 2142.85,230.34 2145.56,229.912 2148.28,229.484 2150.99,229.057 2153.71,228.63 2156.42,228.204 2159.14,227.778 2161.85,227.353 2164.57,226.928 2167.28,226.504 2170,226.081 2172.71,225.658 2175.43,225.235 2178.14,224.813 2180.86,224.391 2183.57,223.97 2186.29,223.549 2189,223.129 2191.72,222.71 2194.43,222.29 2197.15,221.872 2199.86,221.454 2202.58,221.036 2205.29,220.619 2208.01,220.202 2210.72,219.786 2213.44,219.37 2216.15,218.955 2218.87,218.54 2221.58,218.126 2224.3,217.712 2227.01,217.299 2229.73,216.886 2232.44,216.474 2235.16,216.062 2237.87,215.65 2240.59,215.24 2243.3,214.829 2246.02,214.419 2248.73,214.01 2251.45,213.601 2254.16,213.192 2256.88,212.784 2259.59,212.376 2262.31,211.969 2265.02,211.563 2267.74,211.156 2270.45,210.751 2273.17,210.345 2275.88,209.94 2278.6,209.536 2281.31,209.132 2284.03,208.729 2286.74,208.326 2289.46,207.923 2292.17,207.521 2294.89,207.119 2297.6,206.718 2300.32,206.318 2303.03,205.917 2305.75,205.517 2308.46,205.118 2311.18,204.719 2313.89,204.321 2316.61,203.923 2319.32,203.525 2322.04,203.128 2324.75,202.731 2327.47,202.335 2330.18,201.939 2332.9,201.544 2335.61,201.149 2338.33,200.754 2341.04,200.36 2343.76,199.967 2346.47,199.573 2349.19,199.181 2351.9,198.788 2354.62,198.396 2357.33,198.005 2360.05,197.614 2362.76,197.223 2365.48,196.833 2368.19,196.443 2370.91,196.054 2373.62,195.665 2376.34,195.277 2379.05,194.889 2381.77,194.501 2384.48,194.114 2387.2,193.727 2389.91,193.341 2392.63,192.955 2395.34,192.569 2398.06,192.184 2400.77,191.799 2403.49,191.415 2406.2,191.031 2408.92,190.648 2411.64,190.265 2414.35,189.882 2417.07,189.5 2419.78,189.118 2422.5,188.737 2425.21,188.356 2427.93,187.975 2430.64,187.595 2433.36,187.215 2436.07,186.836 2438.79,186.457 2441.5,186.078 2444.22,185.7 2446.93,185.322 2449.65,184.945 2452.36,184.568 2455.08,184.192 2457.79,183.815 2460.51,183.44 2463.22,183.064 2465.94,182.689 2468.65,182.315 2471.37,181.941 2474.08,181.567 2476.8,181.194 2479.51,180.821 2482.23,180.448 2484.94,180.076 2487.66,179.704 2490.37,179.332 2493.09,178.961 2495.8,178.591 2498.52,178.22 2501.23,177.851 2503.95,177.481 2506.66,177.112 2509.38,176.743 2512.09,176.375 2514.81,176.007 2517.52,175.639 2520.24,175.272 2522.95,174.905 2525.67,174.539 2528.38,174.173 2531.1,173.807 2533.81,173.442 2536.53,173.077 2539.24,172.712 2541.96,172.348 2544.67,171.984 2547.39,171.621 2550.1,171.257 2552.82,170.895 2555.53,170.532 2558.25,170.17 2560.96,169.809 2563.68,169.447 2566.39,169.087 2569.11,168.726 2571.82,168.366 2574.54,168.006 2577.25,167.647 2579.97,167.288 2582.68,166.929 2585.4,166.571 2588.11,166.213 2590.83,165.855 2593.54,165.498 2596.26,165.141 2598.97,164.784 2601.69,164.428 2604.4,164.072 2607.12,163.717 2609.83,163.362 2612.55,163.007 2615.26,162.652 2617.98,162.298 2620.69,161.945 2623.41,161.591 2626.12,161.238 2628.84,160.886 2631.55,160.533 2634.27,160.181 2636.98,159.83 2639.7,159.478 2642.41,159.128 2645.13,158.777 2647.84,158.427 2650.56,158.077 2653.27,157.727 2655.99,157.378 2658.7,157.029 2661.42,156.681 2664.13,156.333 2666.85,155.985 2669.56,155.637 2672.28,155.29 2674.99,154.943 2677.71,154.597 2680.42,154.251 2683.14,153.905 2685.85,153.559 2688.57,153.214 2691.28,152.869 2694,152.525 2696.71,152.181 2699.43,151.837 2702.14,151.493 2704.86,151.15 2707.57,150.808 2710.29,150.465 2713,150.123 2715.72,149.781 2718.43,149.44 2721.15,149.098 2723.86,148.758 2726.58,148.417 2729.29,148.077 2732.01,147.737 2734.72,147.398 2737.44,147.058 2740.15,146.719 2742.87,146.381 2745.58,146.043 2748.3,145.705 2751.01,145.367 2753.73,145.03 2756.44,144.693 2759.16,144.356 2761.87,144.02 2764.59,143.684 2767.3,143.348 2770.02,143.013 2772.73,142.678 2775.45,142.343 2778.16,142.009 2780.88,141.674 2783.59,141.341 2786.31,141.007 2789.02,140.674 2791.74,140.341 2794.45,140.008 2797.17,139.676 2799.88,139.344 2802.6,139.013 2805.31,138.681 2808.03,138.35 2810.74,138.02 2813.46,137.689 2816.17,137.359 2818.89,137.029 2821.6,136.7 2824.32,136.371 2827.03,136.042 2829.75,135.713 2832.46,135.385 2835.18,135.057 2837.89,134.729 2840.61,134.402 2843.32,134.075 2846.04,133.748 2848.75,133.422 2851.47,133.096 2854.18,132.77 2856.9,132.444 2859.61,132.119 2862.33,131.794 2865.04,131.469 2867.76,131.145 2870.47,130.821 2873.19,130.497 2875.9,130.174 2878.62,129.85 2881.33,129.527 2884.05,129.205 2886.76,128.883 2889.48,128.561 2892.19,128.239 2894.91,127.917 2897.62,127.596 2900.34,127.275 2903.05,126.955 2905.77,126.634 2908.48,126.314 2911.2,125.995 2913.91,125.675 2916.63,125.356 2919.35,125.037 2922.06,124.719 2924.78,124.4 2927.49,124.082 2930.21,123.765 2932.92,123.447 2935.64,123.13 2938.35,122.813 2941.07,122.497 2943.78,122.18 2946.5,121.864 2949.21,121.549 2951.93,121.233 2954.64,120.918 2957.36,120.603 2960.07,120.289 2962.79,119.974 2965.5,119.66 2968.22,119.346 2970.93,119.033 2973.65,118.72 2976.36,118.407 2979.08,118.094 2981.79,117.781 2984.51,117.469 2987.22,117.157 2989.94,116.846 2992.65,116.535 2995.37,116.224 2998.08,115.913 3000.8,115.602 3003.51,115.292 3006.23,114.982 3008.94,114.672 3011.66,114.363 3014.37,114.054 3017.09,113.745 3019.8,113.436 3022.52,113.128 3025.23,112.82 3027.95,112.512 3030.66,112.204 3033.38,111.897 3036.09,111.59 3038.81,111.283 3041.52,110.977 3044.24,110.671 3046.95,110.365 3049.67,110.059 3052.38,109.753 3055.1,109.448 3057.81,109.143 3060.53,108.839 3063.24,108.534 3065.96,108.23 3068.67,107.926 3071.39,107.623 "/>
<path clip-path="url(#clip930)" d="M373.54 429.397 L917.674 429.397 L917.674 118.357 L373.54 118.357  Z" fill="#ffffff" fill-rule="evenodd" fill-opacity="1"/>
<polyline clip-path="url(#clip930)" style="stroke:#000000; stroke-linecap:round; stroke-linejoin:round; stroke-width:4; stroke-opacity:1; fill:none" points="373.54,429.397 917.674,429.397 917.674,118.357 373.54,118.357 373.54,429.397 "/>
<polyline clip-path="url(#clip930)" style="stroke:#000000; stroke-linecap:round; stroke-linejoin:round; stroke-width:12; stroke-opacity:1; fill:none" points="405.485,196.117 597.155,196.117 "/>
<path clip-path="url(#clip930)" d="M688.055 209.156 Q688.055 209.437 687.739 210.526 Q687.422 211.615 686.649 213.302 Q685.912 214.988 684.858 216.534 Q683.839 218.045 682.152 219.169 Q680.501 220.258 678.604 220.258 Q676.074 220.258 674.388 218.572 Q672.701 216.885 672.701 214.356 Q672.701 212.985 673.65 210.385 Q678.112 198.51 678.112 194.259 Q678.112 189.235 674.212 189.235 Q671.999 189.235 669.996 190.148 Q667.993 191.062 666.693 192.327 Q665.394 193.592 664.375 195.032 Q663.356 196.473 662.899 197.421 Q662.477 198.37 662.372 198.791 L658.051 216.147 Q657.699 217.623 657.453 218.326 Q657.207 219.028 656.54 219.626 Q655.872 220.258 654.818 220.258 Q653.94 220.258 653.308 219.731 Q652.71 219.204 652.71 218.291 Q652.71 218.15 652.886 217.412 Q653.062 216.674 653.308 215.656 Q653.554 214.637 653.659 214.039 Q654.924 209.261 655.099 208.594 L657.102 200.232 Q658.191 196.086 658.191 194.259 Q658.191 189.235 654.291 189.235 Q652.359 189.235 650.532 189.973 Q648.74 190.675 647.511 191.659 Q646.281 192.643 645.157 194.013 Q644.067 195.348 643.505 196.262 Q642.978 197.14 642.557 198.018 L641.643 201.602 Q641.432 202.586 640.414 206.415 L638.832 212.915 Q637.708 217.764 637.462 218.22 Q637.111 219.204 636.338 219.731 Q635.565 220.258 634.792 220.258 Q633.914 220.258 633.317 219.731 Q632.719 219.204 632.719 218.291 Q632.719 218.15 632.825 217.623 Q632.93 217.096 633.106 216.358 Q633.281 215.62 633.352 215.199 L637.533 198.581 Q638.305 195.559 638.481 194.61 Q638.692 193.627 638.692 192.538 Q638.692 189.235 636.443 189.235 Q634.616 189.235 633.422 191.413 Q632.227 193.592 631.208 197.808 Q630.892 198.967 630.681 199.213 Q630.506 199.459 629.979 199.459 Q629.1 199.424 629.1 198.721 Q629.1 198.545 629.382 197.421 Q629.663 196.297 630.19 194.61 Q630.752 192.889 631.349 191.765 Q631.7 191.027 632.017 190.535 Q632.333 190.043 632.965 189.27 Q633.598 188.497 634.546 188.076 Q635.495 187.654 636.654 187.654 Q639.219 187.654 641.116 189.305 Q643.049 190.957 643.294 193.908 Q647.967 187.654 654.502 187.654 Q658.191 187.654 660.405 189.516 Q662.477 191.308 662.723 194.61 Q667.572 187.654 674.458 187.654 Q678.428 187.654 680.571 189.727 Q682.714 191.765 682.714 195.348 Q682.714 197.21 681.766 200.759 Q680.817 204.272 680.185 206.029 Q679.552 207.786 678.323 211.158 Q677.023 214.391 677.023 216.288 Q677.023 217.518 677.444 218.08 Q677.866 218.642 678.779 218.642 Q680.185 218.642 681.414 217.834 Q682.644 216.991 683.523 215.62 Q684.436 214.215 685.033 212.81 Q685.631 211.369 686.087 209.753 Q686.368 208.875 686.509 208.664 Q686.685 208.453 687.176 208.453 Q688.055 208.453 688.055 209.156 Z" fill="#000000" fill-rule="nonzero" fill-opacity="1" /><path clip-path="url(#clip930)" d="M711.612 208.523 Q711.682 207.645 713.052 207.645 L757.145 207.645 Q759.218 207.645 759.253 208.453 Q759.253 209.331 757.286 209.296 L713.544 209.296 Q711.612 209.331 711.612 208.523 M711.612 194.47 Q711.612 193.592 713.123 193.627 L757.075 193.627 Q759.218 193.627 759.253 194.47 Q759.253 195.278 757.426 195.278 L713.052 195.278 Q711.612 195.278 711.612 194.47 Z" fill="#000000" fill-rule="nonzero" fill-opacity="1" /><path clip-path="url(#clip930)" d="M786.991 178.379 L786.991 176.13 Q795.634 176.13 800.096 171.528 Q801.326 171.528 801.537 171.809 Q801.747 172.09 801.747 173.39 L801.747 213.758 Q801.747 215.901 802.801 216.569 Q803.855 217.237 808.458 217.237 L810.742 217.237 L810.742 219.45 Q808.212 219.239 799.077 219.239 Q789.942 219.239 787.448 219.45 L787.448 217.237 L789.732 217.237 Q794.264 217.237 795.353 216.604 Q796.442 215.937 796.442 213.758 L796.442 176.481 Q792.683 178.379 786.991 178.379 Z" fill="#000000" fill-rule="nonzero" fill-opacity="1" /><polyline clip-path="url(#clip930)" style="stroke:#ff0000; stroke-linecap:round; stroke-linejoin:round; stroke-width:12; stroke-opacity:1; fill:none" points="405.485,273.877 597.155,273.877 "/>
<path clip-path="url(#clip930)" d="M688.055 286.53 Q688.055 286.811 687.739 287.901 Q687.422 288.99 686.649 290.676 Q685.912 292.363 684.858 293.908 Q683.839 295.419 682.152 296.543 Q680.501 297.633 678.604 297.633 Q676.074 297.633 674.388 295.946 Q672.701 294.26 672.701 291.73 Q672.701 290.36 673.65 287.76 Q678.112 275.885 678.112 271.634 Q678.112 266.61 674.212 266.61 Q671.999 266.61 669.996 267.523 Q667.993 268.437 666.693 269.701 Q665.394 270.966 664.375 272.407 Q663.356 273.847 662.899 274.796 Q662.477 275.744 662.372 276.166 L658.051 293.522 Q657.699 294.998 657.453 295.7 Q657.207 296.403 656.54 297 Q655.872 297.633 654.818 297.633 Q653.94 297.633 653.308 297.106 Q652.71 296.579 652.71 295.665 Q652.71 295.525 652.886 294.787 Q653.062 294.049 653.308 293.03 Q653.554 292.011 653.659 291.414 Q654.924 286.636 655.099 285.968 L657.102 277.606 Q658.191 273.461 658.191 271.634 Q658.191 266.61 654.291 266.61 Q652.359 266.61 650.532 267.347 Q648.74 268.05 647.511 269.034 Q646.281 270.018 645.157 271.388 Q644.067 272.723 643.505 273.636 Q642.978 274.515 642.557 275.393 L641.643 278.977 Q641.432 279.96 640.414 283.79 L638.832 290.29 Q637.708 295.138 637.462 295.595 Q637.111 296.579 636.338 297.106 Q635.565 297.633 634.792 297.633 Q633.914 297.633 633.317 297.106 Q632.719 296.579 632.719 295.665 Q632.719 295.525 632.825 294.998 Q632.93 294.471 633.106 293.733 Q633.281 292.995 633.352 292.573 L637.533 275.955 Q638.305 272.934 638.481 271.985 Q638.692 271.001 638.692 269.912 Q638.692 266.61 636.443 266.61 Q634.616 266.61 633.422 268.788 Q632.227 270.966 631.208 275.182 Q630.892 276.342 630.681 276.588 Q630.506 276.833 629.979 276.833 Q629.1 276.798 629.1 276.096 Q629.1 275.92 629.382 274.796 Q629.663 273.671 630.19 271.985 Q630.752 270.263 631.349 269.139 Q631.7 268.401 632.017 267.91 Q632.333 267.418 632.965 266.645 Q633.598 265.872 634.546 265.45 Q635.495 265.029 636.654 265.029 Q639.219 265.029 641.116 266.68 Q643.049 268.331 643.294 271.282 Q647.967 265.029 654.502 265.029 Q658.191 265.029 660.405 266.891 Q662.477 268.682 662.723 271.985 Q667.572 265.029 674.458 265.029 Q678.428 265.029 680.571 267.101 Q682.714 269.139 682.714 272.723 Q682.714 274.585 681.766 278.133 Q680.817 281.647 680.185 283.403 Q679.552 285.16 678.323 288.533 Q677.023 291.765 677.023 293.663 Q677.023 294.892 677.444 295.454 Q677.866 296.016 678.779 296.016 Q680.185 296.016 681.414 295.208 Q682.644 294.365 683.523 292.995 Q684.436 291.59 685.033 290.184 Q685.631 288.744 686.087 287.128 Q686.368 286.249 686.509 286.039 Q686.685 285.828 687.176 285.828 Q688.055 285.828 688.055 286.53 Z" fill="#000000" fill-rule="nonzero" fill-opacity="1" /><path clip-path="url(#clip930)" d="M711.612 285.898 Q711.682 285.02 713.052 285.02 L757.145 285.02 Q759.218 285.02 759.253 285.828 Q759.253 286.706 757.286 286.671 L713.544 286.671 Q711.612 286.706 711.612 285.898 M711.612 271.844 Q711.612 270.966 713.123 271.001 L757.075 271.001 Q759.218 271.001 759.253 271.844 Q759.253 272.653 757.426 272.653 L713.052 272.653 Q711.612 272.653 711.612 271.844 Z" fill="#000000" fill-rule="nonzero" fill-opacity="1" /><path clip-path="url(#clip930)" d="M786.991 255.753 L786.991 253.505 Q795.634 253.505 800.096 248.902 Q801.326 248.902 801.537 249.183 Q801.747 249.464 801.747 250.764 L801.747 291.133 Q801.747 293.276 802.801 293.944 Q803.855 294.611 808.458 294.611 L810.742 294.611 L810.742 296.825 Q808.212 296.614 799.077 296.614 Q789.942 296.614 787.448 296.825 L787.448 294.611 L789.732 294.611 Q794.264 294.611 795.353 293.979 Q796.442 293.311 796.442 291.133 L796.442 253.856 Q792.683 255.753 786.991 255.753 Z" fill="#000000" fill-rule="nonzero" fill-opacity="1" /><path clip-path="url(#clip930)" d="M814.191 273.812 Q814.191 263.237 816.861 257.475 Q820.585 248.902 829.369 248.902 Q831.231 248.902 833.163 249.429 Q835.131 249.921 837.59 251.853 Q840.084 253.786 841.595 256.948 Q844.476 263.061 844.476 273.812 Q844.476 284.317 841.806 290.044 Q837.906 298.406 829.298 298.406 Q826.066 298.406 822.764 296.754 Q819.496 295.103 817.423 291.133 Q814.191 285.195 814.191 273.812 M820.164 272.934 Q820.164 283.79 820.937 288.111 Q821.815 292.784 824.204 294.822 Q826.628 296.825 829.298 296.825 Q832.179 296.825 834.568 294.681 Q836.993 292.503 837.73 287.83 Q838.539 283.228 838.503 272.934 Q838.503 262.921 837.801 258.915 Q836.852 254.243 834.322 252.38 Q831.828 250.483 829.298 250.483 Q828.35 250.483 827.331 250.764 Q826.347 251.045 824.907 251.853 Q823.466 252.662 822.342 254.664 Q821.253 256.667 820.726 259.688 Q820.164 263.588 820.164 272.934 Z" fill="#000000" fill-rule="nonzero" fill-opacity="1" /><polyline clip-path="url(#clip930)" style="stroke:#0000ff; stroke-linecap:round; stroke-linejoin:round; stroke-width:12; stroke-opacity:1; fill:none" points="405.485,351.637 597.155,351.637 "/>
<path clip-path="url(#clip930)" d="M688.055 364.29 Q688.055 364.571 687.739 365.661 Q687.422 366.75 686.649 368.436 Q685.912 370.123 684.858 371.668 Q683.839 373.179 682.152 374.303 Q680.501 375.393 678.604 375.393 Q676.074 375.393 674.388 373.706 Q672.701 372.02 672.701 369.49 Q672.701 368.12 673.65 365.52 Q678.112 353.645 678.112 349.394 Q678.112 344.37 674.212 344.37 Q671.999 344.37 669.996 345.283 Q667.993 346.197 666.693 347.461 Q665.394 348.726 664.375 350.167 Q663.356 351.607 662.899 352.556 Q662.477 353.504 662.372 353.926 L658.051 371.282 Q657.699 372.758 657.453 373.46 Q657.207 374.163 656.54 374.76 Q655.872 375.393 654.818 375.393 Q653.94 375.393 653.308 374.866 Q652.71 374.339 652.71 373.425 Q652.71 373.285 652.886 372.547 Q653.062 371.809 653.308 370.79 Q653.554 369.771 653.659 369.174 Q654.924 364.396 655.099 363.728 L657.102 355.366 Q658.191 351.221 658.191 349.394 Q658.191 344.37 654.291 344.37 Q652.359 344.37 650.532 345.107 Q648.74 345.81 647.511 346.794 Q646.281 347.778 645.157 349.148 Q644.067 350.483 643.505 351.396 Q642.978 352.275 642.557 353.153 L641.643 356.737 Q641.432 357.72 640.414 361.55 L638.832 368.05 Q637.708 372.898 637.462 373.355 Q637.111 374.339 636.338 374.866 Q635.565 375.393 634.792 375.393 Q633.914 375.393 633.317 374.866 Q632.719 374.339 632.719 373.425 Q632.719 373.285 632.825 372.758 Q632.93 372.231 633.106 371.493 Q633.281 370.755 633.352 370.333 L637.533 353.715 Q638.305 350.694 638.481 349.745 Q638.692 348.761 638.692 347.672 Q638.692 344.37 636.443 344.37 Q634.616 344.37 633.422 346.548 Q632.227 348.726 631.208 352.942 Q630.892 354.102 630.681 354.348 Q630.506 354.593 629.979 354.593 Q629.1 354.558 629.1 353.856 Q629.1 353.68 629.382 352.556 Q629.663 351.431 630.19 349.745 Q630.752 348.023 631.349 346.899 Q631.7 346.161 632.017 345.67 Q632.333 345.178 632.965 344.405 Q633.598 343.632 634.546 343.21 Q635.495 342.789 636.654 342.789 Q639.219 342.789 641.116 344.44 Q643.049 346.091 643.294 349.042 Q647.967 342.789 654.502 342.789 Q658.191 342.789 660.405 344.651 Q662.477 346.442 662.723 349.745 Q667.572 342.789 674.458 342.789 Q678.428 342.789 680.571 344.861 Q682.714 346.899 682.714 350.483 Q682.714 352.345 681.766 355.893 Q680.817 359.407 680.185 361.163 Q679.552 362.92 678.323 366.293 Q677.023 369.525 677.023 371.423 Q677.023 372.652 677.444 373.214 Q677.866 373.776 678.779 373.776 Q680.185 373.776 681.414 372.968 Q682.644 372.125 683.523 370.755 Q684.436 369.35 685.033 367.944 Q685.631 366.504 686.087 364.888 Q686.368 364.009 686.509 363.799 Q686.685 363.588 687.176 363.588 Q688.055 363.588 688.055 364.29 Z" fill="#000000" fill-rule="nonzero" fill-opacity="1" /><path clip-path="url(#clip930)" d="M711.612 363.658 Q711.682 362.78 713.052 362.78 L757.145 362.78 Q759.218 362.78 759.253 363.588 Q759.253 364.466 757.286 364.431 L713.544 364.431 Q711.612 364.466 711.612 363.658 M711.612 349.604 Q711.612 348.726 713.123 348.761 L757.075 348.761 Q759.218 348.761 759.253 349.604 Q759.253 350.413 757.426 350.413 L713.052 350.413 Q711.612 350.413 711.612 349.604 Z" fill="#000000" fill-rule="nonzero" fill-opacity="1" /><path clip-path="url(#clip930)" d="M786.991 333.513 L786.991 331.265 Q795.634 331.265 800.096 326.662 Q801.326 326.662 801.537 326.943 Q801.747 327.224 801.747 328.524 L801.747 368.893 Q801.747 371.036 802.801 371.704 Q803.855 372.371 808.458 372.371 L810.742 372.371 L810.742 374.585 Q808.212 374.374 799.077 374.374 Q789.942 374.374 787.448 374.585 L787.448 372.371 L789.732 372.371 Q794.264 372.371 795.353 371.739 Q796.442 371.071 796.442 368.893 L796.442 331.616 Q792.683 333.513 786.991 333.513 Z" fill="#000000" fill-rule="nonzero" fill-opacity="1" /><path clip-path="url(#clip930)" d="M814.191 351.572 Q814.191 340.997 816.861 335.235 Q820.585 326.662 829.369 326.662 Q831.231 326.662 833.163 327.189 Q835.131 327.681 837.59 329.613 Q840.084 331.546 841.595 334.708 Q844.476 340.821 844.476 351.572 Q844.476 362.077 841.806 367.804 Q837.906 376.166 829.298 376.166 Q826.066 376.166 822.764 374.514 Q819.496 372.863 817.423 368.893 Q814.191 362.955 814.191 351.572 M820.164 350.694 Q820.164 361.55 820.937 365.871 Q821.815 370.544 824.204 372.582 Q826.628 374.585 829.298 374.585 Q832.179 374.585 834.568 372.441 Q836.993 370.263 837.73 365.59 Q838.539 360.988 838.503 350.694 Q838.503 340.681 837.801 336.675 Q836.852 332.003 834.322 330.14 Q831.828 328.243 829.298 328.243 Q828.35 328.243 827.331 328.524 Q826.347 328.805 824.907 329.613 Q823.466 330.422 822.342 332.424 Q821.253 334.427 820.726 337.448 Q820.164 341.348 820.164 350.694 Z" fill="#000000" fill-rule="nonzero" fill-opacity="1" /><path clip-path="url(#clip930)" d="M850.104 351.572 Q850.104 340.997 852.774 335.235 Q856.498 326.662 865.282 326.662 Q867.144 326.662 869.076 327.189 Q871.044 327.681 873.503 329.613 Q875.997 331.546 877.508 334.708 Q880.389 340.821 880.389 351.572 Q880.389 362.077 877.719 367.804 Q873.819 376.166 865.211 376.166 Q861.979 376.166 858.677 374.514 Q855.409 372.863 853.336 368.893 Q850.104 362.955 850.104 351.572 M856.077 350.694 Q856.077 361.55 856.85 365.871 Q857.728 370.544 860.117 372.582 Q862.541 374.585 865.211 374.585 Q868.092 374.585 870.481 372.441 Q872.906 370.263 873.643 365.59 Q874.452 360.988 874.416 350.694 Q874.416 340.681 873.714 336.675 Q872.765 332.003 870.235 330.14 Q867.741 328.243 865.211 328.243 Q864.263 328.243 863.244 328.524 Q862.26 328.805 860.82 329.613 Q859.379 330.422 858.255 332.424 Q857.166 334.427 856.639 337.448 Q856.077 341.348 856.077 350.694 Z" fill="#000000" fill-rule="nonzero" fill-opacity="1" /></svg>
