<?xml version="1.0" encoding="utf-8"?>
<svg xmlns="http://www.w3.org/2000/svg" xmlns:xlink="http://www.w3.org/1999/xlink" width="848" height="285.5" viewBox="0 0 3392 1142">
<defs>
  <clipPath id="clip810">
    <rect x="0" y="0" width="3392" height="1142"/>
  </clipPath>
</defs>
<path clip-path="url(#clip810)" d="M0 1142 L3392 1142 L3392 0 L0 0  Z" fill="#ffffff" fill-rule="evenodd" fill-opacity="1"/>
<defs>
  <clipPath id="clip811">
    <rect x="678" y="0" width="2375" height="1142"/>
  </clipPath>
</defs>
<path clip-path="url(#clip810)" d="M205.698 1050.11 L3344.76 1050.11 L3344.76 47.2607 L205.698 47.2607  Z" fill="#ffffff" fill-rule="evenodd" fill-opacity="1"/>
<defs>
  <clipPath id="clip812">
    <rect x="205" y="47" width="3140" height="1004"/>
  </clipPath>
</defs>
<polyline clip-path="url(#clip812)" style="stroke:#000000; stroke-linecap:round; stroke-linejoin:round; stroke-width:2.0007; stroke-opacity:0.1; fill:none" points="294.539,1050.11 294.539,47.2607 "/>
<polyline clip-path="url(#clip812)" style="stroke:#000000; stroke-linecap:round; stroke-linejoin:round; stroke-width:2.0007; stroke-opacity:0.1; fill:none" points="1034.88,1050.11 1034.88,47.2607 "/>
<polyline clip-path="url(#clip812)" style="stroke:#000000; stroke-linecap:round; stroke-linejoin:round; stroke-width:2.0007; stroke-opacity:0.1; fill:none" points="1775.23,1050.11 1775.23,47.2607 "/>
<polyline clip-path="url(#clip812)" style="stroke:#000000; stroke-linecap:round; stroke-linejoin:round; stroke-width:2.0007; stroke-opacity:0.1; fill:none" points="2515.57,1050.11 2515.57,47.2607 "/>
<polyline clip-path="url(#clip812)" style="stroke:#000000; stroke-linecap:round; stroke-linejoin:round; stroke-width:2.0007; stroke-opacity:0.1; fill:none" points="3255.91,1050.11 3255.91,47.2607 "/>
<polyline clip-path="url(#clip810)" style="stroke:#000000; stroke-linecap:round; stroke-linejoin:round; stroke-width:4.00141; stroke-opacity:1; fill:none" points="205.698,1050.11 3344.76,1050.11 "/>
<polyline clip-path="url(#clip810)" style="stroke:#000000; stroke-linecap:round; stroke-linejoin:round; stroke-width:4.00141; stroke-opacity:1; fill:none" points="294.539,1050.11 294.539,1031.21 "/>
<polyline clip-path="url(#clip810)" style="stroke:#000000; stroke-linecap:round; stroke-linejoin:round; stroke-width:4.00141; stroke-opacity:1; fill:none" points="1034.88,1050.11 1034.88,1031.21 "/>
<polyline clip-path="url(#clip810)" style="stroke:#000000; stroke-linecap:round; stroke-linejoin:round; stroke-width:4.00141; stroke-opacity:1; fill:none" points="1775.23,1050.11 1775.23,1031.21 "/>
<polyline clip-path="url(#clip810)" style="stroke:#000000; stroke-linecap:round; stroke-linejoin:round; stroke-width:4.00141; stroke-opacity:1; fill:none" points="2515.57,1050.11 2515.57,1031.21 "/>
<polyline clip-path="url(#clip810)" style="stroke:#000000; stroke-linecap:round; stroke-linejoin:round; stroke-width:4.00141; stroke-opacity:1; fill:none" points="3255.91,1050.11 3255.91,1031.21 "/>
<path clip-path="url(#clip810)" d="M267.629 1089.98 L255.824 1108.43 L267.629 1108.43 L267.629 1089.98 M266.403 1085.9 L272.282 1085.9 L272.282 1108.43 L277.213 1108.43 L277.213 1112.32 L272.282 1112.32 L272.282 1120.47 L267.629 1120.47 L267.629 1112.32 L252.028 1112.32 L252.028 1107.81 L266.403 1085.9 Z" fill="#000000" fill-rule="nonzero" fill-opacity="1" /><path clip-path="url(#clip810)" d="M294.944 1088.98 Q291.333 1088.98 289.504 1092.55 Q287.699 1096.09 287.699 1103.22 Q287.699 1110.33 289.504 1113.9 Q291.333 1117.44 294.944 1117.44 Q298.578 1117.44 300.384 1113.9 Q302.213 1110.33 302.213 1103.22 Q302.213 1096.09 300.384 1092.55 Q298.578 1088.98 294.944 1088.98 M294.944 1085.28 Q300.754 1085.28 303.81 1089.88 Q306.888 1094.47 306.888 1103.22 Q306.888 1111.95 303.81 1116.56 Q300.754 1121.14 294.944 1121.14 Q289.134 1121.14 286.055 1116.56 Q283 1111.95 283 1103.22 Q283 1094.47 286.055 1089.88 Q289.134 1085.28 294.944 1085.28 Z" fill="#000000" fill-rule="nonzero" fill-opacity="1" /><path clip-path="url(#clip810)" d="M325.106 1088.98 Q321.495 1088.98 319.666 1092.55 Q317.861 1096.09 317.861 1103.22 Q317.861 1110.33 319.666 1113.9 Q321.495 1117.44 325.106 1117.44 Q328.74 1117.44 330.546 1113.9 Q332.374 1110.33 332.374 1103.22 Q332.374 1096.09 330.546 1092.55 Q328.74 1088.98 325.106 1088.98 M325.106 1085.28 Q330.916 1085.28 333.972 1089.88 Q337.05 1094.47 337.05 1103.22 Q337.05 1111.95 333.972 1116.56 Q330.916 1121.14 325.106 1121.14 Q319.296 1121.14 316.217 1116.56 Q313.162 1111.95 313.162 1103.22 Q313.162 1094.47 316.217 1089.88 Q319.296 1085.28 325.106 1085.28 Z" fill="#000000" fill-rule="nonzero" fill-opacity="1" /><path clip-path="url(#clip810)" d="M1007.97 1089.98 L996.168 1108.43 L1007.97 1108.43 L1007.97 1089.98 M1006.75 1085.9 L1012.63 1085.9 L1012.63 1108.43 L1017.56 1108.43 L1017.56 1112.32 L1012.63 1112.32 L1012.63 1120.47 L1007.97 1120.47 L1007.97 1112.32 L992.372 1112.32 L992.372 1107.81 L1006.75 1085.9 Z" fill="#000000" fill-rule="nonzero" fill-opacity="1" /><path clip-path="url(#clip810)" d="M1025.33 1085.9 L1043.69 1085.9 L1043.69 1089.84 L1029.62 1089.84 L1029.62 1098.31 Q1030.64 1097.97 1031.65 1097.8 Q1032.67 1097.62 1033.69 1097.62 Q1039.48 1097.62 1042.86 1100.79 Q1046.24 1103.96 1046.24 1109.38 Q1046.24 1114.96 1042.76 1118.07 Q1039.29 1121.14 1032.97 1121.14 Q1030.8 1121.14 1028.53 1120.77 Q1026.28 1120.4 1023.88 1119.66 L1023.88 1114.96 Q1025.96 1116.1 1028.18 1116.65 Q1030.4 1117.21 1032.88 1117.21 Q1036.89 1117.21 1039.22 1115.1 Q1041.56 1112.99 1041.56 1109.38 Q1041.56 1105.77 1039.22 1103.66 Q1036.89 1101.55 1032.88 1101.55 Q1031.01 1101.55 1029.13 1101.97 Q1027.28 1102.39 1025.33 1103.27 L1025.33 1085.9 Z" fill="#000000" fill-rule="nonzero" fill-opacity="1" /><path clip-path="url(#clip810)" d="M1065.45 1088.98 Q1061.84 1088.98 1060.01 1092.55 Q1058.2 1096.09 1058.2 1103.22 Q1058.2 1110.33 1060.01 1113.9 Q1061.84 1117.44 1065.45 1117.44 Q1069.08 1117.44 1070.89 1113.9 Q1072.72 1110.33 1072.72 1103.22 Q1072.72 1096.09 1070.89 1092.55 Q1069.08 1088.98 1065.45 1088.98 M1065.45 1085.28 Q1071.26 1085.28 1074.32 1089.88 Q1077.39 1094.47 1077.39 1103.22 Q1077.39 1111.95 1074.32 1116.56 Q1071.26 1121.14 1065.45 1121.14 Q1059.64 1121.14 1056.56 1116.56 Q1053.51 1111.95 1053.51 1103.22 Q1053.51 1094.47 1056.56 1089.88 Q1059.64 1085.28 1065.45 1085.28 Z" fill="#000000" fill-rule="nonzero" fill-opacity="1" /><path clip-path="url(#clip810)" d="M1734.85 1085.9 L1753.2 1085.9 L1753.2 1089.84 L1739.13 1089.84 L1739.13 1098.31 Q1740.15 1097.97 1741.16 1097.8 Q1742.18 1097.62 1743.2 1097.62 Q1748.99 1097.62 1752.37 1100.79 Q1755.75 1103.96 1755.75 1109.38 Q1755.75 1114.96 1752.28 1118.07 Q1748.8 1121.14 1742.48 1121.14 Q1740.31 1121.14 1738.04 1120.77 Q1735.79 1120.4 1733.39 1119.66 L1733.39 1114.96 Q1735.47 1116.1 1737.69 1116.65 Q1739.91 1117.21 1742.39 1117.21 Q1746.4 1117.21 1748.73 1115.1 Q1751.07 1112.99 1751.07 1109.38 Q1751.07 1105.77 1748.73 1103.66 Q1746.4 1101.55 1742.39 1101.55 Q1740.52 1101.55 1738.64 1101.97 Q1736.79 1102.39 1734.85 1103.27 L1734.85 1085.9 Z" fill="#000000" fill-rule="nonzero" fill-opacity="1" /><path clip-path="url(#clip810)" d="M1774.96 1088.98 Q1771.35 1088.98 1769.52 1092.55 Q1767.72 1096.09 1767.72 1103.22 Q1767.72 1110.33 1769.52 1113.9 Q1771.35 1117.44 1774.96 1117.44 Q1778.59 1117.44 1780.4 1113.9 Q1782.23 1110.33 1782.23 1103.22 Q1782.23 1096.09 1780.4 1092.55 Q1778.59 1088.98 1774.96 1088.98 M1774.96 1085.28 Q1780.77 1085.28 1783.83 1089.88 Q1786.9 1094.47 1786.9 1103.22 Q1786.9 1111.95 1783.83 1116.56 Q1780.77 1121.14 1774.96 1121.14 Q1769.15 1121.14 1766.07 1116.56 Q1763.02 1111.95 1763.02 1103.22 Q1763.02 1094.47 1766.07 1089.88 Q1769.15 1085.28 1774.96 1085.28 Z" fill="#000000" fill-rule="nonzero" fill-opacity="1" /><path clip-path="url(#clip810)" d="M1805.12 1088.98 Q1801.51 1088.98 1799.68 1092.55 Q1797.88 1096.09 1797.88 1103.22 Q1797.88 1110.33 1799.68 1113.9 Q1801.51 1117.44 1805.12 1117.44 Q1808.76 1117.44 1810.56 1113.9 Q1812.39 1110.33 1812.39 1103.22 Q1812.39 1096.09 1810.56 1092.55 Q1808.76 1088.98 1805.12 1088.98 M1805.12 1085.28 Q1810.93 1085.28 1813.99 1089.88 Q1817.07 1094.47 1817.07 1103.22 Q1817.07 1111.95 1813.99 1116.56 Q1810.93 1121.14 1805.12 1121.14 Q1799.31 1121.14 1796.23 1116.56 Q1793.18 1111.95 1793.18 1103.22 Q1793.18 1094.47 1796.23 1089.88 Q1799.31 1085.28 1805.12 1085.28 Z" fill="#000000" fill-rule="nonzero" fill-opacity="1" /><path clip-path="url(#clip810)" d="M2475.19 1085.9 L2493.55 1085.9 L2493.55 1089.84 L2479.47 1089.84 L2479.47 1098.31 Q2480.49 1097.97 2481.51 1097.8 Q2482.53 1097.62 2483.55 1097.62 Q2489.33 1097.62 2492.71 1100.79 Q2496.09 1103.96 2496.09 1109.38 Q2496.09 1114.96 2492.62 1118.07 Q2489.15 1121.14 2482.83 1121.14 Q2480.65 1121.14 2478.38 1120.77 Q2476.14 1120.4 2473.73 1119.66 L2473.73 1114.96 Q2475.81 1116.1 2478.04 1116.65 Q2480.26 1117.21 2482.74 1117.21 Q2486.74 1117.21 2489.08 1115.1 Q2491.42 1112.99 2491.42 1109.38 Q2491.42 1105.77 2489.08 1103.66 Q2486.74 1101.55 2482.74 1101.55 Q2480.86 1101.55 2478.99 1101.97 Q2477.13 1102.39 2475.19 1103.27 L2475.19 1085.9 Z" fill="#000000" fill-rule="nonzero" fill-opacity="1" /><path clip-path="url(#clip810)" d="M2505.35 1085.9 L2523.71 1085.9 L2523.71 1089.84 L2509.63 1089.84 L2509.63 1098.31 Q2510.65 1097.97 2511.67 1097.8 Q2512.69 1097.62 2513.71 1097.62 Q2519.49 1097.62 2522.87 1100.79 Q2526.25 1103.96 2526.25 1109.38 Q2526.25 1114.96 2522.78 1118.07 Q2519.31 1121.14 2512.99 1121.14 Q2510.81 1121.14 2508.55 1120.77 Q2506.3 1120.4 2503.89 1119.66 L2503.89 1114.96 Q2505.98 1116.1 2508.2 1116.65 Q2510.42 1117.21 2512.9 1117.21 Q2516.9 1117.21 2519.24 1115.1 Q2521.58 1112.99 2521.58 1109.38 Q2521.58 1105.77 2519.24 1103.66 Q2516.9 1101.55 2512.9 1101.55 Q2511.02 1101.55 2509.15 1101.97 Q2507.3 1102.39 2505.35 1103.27 L2505.35 1085.9 Z" fill="#000000" fill-rule="nonzero" fill-opacity="1" /><path clip-path="url(#clip810)" d="M2545.47 1088.98 Q2541.86 1088.98 2540.03 1092.55 Q2538.22 1096.09 2538.22 1103.22 Q2538.22 1110.33 2540.03 1113.9 Q2541.86 1117.44 2545.47 1117.44 Q2549.1 1117.44 2550.91 1113.9 Q2552.73 1110.33 2552.73 1103.22 Q2552.73 1096.09 2550.91 1092.55 Q2549.1 1088.98 2545.47 1088.98 M2545.47 1085.28 Q2551.28 1085.28 2554.33 1089.88 Q2557.41 1094.47 2557.41 1103.22 Q2557.41 1111.95 2554.33 1116.56 Q2551.28 1121.14 2545.47 1121.14 Q2539.66 1121.14 2536.58 1116.56 Q2533.52 1111.95 2533.52 1103.22 Q2533.52 1094.47 2536.58 1089.88 Q2539.66 1085.28 2545.47 1085.28 Z" fill="#000000" fill-rule="nonzero" fill-opacity="1" /><path clip-path="url(#clip810)" d="M3226.24 1101.32 Q3223.09 1101.32 3221.24 1103.48 Q3219.41 1105.63 3219.41 1109.38 Q3219.41 1113.11 3221.24 1115.29 Q3223.09 1117.44 3226.24 1117.44 Q3229.39 1117.44 3231.22 1115.29 Q3233.07 1113.11 3233.07 1109.38 Q3233.07 1105.63 3231.22 1103.48 Q3229.39 1101.32 3226.24 1101.32 M3235.52 1086.67 L3235.52 1090.93 Q3233.76 1090.09 3231.96 1089.65 Q3230.17 1089.21 3228.41 1089.21 Q3223.79 1089.21 3221.33 1092.34 Q3218.9 1095.46 3218.55 1101.79 Q3219.92 1099.77 3221.98 1098.71 Q3224.04 1097.62 3226.52 1097.62 Q3231.72 1097.62 3234.73 1100.79 Q3237.77 1103.94 3237.77 1109.38 Q3237.77 1114.71 3234.62 1117.93 Q3231.47 1121.14 3226.24 1121.14 Q3220.24 1121.14 3217.07 1116.56 Q3213.9 1111.95 3213.9 1103.22 Q3213.9 1095.02 3217.79 1090.16 Q3221.68 1085.28 3228.23 1085.28 Q3229.99 1085.28 3231.77 1085.62 Q3233.58 1085.97 3235.52 1086.67 Z" fill="#000000" fill-rule="nonzero" fill-opacity="1" /><path clip-path="url(#clip810)" d="M3255.82 1088.98 Q3252.21 1088.98 3250.38 1092.55 Q3248.58 1096.09 3248.58 1103.22 Q3248.58 1110.33 3250.38 1113.9 Q3252.21 1117.44 3255.82 1117.44 Q3259.46 1117.44 3261.26 1113.9 Q3263.09 1110.33 3263.09 1103.22 Q3263.09 1096.09 3261.26 1092.55 Q3259.46 1088.98 3255.82 1088.98 M3255.82 1085.28 Q3261.63 1085.28 3264.69 1089.88 Q3267.77 1094.47 3267.77 1103.22 Q3267.77 1111.95 3264.69 1116.56 Q3261.63 1121.14 3255.82 1121.14 Q3250.01 1121.14 3246.93 1116.56 Q3243.88 1111.95 3243.88 1103.22 Q3243.88 1094.47 3246.93 1089.88 Q3250.01 1085.28 3255.82 1085.28 Z" fill="#000000" fill-rule="nonzero" fill-opacity="1" /><path clip-path="url(#clip810)" d="M3285.98 1088.98 Q3282.37 1088.98 3280.54 1092.55 Q3278.74 1096.09 3278.74 1103.22 Q3278.74 1110.33 3280.54 1113.9 Q3282.37 1117.44 3285.98 1117.44 Q3289.62 1117.44 3291.42 1113.9 Q3293.25 1110.33 3293.25 1103.22 Q3293.25 1096.09 3291.42 1092.55 Q3289.62 1088.98 3285.98 1088.98 M3285.98 1085.28 Q3291.79 1085.28 3294.85 1089.88 Q3297.93 1094.47 3297.93 1103.22 Q3297.93 1111.95 3294.85 1116.56 Q3291.79 1121.14 3285.98 1121.14 Q3280.17 1121.14 3277.1 1116.56 Q3274.04 1111.95 3274.04 1103.22 Q3274.04 1094.47 3277.1 1089.88 Q3280.17 1085.28 3285.98 1085.28 Z" fill="#000000" fill-rule="nonzero" fill-opacity="1" /><polyline clip-path="url(#clip812)" style="stroke:#000000; stroke-linecap:round; stroke-linejoin:round; stroke-width:2.0007; stroke-opacity:0.1; fill:none" points="205.698,815.556 3344.76,815.556 "/>
<polyline clip-path="url(#clip812)" style="stroke:#000000; stroke-linecap:round; stroke-linejoin:round; stroke-width:2.0007; stroke-opacity:0.1; fill:none" points="205.698,551.94 3344.76,551.94 "/>
<polyline clip-path="url(#clip812)" style="stroke:#000000; stroke-linecap:round; stroke-linejoin:round; stroke-width:2.0007; stroke-opacity:0.1; fill:none" points="205.698,288.325 3344.76,288.325 "/>
<polyline clip-path="url(#clip810)" style="stroke:#000000; stroke-linecap:round; stroke-linejoin:round; stroke-width:4.00141; stroke-opacity:1; fill:none" points="205.698,1050.11 205.698,47.2607 "/>
<polyline clip-path="url(#clip810)" style="stroke:#000000; stroke-linecap:round; stroke-linejoin:round; stroke-width:4.00141; stroke-opacity:1; fill:none" points="205.698,815.556 224.595,815.556 "/>
<polyline clip-path="url(#clip810)" style="stroke:#000000; stroke-linecap:round; stroke-linejoin:round; stroke-width:4.00141; stroke-opacity:1; fill:none" points="205.698,551.94 224.595,551.94 "/>
<polyline clip-path="url(#clip810)" style="stroke:#000000; stroke-linecap:round; stroke-linejoin:round; stroke-width:4.00141; stroke-opacity:1; fill:none" points="205.698,288.325 224.595,288.325 "/>
<path clip-path="url(#clip810)" d="M46.7034 835.355 L54.3423 835.355 L54.3423 808.98 L46.0321 810.647 L46.0321 806.387 L54.296 804.72 L58.9719 804.72 L58.9719 835.355 L66.6107 835.355 L66.6107 839.292 L46.7034 839.292 L46.7034 835.355 Z" fill="#000000" fill-rule="nonzero" fill-opacity="1" /><path clip-path="url(#clip810)" d="M86.0551 807.799 Q82.444 807.799 80.6153 811.365 Q78.8097 814.908 78.8097 822.04 Q78.8097 829.149 80.6153 832.715 Q82.444 836.258 86.0551 836.258 Q89.6893 836.258 91.4948 832.715 Q93.3235 829.149 93.3235 822.04 Q93.3235 814.908 91.4948 811.365 Q89.6893 807.799 86.0551 807.799 M86.0551 804.094 Q91.8652 804.094 94.9208 808.702 Q97.9994 813.287 97.9994 822.04 Q97.9994 830.77 94.9208 835.378 Q91.8652 839.963 86.0551 839.963 Q80.2449 839.963 77.1662 835.378 Q74.1107 830.77 74.1107 822.04 Q74.1107 813.287 77.1662 808.702 Q80.2449 804.094 86.0551 804.094 Z" fill="#000000" fill-rule="nonzero" fill-opacity="1" /><path clip-path="url(#clip810)" d="M110.676 787.093 L101.084 802.088 L110.676 802.088 L110.676 787.093 M109.679 783.782 L114.456 783.782 L114.456 802.088 L118.462 802.088 L118.462 805.249 L114.456 805.249 L114.456 811.872 L110.676 811.872 L110.676 805.249 L97.9994 805.249 L97.9994 801.58 L109.679 783.782 Z" fill="#000000" fill-rule="nonzero" fill-opacity="1" /><path clip-path="url(#clip810)" d="M124.744 807.093 L128.713 807.093 L128.713 811.872 L124.744 811.872 L124.744 807.093 Z" fill="#000000" fill-rule="nonzero" fill-opacity="1" /><path clip-path="url(#clip810)" d="M145.113 786.284 Q142.179 786.284 140.693 789.181 Q139.226 792.06 139.226 797.855 Q139.226 803.631 140.693 806.528 Q142.179 809.407 145.113 809.407 Q148.066 809.407 149.533 806.528 Q151.019 803.631 151.019 797.855 Q151.019 792.06 149.533 789.181 Q148.066 786.284 145.113 786.284 M145.113 783.274 Q149.834 783.274 152.316 787.018 Q154.818 790.743 154.818 797.855 Q154.818 804.948 152.316 808.692 Q149.834 812.417 145.113 812.417 Q140.392 812.417 137.891 808.692 Q135.408 804.948 135.408 797.855 Q135.408 790.743 137.891 787.018 Q140.392 783.274 145.113 783.274 Z" fill="#000000" fill-rule="nonzero" fill-opacity="1" /><path clip-path="url(#clip810)" d="M47.7002 571.74 L55.3391 571.74 L55.3391 545.365 L47.0289 547.032 L47.0289 542.771 L55.2928 541.104 L59.9687 541.104 L59.9687 571.74 L67.6075 571.74 L67.6075 575.676 L47.7002 575.676 L47.7002 571.74 Z" fill="#000000" fill-rule="nonzero" fill-opacity="1" /><path clip-path="url(#clip810)" d="M87.0519 544.184 Q83.4408 544.184 81.6121 547.75 Q79.8065 551.293 79.8065 558.425 Q79.8065 565.534 81.6121 569.1 Q83.4408 572.643 87.0519 572.643 Q90.6861 572.643 92.4917 569.1 Q94.3204 565.534 94.3204 558.425 Q94.3204 551.293 92.4917 547.75 Q90.6861 544.184 87.0519 544.184 M87.0519 540.479 Q92.862 540.479 95.9176 545.087 Q98.9963 549.672 98.9963 558.425 Q98.9963 567.155 95.9176 571.763 Q92.862 576.348 87.0519 576.348 Q81.2417 576.348 78.163 571.763 Q75.1075 567.155 75.1075 558.425 Q75.1075 549.672 78.163 545.087 Q81.2417 540.479 87.0519 540.479 Z" fill="#000000" fill-rule="nonzero" fill-opacity="1" /><path clip-path="url(#clip810)" d="M111.673 523.478 L102.081 538.473 L111.673 538.473 L111.673 523.478 M110.676 520.166 L115.453 520.166 L115.453 538.473 L119.459 538.473 L119.459 541.634 L115.453 541.634 L115.453 548.256 L111.673 548.256 L111.673 541.634 L98.9963 541.634 L98.9963 537.965 L110.676 520.166 Z" fill="#000000" fill-rule="nonzero" fill-opacity="1" /><path clip-path="url(#clip810)" d="M125.741 543.477 L129.709 543.477 L129.709 548.256 L125.741 548.256 L125.741 543.477 Z" fill="#000000" fill-rule="nonzero" fill-opacity="1" /><path clip-path="url(#clip810)" d="M138.643 545.058 L144.85 545.058 L144.85 523.628 L138.098 524.983 L138.098 521.521 L144.812 520.166 L148.611 520.166 L148.611 545.058 L154.818 545.058 L154.818 548.256 L138.643 548.256 L138.643 545.058 Z" fill="#000000" fill-rule="nonzero" fill-opacity="1" /><path clip-path="url(#clip810)" d="M48.0012 308.125 L55.64 308.125 L55.64 281.75 L47.3299 283.417 L47.3299 279.156 L55.5937 277.489 L60.2696 277.489 L60.2696 308.125 L67.9085 308.125 L67.9085 312.061 L48.0012 312.061 L48.0012 308.125 Z" fill="#000000" fill-rule="nonzero" fill-opacity="1" /><path clip-path="url(#clip810)" d="M87.3528 280.569 Q83.7417 280.569 81.913 284.135 Q80.1075 287.678 80.1075 294.81 Q80.1075 301.919 81.913 305.485 Q83.7417 309.028 87.3528 309.028 Q90.987 309.028 92.7926 305.485 Q94.6213 301.919 94.6213 294.81 Q94.6213 287.678 92.7926 284.135 Q90.987 280.569 87.3528 280.569 M87.3528 276.864 Q93.1629 276.864 96.2185 281.472 Q99.2972 286.057 99.2972 294.81 Q99.2972 303.54 96.2185 308.148 Q93.1629 312.733 87.3528 312.733 Q81.5426 312.733 78.464 308.148 Q75.4084 303.54 75.4084 294.81 Q75.4084 286.057 78.464 281.472 Q81.5426 276.864 87.3528 276.864 Z" fill="#000000" fill-rule="nonzero" fill-opacity="1" /><path clip-path="url(#clip810)" d="M111.974 259.862 L102.382 274.858 L111.974 274.858 L111.974 259.862 M110.977 256.551 L115.754 256.551 L115.754 274.858 L119.76 274.858 L119.76 278.018 L115.754 278.018 L115.754 284.641 L111.974 284.641 L111.974 278.018 L99.2972 278.018 L99.2972 274.35 L110.977 256.551 Z" fill="#000000" fill-rule="nonzero" fill-opacity="1" /><path clip-path="url(#clip810)" d="M126.042 279.862 L130.01 279.862 L130.01 284.641 L126.042 284.641 L126.042 279.862 Z" fill="#000000" fill-rule="nonzero" fill-opacity="1" /><path clip-path="url(#clip810)" d="M141.558 281.443 L154.818 281.443 L154.818 284.641 L136.988 284.641 L136.988 281.443 Q139.151 279.204 142.875 275.441 Q146.618 271.659 147.577 270.568 Q149.401 268.517 150.116 267.106 Q150.849 265.676 150.849 264.303 Q150.849 262.064 149.269 260.653 Q147.708 259.242 145.188 259.242 Q143.401 259.242 141.408 259.862 Q139.433 260.483 137.176 261.744 L137.176 257.906 Q139.471 256.984 141.464 256.513 Q143.458 256.043 145.113 256.043 Q149.476 256.043 152.072 258.226 Q154.667 260.408 154.667 264.058 Q154.667 265.789 154.009 267.351 Q153.37 268.893 151.658 271.001 Q151.188 271.546 148.668 274.161 Q146.147 276.758 141.558 281.443 Z" fill="#000000" fill-rule="nonzero" fill-opacity="1" /><polyline clip-path="url(#clip812)" style="stroke:#000000; stroke-linecap:round; stroke-linejoin:round; stroke-width:8.00282; stroke-opacity:1; fill:none" points="294.539,1021.73 297.503,1020.88 300.468,1020.04 303.432,1019.19 306.396,1018.35 309.361,1017.5 312.325,1016.66 315.289,1015.81 318.254,1014.97 321.218,1014.13 324.182,1013.29 327.147,1012.44 330.111,1011.6 333.075,1010.76 336.04,1009.92 339.004,1009.08 341.968,1008.24 344.933,1007.4 347.897,1006.56 350.861,1005.72 353.826,1004.88 356.79,1004.04 359.754,1003.21 362.719,1002.37 365.683,1001.53 368.647,1000.7 371.612,999.861 374.576,999.026 377.541,998.19 380.505,997.356 383.469,996.521 386.434,995.688 389.398,994.854 392.362,994.021 395.327,993.188 398.291,992.356 401.255,991.524 404.22,990.693 407.184,989.862 410.148,989.031 413.113,988.201 416.077,987.371 419.041,986.542 422.006,985.712 424.97,984.884 427.934,984.056 430.899,983.228 433.863,982.4 436.827,981.573 439.792,980.747 442.756,979.92 445.72,979.095 448.685,978.269 451.649,977.444 454.613,976.62 457.578,975.795 460.542,974.972 463.506,974.148 466.471,973.325 469.435,972.502 472.399,971.68 475.364,970.858 478.328,970.037 481.292,969.216 484.257,968.395 487.221,967.575 490.185,966.755 493.15,965.936 496.114,965.116 499.078,964.298 502.043,963.479 505.007,962.662 507.971,961.844 510.936,961.027 513.9,960.21 516.864,959.394 519.829,958.578 522.793,957.762 525.758,956.947 528.722,956.132 531.686,955.318 534.651,954.504 537.615,953.69 540.579,952.877 543.544,952.064 546.508,951.252 549.472,950.44 552.437,949.628 555.401,948.817 558.365,948.006 561.33,947.195 564.294,946.385 567.258,945.576 570.223,944.766 573.187,943.957 576.151,943.149 579.116,942.34 582.08,941.533 585.044,940.725 588.009,939.918 590.973,939.111 593.937,938.305 596.902,937.499 599.866,936.694 602.83,935.888 605.795,935.084 608.759,934.279 611.723,933.475 614.688,932.672 617.652,931.868 620.616,931.065 623.581,930.263 626.545,929.461 629.509,928.659 632.474,927.858 635.438,927.057 638.402,926.256 641.367,925.456 644.331,924.656 647.295,923.856 650.26,923.057 653.224,922.258 656.188,921.46 659.153,920.662 662.117,919.864 665.081,919.067 668.046,918.27 671.01,917.474 673.975,916.678 676.939,915.882 679.903,915.086 682.868,914.291 685.832,913.497 688.796,912.702 691.761,911.908 694.725,911.115 697.689,910.322 700.654,909.529 703.618,908.736 706.582,907.944 709.547,907.153 712.511,906.361 715.475,905.57 718.44,904.78 721.404,903.989 724.368,903.2 727.333,902.41 730.297,901.621 733.261,900.832 736.226,900.044 739.19,899.256 742.154,898.468 745.119,897.681 748.083,896.894 751.047,896.107 754.012,895.321 756.976,894.535 759.94,893.749 762.905,892.964 765.869,892.179 768.833,891.395 771.798,890.611 774.762,889.827 777.726,889.044 780.691,888.261 783.655,887.478 786.619,886.696 789.584,885.914 792.548,885.132 795.512,884.351 798.477,883.57 801.441,882.79 804.405,882.01 807.37,881.23 810.334,880.451 813.298,879.672 816.263,878.893 819.227,878.114 822.192,877.336 825.156,876.559 828.12,875.782 831.085,875.005 834.049,874.228 837.013,873.452 839.978,872.676 842.942,871.9 845.906,871.125 848.871,870.35 851.835,869.576 854.799,868.802 857.764,868.028 860.728,867.255 863.692,866.482 866.657,865.709 869.621,864.937 872.585,864.165 875.55,863.393 878.514,862.622 881.478,861.851 884.443,861.08 887.407,860.31 890.371,859.54 893.336,858.77 896.3,858.001 899.264,857.232 902.229,856.464 905.193,855.695 908.157,854.928 911.122,854.16 914.086,853.393 917.05,852.626 920.015,851.86 922.979,851.093 925.943,850.328 928.908,849.562 931.872,848.797 934.836,848.032 937.801,847.268 940.765,846.504 943.729,845.74 946.694,844.977 949.658,844.214 952.622,843.451 955.587,842.689 958.551,841.927 961.515,841.165 964.48,840.404 967.444,839.643 970.409,838.882 973.373,838.122 976.337,837.362 979.302,836.602 982.266,835.843 985.23,835.084 988.195,834.325 991.159,833.567 994.123,832.809 997.088,832.051 1000.05,831.294 1003.02,830.537 1005.98,829.781 1008.94,829.024 1011.91,828.268 1014.87,827.513 1017.84,826.758 1020.8,826.003 1023.77,825.248 1026.73,824.494 1029.7,823.74 1032.66,822.986 1035.62,822.233 1038.59,821.48 1041.55,820.727 1044.52,819.975 1047.48,819.223 1050.45,818.472 1053.41,817.72 1056.37,816.969 1059.34,816.219 1062.3,815.468 1065.27,814.718 1068.23,813.969 1071.2,813.22 1074.16,812.471 1077.12,811.722 1080.09,810.974 1083.05,810.226 1086.02,809.478 1088.98,808.731 1091.95,807.984 1094.91,807.237 1097.88,806.491 1100.84,805.745 1103.8,804.999 1106.77,804.254 1109.73,803.508 1112.7,802.764 1115.66,802.019 1118.63,801.275 1121.59,800.532 1124.55,799.788 1127.52,799.045 1130.48,798.302 1133.45,797.56 1136.41,796.818 1139.38,796.076 1142.34,795.334 1145.3,794.593 1148.27,793.852 1151.23,793.112 1154.2,792.372 1157.16,791.632 1160.13,790.892 1163.09,790.153 1166.05,789.414 1169.02,788.675 1171.98,787.937 1174.95,787.199 1177.91,786.462 1180.88,785.724 1183.84,784.987 1186.81,784.251 1189.77,783.514 1192.73,782.778 1195.7,782.042 1198.66,781.307 1201.63,780.572 1204.59,779.837 1207.56,779.103 1210.52,778.369 1213.48,777.635 1216.45,776.901 1219.41,776.168 1222.38,775.435 1225.34,774.703 1228.31,773.97 1231.27,773.238 1234.23,772.507 1237.2,771.775 1240.16,771.044 1243.13,770.314 1246.09,769.583 1249.06,768.853 1252.02,768.124 1254.99,767.394 1257.95,766.665 1260.91,765.936 1263.88,765.208 1266.84,764.479 1269.81,763.752 1272.77,763.024 1275.74,762.297 1278.7,761.57 1281.66,760.843 1284.63,760.117 1287.59,759.391 1290.56,758.665 1293.52,757.94 1296.49,757.215 1299.45,756.49 1302.41,755.765 1305.38,755.041 1308.34,754.317 1311.31,753.594 1314.27,752.87 1317.24,752.147 1320.2,751.425 1323.16,750.702 1326.13,749.98 1329.09,749.259 1332.06,748.537 1335.02,747.816 1337.99,747.095 1340.95,746.375 1343.92,745.655 1346.88,744.935 1349.84,744.215 1352.81,743.496 1355.77,742.777 1358.74,742.058 1361.7,741.34 1364.67,740.622 1367.63,739.904 1370.59,739.186 1373.56,738.469 1376.52,737.752 1379.49,737.036 1382.45,736.319 1385.42,735.603 1388.38,734.888 1391.34,734.172 1394.31,733.457 1397.27,732.743 1400.24,732.028 1403.2,731.314 1406.17,730.6 1409.13,729.886 1412.1,729.173 1415.06,728.46 1418.02,727.748 1420.99,727.035 1423.95,726.323 1426.92,725.611 1429.88,724.9 1432.85,724.189 1435.81,723.478 1438.77,722.767 1441.74,722.057 1444.7,721.347 1447.67,720.637 1450.63,719.928 1453.6,719.218 1456.56,718.51 1459.52,717.801 1462.49,717.093 1465.45,716.385 1468.42,715.677 1471.38,714.97 1474.35,714.263 1477.31,713.556 1480.27,712.849 1483.24,712.143 1486.2,711.437 1489.17,710.732 1492.13,710.026 1495.1,709.321 1498.06,708.617 1501.03,707.912 1503.99,707.208 1506.95,706.504 1509.92,705.801 1512.88,705.097 1515.85,704.394 1518.81,703.692 1521.78,702.989 1524.74,702.287 1527.7,701.585 1530.67,700.884 1533.63,700.182 1536.6,699.481 1539.56,698.781 1542.53,698.08 1545.49,697.38 1548.45,696.68 1551.42,695.981 1554.38,695.282 1557.35,694.583 1560.31,693.884 1563.28,693.185 1566.24,692.487 1569.21,691.79 1572.17,691.092 1575.13,690.395 1578.1,689.698 1581.06,689.001 1584.03,688.305 1586.99,687.609 1589.96,686.913 1592.92,686.217 1595.88,685.522 1598.85,684.827 1601.81,684.132 1604.78,683.438 1607.74,682.744 1610.71,682.05 1613.67,681.356 1616.63,680.663 1619.6,679.97 1622.56,679.277 1625.53,678.585 1628.49,677.893 1631.46,677.201 1634.42,676.509 1637.38,675.818 1640.35,675.127 1643.31,674.436 1646.28,673.745 1649.24,673.055 1652.21,672.365 1655.17,671.676 1658.14,670.986 1661.1,670.297 1664.06,669.608 1667.03,668.92 1669.99,668.232 1672.96,667.544 1675.92,666.856 1678.89,666.168 1681.85,665.481 1684.81,664.794 1687.78,664.108 1690.74,663.422 1693.71,662.735 1696.67,662.05 1699.64,661.364 1702.6,660.679 1705.56,659.994 1708.53,659.309 1711.49,658.625 1714.46,657.941 1717.42,657.257 1720.39,656.573 1723.35,655.89 1726.32,655.207 1729.28,654.524 1732.24,653.842 1735.21,653.16 1738.17,652.478 1741.14,651.796 1744.1,651.115 1747.07,650.434 1750.03,649.753 1752.99,649.072 1755.96,648.392 1758.92,647.712 1761.89,647.032 1764.85,646.353 1767.82,645.673 1770.78,644.994 1773.74,644.316 1776.71,643.637 1779.67,642.959 1782.64,642.281 1785.6,641.604 1788.57,640.926 1791.53,640.249 1794.5,639.572 1797.46,638.896 1800.42,638.22 1803.39,637.544 1806.35,636.868 1809.32,636.193 1812.28,635.517 1815.25,634.842 1818.21,634.168 1821.17,633.493 1824.14,632.819 1827.1,632.145 1830.07,631.472 1833.03,630.798 1836,630.125 1838.96,629.453 1841.92,628.78 1844.89,628.108 1847.85,627.436 1850.82,626.764 1853.78,626.093 1856.75,625.421 1859.71,624.75 1862.67,624.08 1865.64,623.409 1868.6,622.739 1871.57,622.069 1874.53,621.4 1877.5,620.73 1880.46,620.061 1883.43,619.392 1886.39,618.724 1889.35,618.055 1892.32,617.387 1895.28,616.72 1898.25,616.052 1901.21,615.385 1904.18,614.718 1907.14,614.051 1910.1,613.385 1913.07,612.718 1916.03,612.052 1919,611.387 1921.96,610.721 1924.93,610.056 1927.89,609.391 1930.85,608.726 1933.82,608.062 1936.78,607.398 1939.75,606.734 1942.71,606.07 1945.68,605.407 1948.64,604.744 1951.61,604.081 1954.57,603.418 1957.53,602.756 1960.5,602.094 1963.46,601.432 1966.43,600.77 1969.39,600.109 1972.36,599.448 1975.32,598.787 1978.28,598.127 1981.25,597.466 1984.21,596.806 1987.18,596.146 1990.14,595.487 1993.11,594.828 1996.07,594.169 1999.03,593.51 2002,592.851 2004.96,592.193 2007.93,591.535 2010.89,590.877 2013.86,590.22 2016.82,589.563 2019.78,588.906 2022.75,588.249 2025.71,587.592 2028.68,586.936 2031.64,586.28 2034.61,585.624 2037.57,584.969 2040.54,584.314 2043.5,583.659 2046.46,583.004 2049.43,582.349 2052.39,581.695 2055.36,581.041 2058.32,580.387 2061.29,579.734 2064.25,579.081 2067.21,578.428 2070.18,577.775 2073.14,577.123 2076.11,576.47 2079.07,575.818 2082.04,575.167 2085,574.515 2087.96,573.864 2090.93,573.213 2093.89,572.562 2096.86,571.912 2099.82,571.261 2102.79,570.611 2105.75,569.962 2108.72,569.312 2111.68,568.663 2114.64,568.014 2117.61,567.365 2120.57,566.717 2123.54,566.068 2126.5,565.42 2129.47,564.773 2132.43,564.125 2135.39,563.478 2138.36,562.831 2141.32,562.184 2144.29,561.537 2147.25,560.891 2150.22,560.245 2153.18,559.599 2156.14,558.954 2159.11,558.308 2162.07,557.663 2165.04,557.018 2168,556.374 2170.97,555.729 2173.93,555.085 2176.89,554.441 2179.86,553.798 2182.82,553.154 2185.79,552.511 2188.75,551.868 2191.72,551.226 2194.68,550.583 2197.65,549.941 2200.61,549.299 2203.57,548.658 2206.54,548.016 2209.5,547.375 2212.47,546.734 2215.43,546.093 2218.4,545.453 2221.36,544.812 2224.32,544.172 2227.29,543.533 2230.25,542.893 2233.22,542.254 2236.18,541.615 2239.15,540.976 2242.11,540.337 2245.07,539.699 2248.04,539.061 2251,538.423 2253.97,537.786 2256.93,537.148 2259.9,536.511 2262.86,535.874 2265.83,535.237 2268.79,534.601 2271.75,533.965 2274.72,533.329 2277.68,532.693 2280.65,532.058 2283.61,531.422 2286.58,530.787 2289.54,530.153 2292.5,529.518 2295.47,528.884 2298.43,528.25 2301.4,527.616 2304.36,526.982 2307.33,526.349 2310.29,525.716 2313.25,525.083 2316.22,524.45 2319.18,523.818 2322.15,523.186 2325.11,522.554 2328.08,521.922 2331.04,521.291 2334,520.659 2336.97,520.028 2339.93,519.398 2342.9,518.767 2345.86,518.137 2348.83,517.507 2351.79,516.877 2354.76,516.247 2357.72,515.618 2360.68,514.989 2363.65,514.36 2366.61,513.731 2369.58,513.102 2372.54,512.474 2375.51,511.846 2378.47,511.218 2381.43,510.591 2384.4,509.964 2387.36,509.337 2390.33,508.71 2393.29,508.083 2396.26,507.457 2399.22,506.831 2402.18,506.205 2405.15,505.579 2408.11,504.953 2411.08,504.328 2414.04,503.703 2417.01,503.078 2419.97,502.454 2422.94,501.83 2425.9,501.205 2428.86,500.582 2431.83,499.958 2434.79,499.335 2437.76,498.711 2440.72,498.088 2443.69,497.466 2446.65,496.843 2449.61,496.221 2452.58,495.599 2455.54,494.977 2458.51,494.355 2461.47,493.734 2464.44,493.113 2467.4,492.492 2470.36,491.871 2473.33,491.251 2476.29,490.631 2479.26,490.011 2482.22,489.391 2485.19,488.771 2488.15,488.152 2491.11,487.533 2494.08,486.914 2497.04,486.295 2500.01,485.677 2502.97,485.058 2505.94,484.44 2508.9,483.823 2511.87,483.205 2514.83,482.588 2517.79,481.971 2520.76,481.354 2523.72,480.737 2526.69,480.121 2529.65,479.505 2532.62,478.889 2535.58,478.273 2538.54,477.657 2541.51,477.042 2544.47,476.427 2547.44,475.812 2550.4,475.197 2553.37,474.583 2556.33,473.969 2559.29,473.355 2562.26,472.741 2565.22,472.127 2568.19,471.514 2571.15,470.901 2574.12,470.288 2577.08,469.675 2580.05,469.063 2583.01,468.451 2585.97,467.839 2588.94,467.227 2591.9,466.615 2594.87,466.004 2597.83,465.393 2600.8,464.782 2603.76,464.171 2606.72,463.561 2609.69,462.95 2612.65,462.34 2615.62,461.73 2618.58,461.121 2621.55,460.511 2624.51,459.902 2627.47,459.293 2630.44,458.685 2633.4,458.076 2636.37,457.468 2639.33,456.86 2642.3,456.252 2645.26,455.644 2648.22,455.037 2651.19,454.429 2654.15,453.822 2657.12,453.216 2660.08,452.609 2663.05,452.003 2666.01,451.396 2668.98,450.791 2671.94,450.185 2674.9,449.579 2677.87,448.974 2680.83,448.369 2683.8,447.764 2686.76,447.159 2689.73,446.555 2692.69,445.951 2695.65,445.347 2698.62,444.743 2701.58,444.139 2704.55,443.536 2707.51,442.933 2710.48,442.33 2713.44,441.727 2716.4,441.125 2719.37,440.522 2722.33,439.92 2725.3,439.318 2728.26,438.717 2731.23,438.115 2734.19,437.514 2737.16,436.913 2740.12,436.312 2743.08,435.712 2746.05,435.111 2749.01,434.511 2751.98,433.911 2754.94,433.311 2757.91,432.712 2760.87,432.112 2763.83,431.513 2766.8,430.914 2769.76,430.316 2772.73,429.717 2775.69,429.119 2778.66,428.521 2781.62,427.923 2784.58,427.325 2787.55,426.728 2790.51,426.13 2793.48,425.533 2796.44,424.937 2799.41,424.34 2802.37,423.744 2805.33,423.147 2808.3,422.551 2811.26,421.956 2814.23,421.36 2817.19,420.765 2820.16,420.169 2823.12,419.575 2826.09,418.98 2829.05,418.385 2832.01,417.791 2834.98,417.197 2837.94,416.603 2840.91,416.009 2843.87,415.416 2846.84,414.822 2849.8,414.229 2852.76,413.636 2855.73,413.044 2858.69,412.451 2861.66,411.859 2864.62,411.267 2867.59,410.675 2870.55,410.083 2873.51,409.492 2876.48,408.901 2879.44,408.31 2882.41,407.719 2885.37,407.128 2888.34,406.538 2891.3,405.947 2894.27,405.357 2897.23,404.768 2900.19,404.178 2903.16,403.589 2906.12,402.999 2909.09,402.41 2912.05,401.822 2915.02,401.233 2917.98,400.645 2920.94,400.056 2923.91,399.468 2926.87,398.881 2929.84,398.293 2932.8,397.706 2935.77,397.118 2938.73,396.531 2941.69,395.945 2944.66,395.358 2947.62,394.772 2950.59,394.185 2953.55,393.6 2956.52,393.014 2959.48,392.428 2962.44,391.843 2965.41,391.258 2968.37,390.673 2971.34,390.088 2974.3,389.503 2977.27,388.919 2980.23,388.335 2983.2,387.751 2986.16,387.167 2989.12,386.583 2992.09,386 2995.05,385.417 2998.02,384.834 3000.98,384.251 3003.95,383.669 3006.91,383.086 3009.87,382.504 3012.84,381.922 3015.8,381.34 3018.77,380.759 3021.73,380.177 3024.7,379.596 3027.66,379.015 3030.62,378.434 3033.59,377.854 3036.55,377.273 3039.52,376.693 3042.48,376.113 3045.45,375.533 3048.41,374.954 3051.38,374.374 3054.34,373.795 3057.3,373.216 3060.27,372.637 3063.23,372.059 3066.2,371.48 3069.16,370.902 3072.13,370.324 3075.09,369.746 3078.05,369.168 3081.02,368.591 3083.98,368.014 3086.95,367.437 3089.91,366.86 3092.88,366.283 3095.84,365.707 3098.8,365.13 3101.77,364.554 3104.73,363.978 3107.7,363.403 3110.66,362.827 3113.63,362.252 3116.59,361.677 3119.55,361.102 3122.52,360.527 3125.48,359.952 3128.45,359.378 3131.41,358.804 3134.38,358.23 3137.34,357.656 3140.31,357.083 3143.27,356.509 3146.23,355.936 3149.2,355.363 3152.16,354.79 3155.13,354.218 3158.09,353.645 3161.06,353.073 3164.02,352.501 3166.98,351.929 3169.95,351.358 3172.91,350.786 3175.88,350.215 3178.84,349.644 3181.81,349.073 3184.77,348.502 3187.73,347.932 3190.7,347.361 3193.66,346.791 3196.63,346.221 3199.59,345.651 3202.56,345.082 3205.52,344.513 3208.49,343.943 3211.45,343.374 3214.41,342.806 3217.38,342.237 3220.34,341.669 3223.31,341.1 3226.27,340.532 3229.24,339.964 3232.2,339.397 3235.16,338.829 3238.13,338.262 3241.09,337.695 3244.06,337.128 3247.02,336.561 3249.99,335.995 3252.95,335.428 3255.91,334.862 "/>
<polyline clip-path="url(#clip812)" style="stroke:#ff0000; stroke-linecap:round; stroke-linejoin:round; stroke-width:8.00282; stroke-opacity:1; fill:none" points="294.539,984.093 297.503,983.265 300.468,982.438 303.432,981.611 306.396,980.784 309.361,979.958 312.325,979.132 315.289,978.306 318.254,977.481 321.218,976.657 324.182,975.832 327.147,975.009 330.111,974.185 333.075,973.362 336.04,972.539 339.004,971.717 341.968,970.895 344.933,970.074 347.897,969.253 350.861,968.432 353.826,967.612 356.79,966.792 359.754,965.972 362.719,965.153 365.683,964.335 368.647,963.516 371.612,962.698 374.576,961.881 377.541,961.064 380.505,960.247 383.469,959.431 386.434,958.615 389.398,957.799 392.362,956.984 395.327,956.169 398.291,955.355 401.255,954.541 404.22,953.727 407.184,952.914 410.148,952.101 413.113,951.288 416.077,950.476 419.041,949.665 422.006,948.853 424.97,948.042 427.934,947.232 430.899,946.422 433.863,945.612 436.827,944.803 439.792,943.994 442.756,943.185 445.72,942.377 448.685,941.569 451.649,940.761 454.613,939.954 457.578,939.148 460.542,938.341 463.506,937.535 466.471,936.73 469.435,935.925 472.399,935.12 475.364,934.315 478.328,933.511 481.292,932.708 484.257,931.904 487.221,931.101 490.185,930.299 493.15,929.497 496.114,928.695 499.078,927.894 502.043,927.093 505.007,926.292 507.971,925.492 510.936,924.692 513.9,923.892 516.864,923.093 519.829,922.294 522.793,921.496 525.758,920.698 528.722,919.9 531.686,919.103 534.651,918.306 537.615,917.51 540.579,916.713 543.544,915.918 546.508,915.122 549.472,914.327 552.437,913.532 555.401,912.738 558.365,911.944 561.33,911.151 564.294,910.357 567.258,909.565 570.223,908.772 573.187,907.98 576.151,907.188 579.116,906.397 582.08,905.606 585.044,904.815 588.009,904.025 590.973,903.235 593.937,902.446 596.902,901.656 599.866,900.868 602.83,900.079 605.795,899.291 608.759,898.503 611.723,897.716 614.688,896.929 617.652,896.142 620.616,895.356 623.581,894.57 626.545,893.785 629.509,893 632.474,892.215 635.438,891.43 638.402,890.646 641.367,889.862 644.331,889.079 647.295,888.296 650.26,887.513 653.224,886.731 656.188,885.949 659.153,885.168 662.117,884.386 665.081,883.606 668.046,882.825 671.01,882.045 673.975,881.265 676.939,880.486 679.903,879.707 682.868,878.928 685.832,878.149 688.796,877.371 691.761,876.594 694.725,875.817 697.689,875.04 700.654,874.263 703.618,873.487 706.582,872.711 709.547,871.935 712.511,871.16 715.475,870.385 718.44,869.611 721.404,868.837 724.368,868.063 727.333,867.289 730.297,866.516 733.261,865.744 736.226,864.971 739.19,864.199 742.154,863.428 745.119,862.656 748.083,861.885 751.047,861.115 754.012,860.344 756.976,859.574 759.94,858.805 762.905,858.036 765.869,857.267 768.833,856.498 771.798,855.73 774.762,854.962 777.726,854.195 780.691,853.427 783.655,852.661 786.619,851.894 789.584,851.128 792.548,850.362 795.512,849.597 798.477,848.832 801.441,848.067 804.405,847.302 807.37,846.538 810.334,845.775 813.298,845.011 816.263,844.248 819.227,843.485 822.192,842.723 825.156,841.961 828.12,841.199 831.085,840.438 834.049,839.677 837.013,838.916 839.978,838.156 842.942,837.396 845.906,836.636 848.871,835.877 851.835,835.118 854.799,834.359 857.764,833.601 860.728,832.843 863.692,832.086 866.657,831.328 869.621,830.571 872.585,829.815 875.55,829.058 878.514,828.302 881.478,827.547 884.443,826.792 887.407,826.037 890.371,825.282 893.336,824.528 896.3,823.774 899.264,823.02 902.229,822.267 905.193,821.514 908.157,820.761 911.122,820.009 914.086,819.257 917.05,818.505 920.015,817.754 922.979,817.003 925.943,816.252 928.908,815.502 931.872,814.752 934.836,814.003 937.801,813.253 940.765,812.504 943.729,811.756 946.694,811.007 949.658,810.259 952.622,809.512 955.587,808.764 958.551,808.017 961.515,807.271 964.48,806.524 967.444,805.778 970.409,805.032 973.373,804.287 976.337,803.542 979.302,802.797 982.266,802.053 985.23,801.309 988.195,800.565 991.159,799.822 994.123,799.078 997.088,798.336 1000.05,797.593 1003.02,796.851 1005.98,796.109 1008.94,795.368 1011.91,794.627 1014.87,793.886 1017.84,793.145 1020.8,792.405 1023.77,791.665 1026.73,790.926 1029.7,790.186 1032.66,789.447 1035.62,788.709 1038.59,787.97 1041.55,787.232 1044.52,786.495 1047.48,785.757 1050.45,785.02 1053.41,784.284 1056.37,783.547 1059.34,782.811 1062.3,782.076 1065.27,781.34 1068.23,780.605 1071.2,779.87 1074.16,779.136 1077.12,778.402 1080.09,777.668 1083.05,776.934 1086.02,776.201 1088.98,775.468 1091.95,774.736 1094.91,774.003 1097.88,773.271 1100.84,772.54 1103.8,771.808 1106.77,771.077 1109.73,770.347 1112.7,769.616 1115.66,768.886 1118.63,768.156 1121.59,767.427 1124.55,766.698 1127.52,765.969 1130.48,765.24 1133.45,764.512 1136.41,763.784 1139.38,763.057 1142.34,762.329 1145.3,761.602 1148.27,760.876 1151.23,760.149 1154.2,759.423 1157.16,758.698 1160.13,757.972 1163.09,757.247 1166.05,756.522 1169.02,755.798 1171.98,755.074 1174.95,754.35 1177.91,753.626 1180.88,752.903 1183.84,752.18 1186.81,751.457 1189.77,750.735 1192.73,750.013 1195.7,749.291 1198.66,748.57 1201.63,747.849 1204.59,747.128 1207.56,746.407 1210.52,745.687 1213.48,744.967 1216.45,744.247 1219.41,743.528 1222.38,742.809 1225.34,742.09 1228.31,741.372 1231.27,740.654 1234.23,739.936 1237.2,739.219 1240.16,738.501 1243.13,737.785 1246.09,737.068 1249.06,736.352 1252.02,735.636 1254.99,734.92 1257.95,734.205 1260.91,733.49 1263.88,732.775 1266.84,732.06 1269.81,731.346 1272.77,730.632 1275.74,729.919 1278.7,729.205 1281.66,728.492 1284.63,727.78 1287.59,727.067 1290.56,726.355 1293.52,725.643 1296.49,724.932 1299.45,724.221 1302.41,723.51 1305.38,722.799 1308.34,722.089 1311.31,721.379 1314.27,720.669 1317.24,719.959 1320.2,719.25 1323.16,718.541 1326.13,717.833 1329.09,717.125 1332.06,716.417 1335.02,715.709 1337.99,715.002 1340.95,714.295 1343.92,713.588 1346.88,712.881 1349.84,712.175 1352.81,711.469 1355.77,710.763 1358.74,710.058 1361.7,709.353 1364.67,708.648 1367.63,707.944 1370.59,707.24 1373.56,706.536 1376.52,705.832 1379.49,705.129 1382.45,704.426 1385.42,703.723 1388.38,703.021 1391.34,702.319 1394.31,701.617 1397.27,700.915 1400.24,700.214 1403.2,699.513 1406.17,698.812 1409.13,698.112 1412.1,697.412 1415.06,696.712 1418.02,696.012 1420.99,695.313 1423.95,694.614 1426.92,693.915 1429.88,693.217 1432.85,692.519 1435.81,691.821 1438.77,691.123 1441.74,690.426 1444.7,689.729 1447.67,689.032 1450.63,688.336 1453.6,687.64 1456.56,686.944 1459.52,686.248 1462.49,685.553 1465.45,684.858 1468.42,684.163 1471.38,683.469 1474.35,682.775 1477.31,682.081 1480.27,681.387 1483.24,680.694 1486.2,680.001 1489.17,679.308 1492.13,678.616 1495.1,677.924 1498.06,677.232 1501.03,676.54 1503.99,675.849 1506.95,675.158 1509.92,674.467 1512.88,673.777 1515.85,673.086 1518.81,672.396 1521.78,671.707 1524.74,671.017 1527.7,670.328 1530.67,669.639 1533.63,668.951 1536.6,668.263 1539.56,667.575 1542.53,666.887 1545.49,666.199 1548.45,665.512 1551.42,664.825 1554.38,664.139 1557.35,663.452 1560.31,662.766 1563.28,662.081 1566.24,661.395 1569.21,660.71 1572.17,660.025 1575.13,659.34 1578.1,658.656 1581.06,657.972 1584.03,657.288 1586.99,656.604 1589.96,655.921 1592.92,655.238 1595.88,654.555 1598.85,653.873 1601.81,653.19 1604.78,652.508 1607.74,651.827 1610.71,651.145 1613.67,650.464 1616.63,649.783 1619.6,649.103 1622.56,648.422 1625.53,647.742 1628.49,647.063 1631.46,646.383 1634.42,645.704 1637.38,645.025 1640.35,644.346 1643.31,643.668 1646.28,642.99 1649.24,642.312 1652.21,641.634 1655.17,640.957 1658.14,640.28 1661.1,639.603 1664.06,638.926 1667.03,638.25 1669.99,637.574 1672.96,636.898 1675.92,636.223 1678.89,635.548 1681.85,634.873 1684.81,634.198 1687.78,633.524 1690.74,632.85 1693.71,632.176 1696.67,631.502 1699.64,630.829 1702.6,630.156 1705.56,629.483 1708.53,628.81 1711.49,628.138 1714.46,627.466 1717.42,626.794 1720.39,626.123 1723.35,625.452 1726.32,624.781 1729.28,624.11 1732.24,623.44 1735.21,622.769 1738.17,622.099 1741.14,621.43 1744.1,620.76 1747.07,620.091 1750.03,619.422 1752.99,618.754 1755.96,618.086 1758.92,617.417 1761.89,616.75 1764.85,616.082 1767.82,615.415 1770.78,614.748 1773.74,614.081 1776.71,613.415 1779.67,612.748 1782.64,612.082 1785.6,611.417 1788.57,610.751 1791.53,610.086 1794.5,609.421 1797.46,608.756 1800.42,608.092 1803.39,607.428 1806.35,606.764 1809.32,606.1 1812.28,605.437 1815.25,604.774 1818.21,604.111 1821.17,603.448 1824.14,602.786 1827.1,602.124 1830.07,601.462 1833.03,600.8 1836,600.139 1838.96,599.478 1841.92,598.817 1844.89,598.156 1847.85,597.496 1850.82,596.836 1853.78,596.176 1856.75,595.517 1859.71,594.857 1862.67,594.198 1865.64,593.539 1868.6,592.881 1871.57,592.223 1874.53,591.565 1877.5,590.907 1880.46,590.249 1883.43,589.592 1886.39,588.935 1889.35,588.278 1892.32,587.622 1895.28,586.966 1898.25,586.31 1901.21,585.654 1904.18,584.998 1907.14,584.343 1910.1,583.688 1913.07,583.033 1916.03,582.379 1919,581.725 1921.96,581.071 1924.93,580.417 1927.89,579.763 1930.85,579.11 1933.82,578.457 1936.78,577.804 1939.75,577.152 1942.71,576.5 1945.68,575.848 1948.64,575.196 1951.61,574.544 1954.57,573.893 1957.53,573.242 1960.5,572.591 1963.46,571.941 1966.43,571.291 1969.39,570.641 1972.36,569.991 1975.32,569.341 1978.28,568.692 1981.25,568.043 1984.21,567.394 1987.18,566.746 1990.14,566.098 1993.11,565.45 1996.07,564.802 1999.03,564.154 2002,563.507 2004.96,562.86 2007.93,562.213 2010.89,561.566 2013.86,560.92 2016.82,560.274 2019.78,559.628 2022.75,558.983 2025.71,558.337 2028.68,557.692 2031.64,557.047 2034.61,556.403 2037.57,555.758 2040.54,555.114 2043.5,554.47 2046.46,553.827 2049.43,553.183 2052.39,552.54 2055.36,551.897 2058.32,551.255 2061.29,550.612 2064.25,549.97 2067.21,549.328 2070.18,548.686 2073.14,548.045 2076.11,547.404 2079.07,546.763 2082.04,546.122 2085,545.482 2087.96,544.841 2090.93,544.201 2093.89,543.561 2096.86,542.922 2099.82,542.283 2102.79,541.644 2105.75,541.005 2108.72,540.366 2111.68,539.728 2114.64,539.09 2117.61,538.452 2120.57,537.814 2123.54,537.177 2126.5,536.54 2129.47,535.903 2132.43,535.266 2135.39,534.63 2138.36,533.993 2141.32,533.358 2144.29,532.722 2147.25,532.086 2150.22,531.451 2153.18,530.816 2156.14,530.181 2159.11,529.547 2162.07,528.912 2165.04,528.278 2168,527.644 2170.97,527.011 2173.93,526.377 2176.89,525.744 2179.86,525.111 2182.82,524.479 2185.79,523.846 2188.75,523.214 2191.72,522.582 2194.68,521.95 2197.65,521.319 2200.61,520.688 2203.57,520.057 2206.54,519.426 2209.5,518.795 2212.47,518.165 2215.43,517.535 2218.4,516.905 2221.36,516.275 2224.32,515.646 2227.29,515.017 2230.25,514.388 2233.22,513.759 2236.18,513.131 2239.15,512.503 2242.11,511.875 2245.07,511.247 2248.04,510.619 2251,509.992 2253.97,509.365 2256.93,508.738 2259.9,508.111 2262.86,507.485 2265.83,506.859 2268.79,506.233 2271.75,505.607 2274.72,504.982 2277.68,504.356 2280.65,503.731 2283.61,503.107 2286.58,502.482 2289.54,501.858 2292.5,501.234 2295.47,500.61 2298.43,499.986 2301.4,499.363 2304.36,498.739 2307.33,498.116 2310.29,497.494 2313.25,496.871 2316.22,496.249 2319.18,495.627 2322.15,495.005 2325.11,494.383 2328.08,493.762 2331.04,493.141 2334,492.52 2336.97,491.899 2339.93,491.279 2342.9,490.658 2345.86,490.038 2348.83,489.419 2351.79,488.799 2354.76,488.18 2357.72,487.561 2360.68,486.942 2363.65,486.323 2366.61,485.705 2369.58,485.086 2372.54,484.468 2375.51,483.851 2378.47,483.233 2381.43,482.616 2384.4,481.998 2387.36,481.382 2390.33,480.765 2393.29,480.148 2396.26,479.532 2399.22,478.916 2402.18,478.3 2405.15,477.685 2408.11,477.07 2411.08,476.454 2414.04,475.84 2417.01,475.225 2419.97,474.61 2422.94,473.996 2425.9,473.382 2428.86,472.768 2431.83,472.155 2434.79,471.542 2437.76,470.928 2440.72,470.315 2443.69,469.703 2446.65,469.09 2449.61,468.478 2452.58,467.866 2455.54,467.254 2458.51,466.643 2461.47,466.031 2464.44,465.42 2467.4,464.809 2470.36,464.199 2473.33,463.588 2476.29,462.978 2479.26,462.368 2482.22,461.758 2485.19,461.148 2488.15,460.539 2491.11,459.93 2494.08,459.321 2497.04,458.712 2500.01,458.103 2502.97,457.495 2505.94,456.887 2508.9,456.279 2511.87,455.671 2514.83,455.064 2517.79,454.457 2520.76,453.85 2523.72,453.243 2526.69,452.636 2529.65,452.03 2532.62,451.424 2535.58,450.818 2538.54,450.212 2541.51,449.607 2544.47,449.001 2547.44,448.396 2550.4,447.791 2553.37,447.187 2556.33,446.582 2559.29,445.978 2562.26,445.374 2565.22,444.77 2568.19,444.167 2571.15,443.563 2574.12,442.96 2577.08,442.357 2580.05,441.754 2583.01,441.152 2585.97,440.549 2588.94,439.947 2591.9,439.345 2594.87,438.744 2597.83,438.142 2600.8,437.541 2603.76,436.94 2606.72,436.339 2609.69,435.739 2612.65,435.138 2615.62,434.538 2618.58,433.938 2621.55,433.338 2624.51,432.739 2627.47,432.139 2630.44,431.54 2633.4,430.941 2636.37,430.343 2639.33,429.744 2642.3,429.146 2645.26,428.548 2648.22,427.95 2651.19,427.352 2654.15,426.755 2657.12,426.157 2660.08,425.56 2663.05,424.963 2666.01,424.367 2668.98,423.77 2671.94,423.174 2674.9,422.578 2677.87,421.982 2680.83,421.387 2683.8,420.791 2686.76,420.196 2689.73,419.601 2692.69,419.007 2695.65,418.412 2698.62,417.818 2701.58,417.224 2704.55,416.63 2707.51,416.036 2710.48,415.442 2713.44,414.849 2716.4,414.256 2719.37,413.663 2722.33,413.07 2725.3,412.478 2728.26,411.886 2731.23,411.293 2734.19,410.702 2737.16,410.11 2740.12,409.518 2743.08,408.927 2746.05,408.336 2749.01,407.745 2751.98,407.155 2754.94,406.564 2757.91,405.974 2760.87,405.384 2763.83,404.794 2766.8,404.204 2769.76,403.615 2772.73,403.026 2775.69,402.437 2778.66,401.848 2781.62,401.259 2784.58,400.671 2787.55,400.083 2790.51,399.495 2793.48,398.907 2796.44,398.319 2799.41,397.732 2802.37,397.145 2805.33,396.558 2808.3,395.971 2811.26,395.384 2814.23,394.798 2817.19,394.212 2820.16,393.626 2823.12,393.04 2826.09,392.455 2829.05,391.869 2832.01,391.284 2834.98,390.699 2837.94,390.114 2840.91,389.53 2843.87,388.945 2846.84,388.361 2849.8,387.777 2852.76,387.193 2855.73,386.61 2858.69,386.026 2861.66,385.443 2864.62,384.86 2867.59,384.277 2870.55,383.695 2873.51,383.112 2876.48,382.53 2879.44,381.948 2882.41,381.366 2885.37,380.785 2888.34,380.203 2891.3,379.622 2894.27,379.041 2897.23,378.46 2900.19,377.88 2903.16,377.299 2906.12,376.719 2909.09,376.139 2912.05,375.559 2915.02,374.98 2917.98,374.4 2920.94,373.821 2923.91,373.242 2926.87,372.663 2929.84,372.085 2932.8,371.506 2935.77,370.928 2938.73,370.35 2941.69,369.772 2944.66,369.194 2947.62,368.617 2950.59,368.04 2953.55,367.463 2956.52,366.886 2959.48,366.309 2962.44,365.733 2965.41,365.156 2968.37,364.58 2971.34,364.004 2974.3,363.429 2977.27,362.853 2980.23,362.278 2983.2,361.703 2986.16,361.128 2989.12,360.553 2992.09,359.978 2995.05,359.404 2998.02,358.83 3000.98,358.256 3003.95,357.682 3006.91,357.108 3009.87,356.535 3012.84,355.962 3015.8,355.389 3018.77,354.816 3021.73,354.243 3024.7,353.671 3027.66,353.099 3030.62,352.527 3033.59,351.955 3036.55,351.383 3039.52,350.812 3042.48,350.24 3045.45,349.669 3048.41,349.098 3051.38,348.528 3054.34,347.957 3057.3,347.387 3060.27,346.817 3063.23,346.247 3066.2,345.677 3069.16,345.108 3072.13,344.538 3075.09,343.969 3078.05,343.4 3081.02,342.831 3083.98,342.263 3086.95,341.694 3089.91,341.126 3092.88,340.558 3095.84,339.99 3098.8,339.422 3101.77,338.855 3104.73,338.287 3107.7,337.72 3110.66,337.153 3113.63,336.587 3116.59,336.02 3119.55,335.454 3122.52,334.888 3125.48,334.322 3128.45,333.756 3131.41,333.19 3134.38,332.625 3137.34,332.06 3140.31,331.495 3143.27,330.93 3146.23,330.365 3149.2,329.801 3152.16,329.236 3155.13,328.672 3158.09,328.108 3161.06,327.545 3164.02,326.981 3166.98,326.418 3169.95,325.854 3172.91,325.291 3175.88,324.729 3178.84,324.166 3181.81,323.604 3184.77,323.041 3187.73,322.479 3190.7,321.917 3193.66,321.356 3196.63,320.794 3199.59,320.233 3202.56,319.672 3205.52,319.111 3208.49,318.55 3211.45,317.989 3214.41,317.429 3217.38,316.869 3220.34,316.309 3223.31,315.749 3226.27,315.189 3229.24,314.63 3232.2,314.07 3235.16,313.511 3238.13,312.952 3241.09,312.393 3244.06,311.835 3247.02,311.277 3249.99,310.718 3252.95,310.16 3255.91,309.602 "/>
<polyline clip-path="url(#clip812)" style="stroke:#0000ff; stroke-linecap:round; stroke-linejoin:round; stroke-width:8.00282; stroke-opacity:1; fill:none" points="294.539,647.369 297.503,646.689 300.468,646.01 303.432,645.33 306.396,644.652 309.361,643.973 312.325,643.295 315.289,642.617 318.254,641.939 321.218,641.262 324.182,640.584 327.147,639.907 330.111,639.231 333.075,638.554 336.04,637.878 339.004,637.202 341.968,636.527 344.933,635.852 347.897,635.176 350.861,634.502 353.826,633.827 356.79,633.153 359.754,632.479 362.719,631.805 365.683,631.132 368.647,630.459 371.612,629.786 374.576,629.113 377.541,628.441 380.505,627.768 383.469,627.097 386.434,626.425 389.398,625.754 392.362,625.083 395.327,624.412 398.291,623.741 401.255,623.071 404.22,622.401 407.184,621.731 410.148,621.062 413.113,620.392 416.077,619.723 419.041,619.055 422.006,618.386 424.97,617.718 427.934,617.05 430.899,616.382 433.863,615.715 436.827,615.048 439.792,614.381 442.756,613.714 445.72,613.048 448.685,612.382 451.649,611.716 454.613,611.051 457.578,610.385 460.542,609.72 463.506,609.055 466.471,608.391 469.435,607.727 472.399,607.063 475.364,606.399 478.328,605.735 481.292,605.072 484.257,604.409 487.221,603.746 490.185,603.084 493.15,602.422 496.114,601.76 499.078,601.098 502.043,600.436 505.007,599.775 507.971,599.114 510.936,598.454 513.9,597.793 516.864,597.133 519.829,596.473 522.793,595.813 525.758,595.154 528.722,594.495 531.686,593.836 534.651,593.177 537.615,592.519 540.579,591.861 543.544,591.203 546.508,590.545 549.472,589.888 552.437,589.231 555.401,588.574 558.365,587.917 561.33,587.261 564.294,586.605 567.258,585.949 570.223,585.293 573.187,584.638 576.151,583.983 579.116,583.328 582.08,582.673 585.044,582.019 588.009,581.365 590.973,580.711 593.937,580.057 596.902,579.404 599.866,578.751 602.83,578.098 605.795,577.445 608.759,576.793 611.723,576.141 614.688,575.489 617.652,574.838 620.616,574.186 623.581,573.535 626.545,572.884 629.509,572.234 632.474,571.583 635.438,570.933 638.402,570.283 641.367,569.634 644.331,568.984 647.295,568.335 650.26,567.686 653.224,567.038 656.188,566.389 659.153,565.741 662.117,565.093 665.081,564.446 668.046,563.798 671.01,563.151 673.975,562.504 676.939,561.857 679.903,561.211 682.868,560.565 685.832,559.919 688.796,559.273 691.761,558.628 694.725,557.982 697.689,557.338 700.654,556.693 703.618,556.048 706.582,555.404 709.547,554.76 712.511,554.116 715.475,553.473 718.44,552.83 721.404,552.187 724.368,551.544 727.333,550.901 730.297,550.259 733.261,549.617 736.226,548.975 739.19,548.334 742.154,547.692 745.119,547.051 748.083,546.41 751.047,545.77 754.012,545.129 756.976,544.489 759.94,543.849 762.905,543.21 765.869,542.57 768.833,541.931 771.798,541.292 774.762,540.653 777.726,540.015 780.691,539.377 783.655,538.739 786.619,538.101 789.584,537.464 792.548,536.826 795.512,536.189 798.477,535.553 801.441,534.916 804.405,534.28 807.37,533.644 810.334,533.008 813.298,532.372 816.263,531.737 819.227,531.102 822.192,530.467 825.156,529.832 828.12,529.198 831.085,528.564 834.049,527.93 837.013,527.296 839.978,526.662 842.942,526.029 845.906,525.396 848.871,524.763 851.835,524.131 854.799,523.499 857.764,522.867 860.728,522.235 863.692,521.603 866.657,520.972 869.621,520.341 872.585,519.71 875.55,519.079 878.514,518.449 881.478,517.818 884.443,517.188 887.407,516.559 890.371,515.929 893.336,515.3 896.3,514.671 899.264,514.042 902.229,513.414 905.193,512.785 908.157,512.157 911.122,511.529 914.086,510.902 917.05,510.274 920.015,509.647 922.979,509.02 925.943,508.393 928.908,507.767 931.872,507.14 934.836,506.514 937.801,505.889 940.765,505.263 943.729,504.638 946.694,504.013 949.658,503.388 952.622,502.763 955.587,502.139 958.551,501.514 961.515,500.89 964.48,500.267 967.444,499.643 970.409,499.02 973.373,498.397 976.337,497.774 979.302,497.151 982.266,496.529 985.23,495.907 988.195,495.285 991.159,494.663 994.123,494.042 997.088,493.42 1000.05,492.799 1003.02,492.178 1005.98,491.558 1008.94,490.938 1011.91,490.317 1014.87,489.698 1017.84,489.078 1020.8,488.458 1023.77,487.839 1026.73,487.22 1029.7,486.601 1032.66,485.983 1035.62,485.364 1038.59,484.746 1041.55,484.128 1044.52,483.511 1047.48,482.893 1050.45,482.276 1053.41,481.659 1056.37,481.042 1059.34,480.426 1062.3,479.81 1065.27,479.193 1068.23,478.578 1071.2,477.962 1074.16,477.346 1077.12,476.731 1080.09,476.116 1083.05,475.501 1086.02,474.887 1088.98,474.273 1091.95,473.659 1094.91,473.045 1097.88,472.431 1100.84,471.818 1103.8,471.204 1106.77,470.591 1109.73,469.978 1112.7,469.366 1115.66,468.754 1118.63,468.141 1121.59,467.53 1124.55,466.918 1127.52,466.306 1130.48,465.695 1133.45,465.084 1136.41,464.473 1139.38,463.863 1142.34,463.252 1145.3,462.642 1148.27,462.032 1151.23,461.423 1154.2,460.813 1157.16,460.204 1160.13,459.595 1163.09,458.986 1166.05,458.377 1169.02,457.769 1171.98,457.161 1174.95,456.553 1177.91,455.945 1180.88,455.337 1183.84,454.73 1186.81,454.123 1189.77,453.516 1192.73,452.909 1195.7,452.303 1198.66,451.696 1201.63,451.09 1204.59,450.485 1207.56,449.879 1210.52,449.274 1213.48,448.668 1216.45,448.063 1219.41,447.459 1222.38,446.854 1225.34,446.25 1228.31,445.646 1231.27,445.042 1234.23,444.438 1237.2,443.835 1240.16,443.231 1243.13,442.628 1246.09,442.026 1249.06,441.423 1252.02,440.82 1254.99,440.218 1257.95,439.616 1260.91,439.015 1263.88,438.413 1266.84,437.812 1269.81,437.21 1272.77,436.61 1275.74,436.009 1278.7,435.408 1281.66,434.808 1284.63,434.208 1287.59,433.608 1290.56,433.008 1293.52,432.409 1296.49,431.81 1299.45,431.211 1302.41,430.612 1305.38,430.013 1308.34,429.415 1311.31,428.817 1314.27,428.219 1317.24,427.621 1320.2,427.023 1323.16,426.426 1326.13,425.829 1329.09,425.232 1332.06,424.635 1335.02,424.039 1337.99,423.442 1340.95,422.846 1343.92,422.25 1346.88,421.655 1349.84,421.059 1352.81,420.464 1355.77,419.869 1358.74,419.274 1361.7,418.68 1364.67,418.085 1367.63,417.491 1370.59,416.897 1373.56,416.303 1376.52,415.709 1379.49,415.116 1382.45,414.523 1385.42,413.93 1388.38,413.337 1391.34,412.744 1394.31,412.152 1397.27,411.56 1400.24,410.968 1403.2,410.376 1406.17,409.785 1409.13,409.193 1412.1,408.602 1415.06,408.011 1418.02,407.42 1420.99,406.83 1423.95,406.24 1426.92,405.649 1429.88,405.06 1432.85,404.47 1435.81,403.88 1438.77,403.291 1441.74,402.702 1444.7,402.113 1447.67,401.524 1450.63,400.936 1453.6,400.347 1456.56,399.759 1459.52,399.171 1462.49,398.584 1465.45,397.996 1468.42,397.409 1471.38,396.822 1474.35,396.235 1477.31,395.648 1480.27,395.062 1483.24,394.476 1486.2,393.89 1489.17,393.304 1492.13,392.718 1495.1,392.133 1498.06,391.547 1501.03,390.962 1503.99,390.377 1506.95,389.793 1509.92,389.208 1512.88,388.624 1515.85,388.04 1518.81,387.456 1521.78,386.872 1524.74,386.289 1527.7,385.706 1530.67,385.122 1533.63,384.54 1536.6,383.957 1539.56,383.374 1542.53,382.792 1545.49,382.21 1548.45,381.628 1551.42,381.047 1554.38,380.465 1557.35,379.884 1560.31,379.303 1563.28,378.722 1566.24,378.141 1569.21,377.561 1572.17,376.98 1575.13,376.4 1578.1,375.82 1581.06,375.241 1584.03,374.661 1586.99,374.082 1589.96,373.503 1592.92,372.924 1595.88,372.345 1598.85,371.766 1601.81,371.188 1604.78,370.61 1607.74,370.032 1610.71,369.454 1613.67,368.877 1616.63,368.299 1619.6,367.722 1622.56,367.145 1625.53,366.569 1628.49,365.992 1631.46,365.416 1634.42,364.839 1637.38,364.263 1640.35,363.688 1643.31,363.112 1646.28,362.537 1649.24,361.961 1652.21,361.386 1655.17,360.812 1658.14,360.237 1661.1,359.662 1664.06,359.088 1667.03,358.514 1669.99,357.94 1672.96,357.367 1675.92,356.793 1678.89,356.22 1681.85,355.647 1684.81,355.074 1687.78,354.501 1690.74,353.929 1693.71,353.356 1696.67,352.784 1699.64,352.212 1702.6,351.64 1705.56,351.069 1708.53,350.498 1711.49,349.926 1714.46,349.355 1717.42,348.785 1720.39,348.214 1723.35,347.644 1726.32,347.073 1729.28,346.503 1732.24,345.933 1735.21,345.364 1738.17,344.794 1741.14,344.225 1744.1,343.656 1747.07,343.087 1750.03,342.518 1752.99,341.95 1755.96,341.382 1758.92,340.813 1761.89,340.245 1764.85,339.678 1767.82,339.11 1770.78,338.543 1773.74,337.976 1776.71,337.409 1779.67,336.842 1782.64,336.275 1785.6,335.709 1788.57,335.142 1791.53,334.576 1794.5,334.01 1797.46,333.445 1800.42,332.879 1803.39,332.314 1806.35,331.749 1809.32,331.184 1812.28,330.619 1815.25,330.055 1818.21,329.49 1821.17,328.926 1824.14,328.362 1827.1,327.798 1830.07,327.235 1833.03,326.671 1836,326.108 1838.96,325.545 1841.92,324.982 1844.89,324.419 1847.85,323.857 1850.82,323.294 1853.78,322.732 1856.75,322.17 1859.71,321.608 1862.67,321.047 1865.64,320.485 1868.6,319.924 1871.57,319.363 1874.53,318.802 1877.5,318.242 1880.46,317.681 1883.43,317.121 1886.39,316.561 1889.35,316.001 1892.32,315.441 1895.28,314.881 1898.25,314.322 1901.21,313.763 1904.18,313.204 1907.14,312.645 1910.1,312.086 1913.07,311.528 1916.03,310.969 1919,310.411 1921.96,309.853 1924.93,309.296 1927.89,308.738 1930.85,308.181 1933.82,307.624 1936.78,307.067 1939.75,306.51 1942.71,305.953 1945.68,305.397 1948.64,304.84 1951.61,304.284 1954.57,303.728 1957.53,303.172 1960.5,302.617 1963.46,302.062 1966.43,301.506 1969.39,300.951 1972.36,300.396 1975.32,299.842 1978.28,299.287 1981.25,298.733 1984.21,298.179 1987.18,297.625 1990.14,297.071 1993.11,296.518 1996.07,295.964 1999.03,295.411 2002,294.858 2004.96,294.305 2007.93,293.752 2010.89,293.2 2013.86,292.647 2016.82,292.095 2019.78,291.543 2022.75,290.992 2025.71,290.44 2028.68,289.888 2031.64,289.337 2034.61,288.786 2037.57,288.235 2040.54,287.684 2043.5,287.134 2046.46,286.584 2049.43,286.033 2052.39,285.483 2055.36,284.933 2058.32,284.384 2061.29,283.834 2064.25,283.285 2067.21,282.736 2070.18,282.187 2073.14,281.638 2076.11,281.089 2079.07,280.541 2082.04,279.993 2085,279.445 2087.96,278.897 2090.93,278.349 2093.89,277.802 2096.86,277.254 2099.82,276.707 2102.79,276.16 2105.75,275.613 2108.72,275.066 2111.68,274.52 2114.64,273.974 2117.61,273.427 2120.57,272.881 2123.54,272.336 2126.5,271.79 2129.47,271.245 2132.43,270.699 2135.39,270.154 2138.36,269.609 2141.32,269.064 2144.29,268.52 2147.25,267.975 2150.22,267.431 2153.18,266.887 2156.14,266.343 2159.11,265.8 2162.07,265.256 2165.04,264.713 2168,264.169 2170.97,263.626 2173.93,263.084 2176.89,262.541 2179.86,261.998 2182.82,261.456 2185.79,260.914 2188.75,260.372 2191.72,259.83 2194.68,259.288 2197.65,258.747 2200.61,258.206 2203.57,257.664 2206.54,257.123 2209.5,256.583 2212.47,256.042 2215.43,255.502 2218.4,254.961 2221.36,254.421 2224.32,253.881 2227.29,253.342 2230.25,252.802 2233.22,252.262 2236.18,251.723 2239.15,251.184 2242.11,250.645 2245.07,250.106 2248.04,249.568 2251,249.03 2253.97,248.491 2256.93,247.953 2259.9,247.415 2262.86,246.878 2265.83,246.34 2268.79,245.803 2271.75,245.265 2274.72,244.728 2277.68,244.191 2280.65,243.655 2283.61,243.118 2286.58,242.582 2289.54,242.046 2292.5,241.51 2295.47,240.974 2298.43,240.438 2301.4,239.902 2304.36,239.367 2307.33,238.832 2310.29,238.297 2313.25,237.762 2316.22,237.227 2319.18,236.693 2322.15,236.158 2325.11,235.624 2328.08,235.09 2331.04,234.556 2334,234.023 2336.97,233.489 2339.93,232.956 2342.9,232.423 2345.86,231.89 2348.83,231.357 2351.79,230.824 2354.76,230.291 2357.72,229.759 2360.68,229.227 2363.65,228.695 2366.61,228.163 2369.58,227.631 2372.54,227.1 2375.51,226.568 2378.47,226.037 2381.43,225.506 2384.4,224.975 2387.36,224.445 2390.33,223.914 2393.29,223.384 2396.26,222.853 2399.22,222.323 2402.18,221.793 2405.15,221.264 2408.11,220.734 2411.08,220.205 2414.04,219.676 2417.01,219.146 2419.97,218.618 2422.94,218.089 2425.9,217.56 2428.86,217.032 2431.83,216.504 2434.79,215.975 2437.76,215.448 2440.72,214.92 2443.69,214.392 2446.65,213.865 2449.61,213.337 2452.58,212.81 2455.54,212.283 2458.51,211.757 2461.47,211.23 2464.44,210.704 2467.4,210.177 2470.36,209.651 2473.33,209.125 2476.29,208.599 2479.26,208.074 2482.22,207.548 2485.19,207.023 2488.15,206.498 2491.11,205.973 2494.08,205.448 2497.04,204.923 2500.01,204.399 2502.97,203.874 2505.94,203.35 2508.9,202.826 2511.87,202.302 2514.83,201.779 2517.79,201.255 2520.76,200.732 2523.72,200.208 2526.69,199.685 2529.65,199.162 2532.62,198.64 2535.58,198.117 2538.54,197.595 2541.51,197.072 2544.47,196.55 2547.44,196.028 2550.4,195.506 2553.37,194.985 2556.33,194.463 2559.29,193.942 2562.26,193.421 2565.22,192.9 2568.19,192.379 2571.15,191.858 2574.12,191.338 2577.08,190.817 2580.05,190.297 2583.01,189.777 2585.97,189.257 2588.94,188.738 2591.9,188.218 2594.87,187.699 2597.83,187.179 2600.8,186.66 2603.76,186.141 2606.72,185.622 2609.69,185.104 2612.65,184.585 2615.62,184.067 2618.58,183.549 2621.55,183.031 2624.51,182.513 2627.47,181.995 2630.44,181.478 2633.4,180.961 2636.37,180.443 2639.33,179.926 2642.3,179.409 2645.26,178.893 2648.22,178.376 2651.19,177.86 2654.15,177.343 2657.12,176.827 2660.08,176.311 2663.05,175.795 2666.01,175.28 2668.98,174.764 2671.94,174.249 2674.9,173.734 2677.87,173.219 2680.83,172.704 2683.8,172.189 2686.76,171.675 2689.73,171.16 2692.69,170.646 2695.65,170.132 2698.62,169.618 2701.58,169.104 2704.55,168.59 2707.51,168.077 2710.48,167.564 2713.44,167.05 2716.4,166.537 2719.37,166.025 2722.33,165.512 2725.3,164.999 2728.26,164.487 2731.23,163.975 2734.19,163.463 2737.16,162.951 2740.12,162.439 2743.08,161.927 2746.05,161.416 2749.01,160.904 2751.98,160.393 2754.94,159.882 2757.91,159.371 2760.87,158.861 2763.83,158.35 2766.8,157.84 2769.76,157.329 2772.73,156.819 2775.69,156.309 2778.66,155.799 2781.62,155.29 2784.58,154.78 2787.55,154.271 2790.51,153.762 2793.48,153.253 2796.44,152.744 2799.41,152.235 2802.37,151.726 2805.33,151.218 2808.3,150.71 2811.26,150.202 2814.23,149.694 2817.19,149.186 2820.16,148.678 2823.12,148.171 2826.09,147.663 2829.05,147.156 2832.01,146.649 2834.98,146.142 2837.94,145.635 2840.91,145.129 2843.87,144.622 2846.84,144.116 2849.8,143.61 2852.76,143.104 2855.73,142.598 2858.69,142.092 2861.66,141.586 2864.62,141.081 2867.59,140.576 2870.55,140.07 2873.51,139.566 2876.48,139.061 2879.44,138.556 2882.41,138.051 2885.37,137.547 2888.34,137.043 2891.3,136.539 2894.27,136.035 2897.23,135.531 2900.19,135.027 2903.16,134.524 2906.12,134.021 2909.09,133.517 2912.05,133.014 2915.02,132.511 2917.98,132.009 2920.94,131.506 2923.91,131.004 2926.87,130.501 2929.84,129.999 2932.8,129.497 2935.77,128.995 2938.73,128.493 2941.69,127.992 2944.66,127.49 2947.62,126.989 2950.59,126.488 2953.55,125.987 2956.52,125.486 2959.48,124.986 2962.44,124.485 2965.41,123.985 2968.37,123.484 2971.34,122.984 2974.3,122.484 2977.27,121.985 2980.23,121.485 2983.2,120.985 2986.16,120.486 2989.12,119.987 2992.09,119.488 2995.05,118.989 2998.02,118.49 3000.98,117.991 3003.95,117.493 3006.91,116.994 3009.87,116.496 3012.84,115.998 3015.8,115.5 3018.77,115.002 3021.73,114.505 3024.7,114.007 3027.66,113.51 3030.62,113.013 3033.59,112.516 3036.55,112.019 3039.52,111.522 3042.48,111.025 3045.45,110.529 3048.41,110.033 3051.38,109.537 3054.34,109.04 3057.3,108.545 3060.27,108.049 3063.23,107.553 3066.2,107.058 3069.16,106.562 3072.13,106.067 3075.09,105.572 3078.05,105.077 3081.02,104.583 3083.98,104.088 3086.95,103.594 3089.91,103.099 3092.88,102.605 3095.84,102.111 3098.8,101.617 3101.77,101.123 3104.73,100.63 3107.7,100.136 3110.66,99.643 3113.63,99.1498 3116.59,98.6568 3119.55,98.1639 3122.52,97.6712 3125.48,97.1786 3128.45,96.6861 3131.41,96.1938 3134.38,95.7016 3137.34,95.2096 3140.31,94.7177 3143.27,94.2259 3146.23,93.7343 3149.2,93.2428 3152.16,92.7515 3155.13,92.2603 3158.09,91.7693 3161.06,91.2784 3164.02,90.7876 3166.98,90.297 3169.95,89.8065 3172.91,89.3161 3175.88,88.8259 3178.84,88.3359 3181.81,87.8459 3184.77,87.3562 3187.73,86.8665 3190.7,86.377 3193.66,85.8877 3196.63,85.3984 3199.59,84.9094 3202.56,84.4204 3205.52,83.9316 3208.49,83.443 3211.45,82.9544 3214.41,82.4661 3217.38,81.9778 3220.34,81.4897 3223.31,81.0018 3226.27,80.5139 3229.24,80.0262 3232.2,79.5387 3235.16,79.0513 3238.13,78.564 3241.09,78.0769 3244.06,77.5899 3247.02,77.1031 3249.99,76.6163 3252.95,76.1298 3255.91,75.6433 "/>
</svg>
